M48
; DRILL file {KiCad 5.1.4} date Sat 19 Oct 2019 22:41:45 BST
; FORMAT={-:-/ absolute / inch / decimal}
; #@! TF.CreationDate,2019-10-19T22:41:45+01:00
; #@! TF.GenerationSoftware,Kicad,Pcbnew,5.1.4
; #@! TF.FileFunction,Plated,1,4,PTH
FMAT,2
INCH
T1C0.0079
T2C0.0118
T3C0.0354
T4C0.0362
T5C0.0394
T6C0.0591
T7C0.0917
T8C0.1260
%
G90
G05
T1
X4.5276Y-3.8189
X4.6929Y-3.8189
X4.9409Y-4.5669
X4.9409Y-4.626
X5.0709Y-4.5669
X5.0807Y-3.0512
X5.189Y-2.811
X5.1923Y-4.5315
X5.2047Y-3.248
X5.2172Y-4.5315
X5.2283Y-3.0709
X5.2283Y-3.5354
X5.2283Y-3.7913
X5.2677Y-2.811
X5.3034Y-4.2186
X5.3071Y-3.0709
X5.321Y-4.201
X5.3344Y-3.1499
X5.3377Y-4.3613
X5.3386Y-3.1024
X5.3465Y-2.811
X5.3552Y-4.3789
X5.378Y-3.252
X5.3804Y-4.6461
X5.3858Y-3.0709
X5.3858Y-3.8583
X5.4016Y-4.6654
X5.4072Y-4.3782
X5.4192Y-4.4449
X5.4252Y-2.811
X5.4291Y-4.248
X5.4335Y-4.5448
X5.4449Y-4.626
X5.4514Y-4.7289
X5.4547Y-4.1339
X5.4646Y-3.0709
X5.4685Y-4.6929
X5.469Y-4.7465
X5.4736Y-4.3512
X5.4744Y-3.5138
X5.4744Y-3.5728
X5.4744Y-3.7697
X5.4744Y-3.8287
X5.4803Y-4.5906
X5.4823Y-4.4783
X5.4882Y-4.6732
X5.5039Y-2.811
X5.5039Y-3.5138
X5.5039Y-3.5728
X5.5039Y-3.7697
X5.5039Y-3.8287
X5.5039Y-3.878
X5.5039Y-4.5276
X5.5138Y-4.4291
X5.5231Y-4.4726
X5.5335Y-4.2421
X5.5433Y-3.0709
X5.5433Y-3.5236
X5.5433Y-3.5531
X5.5433Y-3.7795
X5.5433Y-3.8091
X5.5433Y-4.6555
X5.5479Y-4.4726
X5.5613Y-4.2182
X5.5669Y-4.3858
X5.5728Y-3.5236
X5.5728Y-3.5531
X5.5728Y-3.7795
X5.5728Y-3.8091
X5.5728Y-4.439
X5.5827Y-2.811
X5.5925Y-3.5728
X5.5925Y-3.8287
X5.6024Y-3.5138
X5.6024Y-3.7697
X5.6024Y-3.878
X5.6122Y-4.3406
X5.6142Y-4.4016
X5.622Y-3.0709
X5.6319Y-4.3209
X5.6378Y-4.6496
X5.6516Y-3.5138
X5.6516Y-3.5728
X5.6516Y-3.7697
X5.6516Y-3.8287
X5.6516Y-4.1043
X5.6614Y-2.811
X5.6614Y-4.2421
X5.6732Y-4.2953
X5.7008Y-3.0709
X5.7126Y-4.6535
X5.7362Y-4.7283
X5.7402Y-2.811
X5.752Y-3.2835
X5.7559Y-4.7087
X5.7756Y-4.689
X5.7795Y-3.0709
X5.7913Y-4.5669
X5.7953Y-4.6693
X5.7992Y-4.0453
X5.815Y-4.6496
X5.8189Y-2.811
X5.8425Y-4.8346
X5.8484Y-3.6713
X5.8681Y-4.3898
X5.874Y-4.4882
X5.9469Y-3.7106
X5.9724Y-3.9606
X5.9764Y-3.8386
X5.9803Y-4.0039
X6.0118Y-4.0039
X6.0354Y-4.063
X6.0394Y-4.0315
X6.0551Y-3.9075
X6.065Y-3.75
X6.0669Y-4.0591
X6.0669Y-4.0906
X6.0846Y-3.9567
X6.0906Y-4.1142
X6.0945Y-4.0866
X6.1102Y-4.4724
X6.122Y-4.1142
X6.1457Y-4.1693
X6.1496Y-4.1417
X6.1502Y-3.4094
X6.1634Y-3.878
X6.1732Y-3.6024
X6.189Y-4.2165
X6.1929Y-4.185
X6.2126Y-4.0551
X6.2126Y-4.8031
X6.2165Y-3.5591
X6.2165Y-4.3858
X6.2232Y-3.4252
X6.2244Y-3.9173
X6.2283Y-4.2598
X6.2362Y-4.2283
X6.2362Y-4.3031
X6.2441Y-4.5787
X6.248Y-3.5354
X6.252Y-4.0945
X6.2559Y-4.2835
X6.2598Y-3.3819
X6.2598Y-4.252
X6.2606Y-3.3556
X6.2638Y-3.6929
X6.2815Y-4.1437
X6.2835Y-4.311
X6.2874Y-4.2795
X6.2913Y-3.9665
X6.3012Y-3.4744
X6.3031Y-4.378
X6.3039Y-4.5126
X6.3189Y-4.311
X6.3307Y-4.0157
X6.3996Y-3.7303
X6.4094Y-3.3661
X6.4685Y-4.2913
X6.4882Y-3.4744
X6.4931Y-3.5876
X6.4931Y-3.686
X6.5125Y-4.334
X6.5236Y-4.1929
X6.5374Y-4.5807
X6.5374Y-4.8031
X6.548Y-4.0859
X6.5571Y-4.2913
X6.5628Y-3.3659
X6.5768Y-3.3858
X6.5768Y-3.9173
X6.5846Y-3.2579
X6.6024Y-3.2756
X6.6063Y-4.0354
X6.6102Y-4.2362
X6.6122Y-3.8622
X6.622Y-3.2953
X6.626Y-3.2422
X6.628Y-3.6102
X6.6417Y-4.1575
X6.6575Y-3.3307
X6.6646Y-4.0598
X6.6693Y-4.378
X6.6703Y-4.3359
X6.6752Y-4.1535
X6.6843Y-4.1142
X6.685Y-3.3583
X6.685Y-3.4803
X6.685Y-4.4842
X6.687Y-3.3307
X6.689Y-3.5315
X6.7008Y-4.3307
X6.7013Y-4.2973
X6.7028Y-3.376
X6.7047Y-4.2717
X6.7165Y-4.3661
X6.7303Y-3.372
X6.7323Y-3.3996
X6.7402Y-4.2244
X6.7441Y-4.3937
X6.7598Y-4.0787
X6.7657Y-3.435
X6.7807Y-4.0662
X6.7854Y-3.4547
X6.7874Y-3.5906
X6.7874Y-3.689
X6.7874Y-4.3898
X6.7933Y-3.75
X6.7933Y-3.8878
X6.811Y-4.1575
X6.813Y-3.4508
X6.813Y-3.4843
X6.815Y-3.6181
X6.8228Y-4.4685
X6.8346Y-3.5039
X6.8524Y-4.1121
X6.8524Y-4.8031
X6.8563Y-3.5236
X6.8571Y-3.652
X6.872Y-3.8091
X6.872Y-3.9665
X6.874Y-3.6732
X6.8937Y-3.6909
X6.8976Y-4.0748
X6.9016Y-3.5591
X6.9114Y-3.7205
X6.9354Y-3.7248
X6.9508Y-3.8878
X6.9528Y-4.0197
X6.954Y-3.7647
X6.9567Y-3.5945
X6.9776Y-3.7783
X6.9803Y-3.9921
X6.9843Y-4.5217
X7.1063Y-4.8346
X7.1083Y-4.5965
X7.1142Y-4.3307
X7.1614Y-4.1969
X7.1673Y-3.8878
X7.1673Y-4.0748
X7.1693Y-4.0394
X7.1693Y-4.1654
X7.1732Y-3.9685
X7.231Y-4.5893
X7.2638Y-3.4094
X7.2638Y-3.9764
X7.2638Y-4.1654
X7.2638Y-4.2283
X7.2677Y-3.9134
X7.2698Y-3.8174
X7.2953Y-4.5354
X7.3268Y-4.8346
X7.3839Y-4.4488
X7.3917Y-4.685
X7.4409Y-4.0079
X7.4528Y-3.8504
X7.4567Y-4.3898
X7.6181Y-4.1024
X7.6181Y-4.1339
X7.622Y-3.874
X7.622Y-4.0079
X7.622Y-4.0394
X7.622Y-4.1969
X7.7185Y-3.4055
X7.7185Y-3.7992
X7.7185Y-3.9764
X7.7185Y-4.1634
X7.7185Y-4.2323
X7.748Y-3.311
X7.748Y-4.3307
X7.7835Y-3.8504
X7.7835Y-3.9055
X7.7874Y-4.1024
X5.5794Y-4.4882
X5.6253Y-4.4423
X5.6253Y-4.5341
X5.6713Y-4.3963
X5.6713Y-4.4882
X5.6713Y-4.5801
X5.7172Y-4.4423
X5.7172Y-4.5341
X5.7631Y-4.4882
T2
X5.3622Y-3.3937
X5.3622Y-3.4409
X5.3622Y-3.4921
X5.3622Y-3.5354
X5.4094Y-3.3937
X5.4094Y-3.4409
X5.4094Y-3.4921
X5.4094Y-3.5354
X5.3622Y-3.6496
X5.3622Y-3.6969
X5.3622Y-3.748
X5.3622Y-3.7913
X5.4094Y-3.6496
X5.4094Y-3.6969
X5.4094Y-3.748
X5.4094Y-3.7913
T3
X4.715Y-3.9524
X4.715Y-4.3504
X4.7748Y-4.0524
X4.7748Y-4.4504
X5.1579Y-4.0264
X5.1579Y-4.1264
X5.1579Y-4.2264
X5.1579Y-4.3264
X5.1579Y-4.4264
X5.2579Y-3.9764
X5.2579Y-4.0764
X5.2579Y-4.1764
X5.2579Y-4.2764
X5.2579Y-4.3764
T4
X4.9921Y-3.3268
X4.9921Y-3.4252
X5.0709Y-3.3268
X5.0709Y-3.4252
T5
X6.8764Y-2.9157
X6.8764Y-3.0157
X6.9764Y-2.9157
X6.9764Y-3.0157
X7.0764Y-2.9157
X7.0764Y-3.0157
X7.1764Y-2.9157
X7.1764Y-3.0157
X7.2764Y-2.9157
X7.2764Y-3.0157
X7.3764Y-2.9157
X7.3764Y-3.0157
X5.9764Y-2.9157
X5.9764Y-3.0157
X6.0764Y-2.9157
X6.0764Y-3.0157
X6.1764Y-2.9157
X6.1764Y-3.0157
X6.2764Y-2.9157
X6.2764Y-3.0157
X6.3764Y-2.9157
X6.3764Y-3.0157
X6.4764Y-2.9157
X6.4764Y-3.0157
T6
X5.028Y-3.8953
X5.028Y-4.5075
T7
X4.8854Y-3.139
X4.8854Y-3.613
T8
X7.6299Y-4.685
X4.6772Y-2.9528
X7.6299Y-2.9528
X4.6772Y-4.685
T0
M30
