G04 #@! TF.GenerationSoftware,KiCad,Pcbnew,5.1.4*
G04 #@! TF.CreationDate,2019-10-28T19:15:53+00:00*
G04 #@! TF.ProjectId,manila_ice,6d616e69-6c61-45f6-9963-652e6b696361,rev?*
G04 #@! TF.SameCoordinates,Original*
G04 #@! TF.FileFunction,Legend,Bot*
G04 #@! TF.FilePolarity,Positive*
%FSLAX46Y46*%
G04 Gerber Fmt 4.6, Leading zero omitted, Abs format (unit mm)*
G04 Created by KiCad (PCBNEW 5.1.4) date 2019-10-28 19:15:53*
%MOMM*%
%LPD*%
G04 APERTURE LIST*
%ADD10C,0.200000*%
%ADD11C,0.250000*%
%ADD12C,0.120000*%
%ADD13C,0.010000*%
%ADD14C,0.150000*%
G04 APERTURE END LIST*
D10*
X178381904Y-121602380D02*
X178381904Y-120602380D01*
X178143809Y-120602380D01*
X178000952Y-120650000D01*
X177905714Y-120745238D01*
X177858095Y-120840476D01*
X177810476Y-121030952D01*
X177810476Y-121173809D01*
X177858095Y-121364285D01*
X177905714Y-121459523D01*
X178000952Y-121554761D01*
X178143809Y-121602380D01*
X178381904Y-121602380D01*
X177000952Y-121554761D02*
X177096190Y-121602380D01*
X177286666Y-121602380D01*
X177381904Y-121554761D01*
X177429523Y-121459523D01*
X177429523Y-121078571D01*
X177381904Y-120983333D01*
X177286666Y-120935714D01*
X177096190Y-120935714D01*
X177000952Y-120983333D01*
X176953333Y-121078571D01*
X176953333Y-121173809D01*
X177429523Y-121269047D01*
X176572380Y-121554761D02*
X176477142Y-121602380D01*
X176286666Y-121602380D01*
X176191428Y-121554761D01*
X176143809Y-121459523D01*
X176143809Y-121411904D01*
X176191428Y-121316666D01*
X176286666Y-121269047D01*
X176429523Y-121269047D01*
X176524761Y-121221428D01*
X176572380Y-121126190D01*
X176572380Y-121078571D01*
X176524761Y-120983333D01*
X176429523Y-120935714D01*
X176286666Y-120935714D01*
X176191428Y-120983333D01*
X175715238Y-121602380D02*
X175715238Y-120935714D01*
X175715238Y-120602380D02*
X175762857Y-120650000D01*
X175715238Y-120697619D01*
X175667619Y-120650000D01*
X175715238Y-120602380D01*
X175715238Y-120697619D01*
X174810476Y-120935714D02*
X174810476Y-121745238D01*
X174858095Y-121840476D01*
X174905714Y-121888095D01*
X175000952Y-121935714D01*
X175143809Y-121935714D01*
X175239047Y-121888095D01*
X174810476Y-121554761D02*
X174905714Y-121602380D01*
X175096190Y-121602380D01*
X175191428Y-121554761D01*
X175239047Y-121507142D01*
X175286666Y-121411904D01*
X175286666Y-121126190D01*
X175239047Y-121030952D01*
X175191428Y-120983333D01*
X175096190Y-120935714D01*
X174905714Y-120935714D01*
X174810476Y-120983333D01*
X174334285Y-120935714D02*
X174334285Y-121602380D01*
X174334285Y-121030952D02*
X174286666Y-120983333D01*
X174191428Y-120935714D01*
X174048571Y-120935714D01*
X173953333Y-120983333D01*
X173905714Y-121078571D01*
X173905714Y-121602380D01*
X173048571Y-121554761D02*
X173143809Y-121602380D01*
X173334285Y-121602380D01*
X173429523Y-121554761D01*
X173477142Y-121459523D01*
X173477142Y-121078571D01*
X173429523Y-120983333D01*
X173334285Y-120935714D01*
X173143809Y-120935714D01*
X173048571Y-120983333D01*
X173000952Y-121078571D01*
X173000952Y-121173809D01*
X173477142Y-121269047D01*
X172143809Y-121602380D02*
X172143809Y-120602380D01*
X172143809Y-121554761D02*
X172239047Y-121602380D01*
X172429523Y-121602380D01*
X172524761Y-121554761D01*
X172572380Y-121507142D01*
X172620000Y-121411904D01*
X172620000Y-121126190D01*
X172572380Y-121030952D01*
X172524761Y-120983333D01*
X172429523Y-120935714D01*
X172239047Y-120935714D01*
X172143809Y-120983333D01*
X170905714Y-121602380D02*
X170905714Y-120602380D01*
X170905714Y-120983333D02*
X170810476Y-120935714D01*
X170620000Y-120935714D01*
X170524761Y-120983333D01*
X170477142Y-121030952D01*
X170429523Y-121126190D01*
X170429523Y-121411904D01*
X170477142Y-121507142D01*
X170524761Y-121554761D01*
X170620000Y-121602380D01*
X170810476Y-121602380D01*
X170905714Y-121554761D01*
X170096190Y-120935714D02*
X169858095Y-121602380D01*
X169620000Y-120935714D02*
X169858095Y-121602380D01*
X169953333Y-121840476D01*
X170000952Y-121888095D01*
X170096190Y-121935714D01*
X168191428Y-120602380D02*
X168191428Y-121316666D01*
X168239047Y-121459523D01*
X168334285Y-121554761D01*
X168477142Y-121602380D01*
X168572380Y-121602380D01*
X167572380Y-121602380D02*
X167667619Y-121554761D01*
X167715238Y-121507142D01*
X167762857Y-121411904D01*
X167762857Y-121126190D01*
X167715238Y-121030952D01*
X167667619Y-120983333D01*
X167572380Y-120935714D01*
X167429523Y-120935714D01*
X167334285Y-120983333D01*
X167286666Y-121030952D01*
X167239047Y-121126190D01*
X167239047Y-121411904D01*
X167286666Y-121507142D01*
X167334285Y-121554761D01*
X167429523Y-121602380D01*
X167572380Y-121602380D01*
X166858095Y-121554761D02*
X166762857Y-121602380D01*
X166572380Y-121602380D01*
X166477142Y-121554761D01*
X166429523Y-121459523D01*
X166429523Y-121411904D01*
X166477142Y-121316666D01*
X166572380Y-121269047D01*
X166715238Y-121269047D01*
X166810476Y-121221428D01*
X166858095Y-121126190D01*
X166858095Y-121078571D01*
X166810476Y-120983333D01*
X166715238Y-120935714D01*
X166572380Y-120935714D01*
X166477142Y-120983333D01*
X166000952Y-121602380D02*
X166000952Y-120602380D01*
X165572380Y-121602380D02*
X165572380Y-121078571D01*
X165620000Y-120983333D01*
X165715238Y-120935714D01*
X165858095Y-120935714D01*
X165953333Y-120983333D01*
X166000952Y-121030952D01*
X164667619Y-120935714D02*
X164667619Y-121602380D01*
X165096190Y-120935714D02*
X165096190Y-121459523D01*
X165048571Y-121554761D01*
X164953333Y-121602380D01*
X164810476Y-121602380D01*
X164715238Y-121554761D01*
X164667619Y-121507142D01*
X163762857Y-121602380D02*
X163762857Y-121078571D01*
X163810476Y-120983333D01*
X163905714Y-120935714D01*
X164096190Y-120935714D01*
X164191428Y-120983333D01*
X163762857Y-121554761D02*
X163858095Y-121602380D01*
X164096190Y-121602380D01*
X164191428Y-121554761D01*
X164239047Y-121459523D01*
X164239047Y-121364285D01*
X164191428Y-121269047D01*
X164096190Y-121221428D01*
X163858095Y-121221428D01*
X163762857Y-121173809D01*
X162667619Y-120602380D02*
X162096190Y-120602380D01*
X162381904Y-121602380D02*
X162381904Y-120602380D01*
X161858095Y-120935714D02*
X161620000Y-121602380D01*
X161381904Y-120935714D02*
X161620000Y-121602380D01*
X161715238Y-121840476D01*
X161762857Y-121888095D01*
X161858095Y-121935714D01*
X160858095Y-121602380D02*
X160953333Y-121554761D01*
X161000952Y-121459523D01*
X161000952Y-120602380D01*
X160096190Y-121554761D02*
X160191428Y-121602380D01*
X160381904Y-121602380D01*
X160477142Y-121554761D01*
X160524761Y-121459523D01*
X160524761Y-121078571D01*
X160477142Y-120983333D01*
X160381904Y-120935714D01*
X160191428Y-120935714D01*
X160096190Y-120983333D01*
X160048571Y-121078571D01*
X160048571Y-121173809D01*
X160524761Y-121269047D01*
X159620000Y-121602380D02*
X159620000Y-120935714D01*
X159620000Y-121126190D02*
X159572380Y-121030952D01*
X159524761Y-120983333D01*
X159429523Y-120935714D01*
X159334285Y-120935714D01*
X178191428Y-122302380D02*
X178000952Y-122302380D01*
X177905714Y-122350000D01*
X177810476Y-122445238D01*
X177762857Y-122635714D01*
X177762857Y-122969047D01*
X177810476Y-123159523D01*
X177905714Y-123254761D01*
X178000952Y-123302380D01*
X178191428Y-123302380D01*
X178286666Y-123254761D01*
X178381904Y-123159523D01*
X178429523Y-122969047D01*
X178429523Y-122635714D01*
X178381904Y-122445238D01*
X178286666Y-122350000D01*
X178191428Y-122302380D01*
X176905714Y-123254761D02*
X177000952Y-123302380D01*
X177191428Y-123302380D01*
X177286666Y-123254761D01*
X177334285Y-123207142D01*
X177381904Y-123111904D01*
X177381904Y-122826190D01*
X177334285Y-122730952D01*
X177286666Y-122683333D01*
X177191428Y-122635714D01*
X177000952Y-122635714D01*
X176905714Y-122683333D01*
X176620000Y-122635714D02*
X176239047Y-122635714D01*
X176477142Y-122302380D02*
X176477142Y-123159523D01*
X176429523Y-123254761D01*
X176334285Y-123302380D01*
X176239047Y-123302380D01*
X175762857Y-123302380D02*
X175858095Y-123254761D01*
X175905714Y-123207142D01*
X175953333Y-123111904D01*
X175953333Y-122826190D01*
X175905714Y-122730952D01*
X175858095Y-122683333D01*
X175762857Y-122635714D01*
X175620000Y-122635714D01*
X175524761Y-122683333D01*
X175477142Y-122730952D01*
X175429523Y-122826190D01*
X175429523Y-123111904D01*
X175477142Y-123207142D01*
X175524761Y-123254761D01*
X175620000Y-123302380D01*
X175762857Y-123302380D01*
X175000952Y-123302380D02*
X175000952Y-122302380D01*
X175000952Y-122683333D02*
X174905714Y-122635714D01*
X174715238Y-122635714D01*
X174620000Y-122683333D01*
X174572380Y-122730952D01*
X174524761Y-122826190D01*
X174524761Y-123111904D01*
X174572380Y-123207142D01*
X174620000Y-123254761D01*
X174715238Y-123302380D01*
X174905714Y-123302380D01*
X175000952Y-123254761D01*
X173715238Y-123254761D02*
X173810476Y-123302380D01*
X174000952Y-123302380D01*
X174096190Y-123254761D01*
X174143809Y-123159523D01*
X174143809Y-122778571D01*
X174096190Y-122683333D01*
X174000952Y-122635714D01*
X173810476Y-122635714D01*
X173715238Y-122683333D01*
X173667619Y-122778571D01*
X173667619Y-122873809D01*
X174143809Y-122969047D01*
X173239047Y-123302380D02*
X173239047Y-122635714D01*
X173239047Y-122826190D02*
X173191428Y-122730952D01*
X173143809Y-122683333D01*
X173048571Y-122635714D01*
X172953333Y-122635714D01*
X171905714Y-122397619D02*
X171858095Y-122350000D01*
X171762857Y-122302380D01*
X171524761Y-122302380D01*
X171429523Y-122350000D01*
X171381904Y-122397619D01*
X171334285Y-122492857D01*
X171334285Y-122588095D01*
X171381904Y-122730952D01*
X171953333Y-123302380D01*
X171334285Y-123302380D01*
X170715238Y-122302380D02*
X170620000Y-122302380D01*
X170524761Y-122350000D01*
X170477142Y-122397619D01*
X170429523Y-122492857D01*
X170381904Y-122683333D01*
X170381904Y-122921428D01*
X170429523Y-123111904D01*
X170477142Y-123207142D01*
X170524761Y-123254761D01*
X170620000Y-123302380D01*
X170715238Y-123302380D01*
X170810476Y-123254761D01*
X170858095Y-123207142D01*
X170905714Y-123111904D01*
X170953333Y-122921428D01*
X170953333Y-122683333D01*
X170905714Y-122492857D01*
X170858095Y-122397619D01*
X170810476Y-122350000D01*
X170715238Y-122302380D01*
X169429523Y-123302380D02*
X170000952Y-123302380D01*
X169715238Y-123302380D02*
X169715238Y-122302380D01*
X169810476Y-122445238D01*
X169905714Y-122540476D01*
X170000952Y-122588095D01*
X168953333Y-123302380D02*
X168762857Y-123302380D01*
X168667619Y-123254761D01*
X168620000Y-123207142D01*
X168524761Y-123064285D01*
X168477142Y-122873809D01*
X168477142Y-122492857D01*
X168524761Y-122397619D01*
X168572380Y-122350000D01*
X168667619Y-122302380D01*
X168858095Y-122302380D01*
X168953333Y-122350000D01*
X169000952Y-122397619D01*
X169048571Y-122492857D01*
X169048571Y-122730952D01*
X169000952Y-122826190D01*
X168953333Y-122873809D01*
X168858095Y-122921428D01*
X168667619Y-122921428D01*
X168572380Y-122873809D01*
X168524761Y-122826190D01*
X168477142Y-122730952D01*
D11*
X171728571Y-96178571D02*
X171728571Y-97250000D01*
X171800000Y-97464285D01*
X171942857Y-97607142D01*
X172157142Y-97678571D01*
X172300000Y-97678571D01*
X170300000Y-97678571D02*
X171014285Y-97678571D01*
X171014285Y-96178571D01*
X168942857Y-97535714D02*
X169014285Y-97607142D01*
X169228571Y-97678571D01*
X169371428Y-97678571D01*
X169585714Y-97607142D01*
X169728571Y-97464285D01*
X169800000Y-97321428D01*
X169871428Y-97035714D01*
X169871428Y-96821428D01*
X169800000Y-96535714D01*
X169728571Y-96392857D01*
X169585714Y-96250000D01*
X169371428Y-96178571D01*
X169228571Y-96178571D01*
X169014285Y-96250000D01*
X168942857Y-96321428D01*
X167871428Y-96178571D02*
X167871428Y-97250000D01*
X167942857Y-97464285D01*
X168085714Y-97607142D01*
X168300000Y-97678571D01*
X168442857Y-97678571D01*
X166442857Y-97678571D02*
X167157142Y-97678571D01*
X167157142Y-96178571D01*
X165085714Y-97535714D02*
X165157142Y-97607142D01*
X165371428Y-97678571D01*
X165514285Y-97678571D01*
X165728571Y-97607142D01*
X165871428Y-97464285D01*
X165942857Y-97321428D01*
X166014285Y-97035714D01*
X166014285Y-96821428D01*
X165942857Y-96535714D01*
X165871428Y-96392857D01*
X165728571Y-96250000D01*
X165514285Y-96178571D01*
X165371428Y-96178571D01*
X165157142Y-96250000D01*
X165085714Y-96321428D01*
X164014285Y-96178571D02*
X164014285Y-97250000D01*
X164085714Y-97464285D01*
X164228571Y-97607142D01*
X164442857Y-97678571D01*
X164585714Y-97678571D01*
X162585714Y-97678571D02*
X163300000Y-97678571D01*
X163300000Y-96178571D01*
X161228571Y-97535714D02*
X161300000Y-97607142D01*
X161514285Y-97678571D01*
X161657142Y-97678571D01*
X161871428Y-97607142D01*
X162014285Y-97464285D01*
X162085714Y-97321428D01*
X162157142Y-97035714D01*
X162157142Y-96821428D01*
X162085714Y-96535714D01*
X162014285Y-96392857D01*
X161871428Y-96250000D01*
X161657142Y-96178571D01*
X161514285Y-96178571D01*
X161300000Y-96250000D01*
X161228571Y-96321428D01*
X160157142Y-96178571D02*
X160157142Y-97250000D01*
X160228571Y-97464285D01*
X160371428Y-97607142D01*
X160585714Y-97678571D01*
X160728571Y-97678571D01*
X158728571Y-97678571D02*
X159442857Y-97678571D01*
X159442857Y-96178571D01*
X157371428Y-97535714D02*
X157442857Y-97607142D01*
X157657142Y-97678571D01*
X157800000Y-97678571D01*
X158014285Y-97607142D01*
X158157142Y-97464285D01*
X158228571Y-97321428D01*
X158300000Y-97035714D01*
X158300000Y-96821428D01*
X158228571Y-96535714D01*
X158157142Y-96392857D01*
X158014285Y-96250000D01*
X157800000Y-96178571D01*
X157657142Y-96178571D01*
X157442857Y-96250000D01*
X157371428Y-96321428D01*
D12*
X184540000Y-95720000D02*
X184540000Y-87350000D01*
X197060000Y-95720000D02*
X184540000Y-95720000D01*
X197060000Y-87340000D02*
X197060000Y-95720000D01*
X184540000Y-87350000D02*
X197060000Y-87340000D01*
X165471751Y-83374052D02*
X166383919Y-82461885D01*
X164800000Y-111297699D02*
X164128249Y-110625948D01*
X165471751Y-110625948D02*
X164800000Y-111297699D01*
X179097699Y-97000000D02*
X178425948Y-96328249D01*
X178425948Y-97671751D02*
X179097699Y-97000000D01*
X150502301Y-97000000D02*
X151174052Y-97671751D01*
X151174052Y-96328249D02*
X150502301Y-97000000D01*
X164800000Y-82702301D02*
X165471751Y-83374052D01*
X164128249Y-83374052D02*
X164800000Y-82702301D01*
D13*
G36*
X123571177Y-121774533D02*
G01*
X123539798Y-121796776D01*
X123512089Y-121824485D01*
X123512089Y-122133920D01*
X123512162Y-122225799D01*
X123512505Y-122297840D01*
X123513308Y-122352780D01*
X123514759Y-122393360D01*
X123517048Y-122422317D01*
X123520364Y-122442391D01*
X123524895Y-122456321D01*
X123530831Y-122466845D01*
X123535486Y-122473100D01*
X123566217Y-122497673D01*
X123601504Y-122500341D01*
X123633755Y-122485271D01*
X123644412Y-122476374D01*
X123651536Y-122464557D01*
X123655833Y-122445526D01*
X123658009Y-122414992D01*
X123658772Y-122368662D01*
X123658845Y-122332871D01*
X123658845Y-122198045D01*
X124155556Y-122198045D01*
X124155556Y-122320700D01*
X124156069Y-122376787D01*
X124158124Y-122415333D01*
X124162492Y-122441361D01*
X124169944Y-122459897D01*
X124178953Y-122473100D01*
X124209856Y-122497604D01*
X124244804Y-122500506D01*
X124278262Y-122483089D01*
X124287396Y-122473959D01*
X124293848Y-122461855D01*
X124298103Y-122443001D01*
X124300648Y-122413620D01*
X124301971Y-122369937D01*
X124302557Y-122308175D01*
X124302625Y-122294000D01*
X124303109Y-122177631D01*
X124303359Y-122081727D01*
X124303277Y-122004177D01*
X124302769Y-121942869D01*
X124301738Y-121895690D01*
X124300087Y-121860530D01*
X124297721Y-121835276D01*
X124294543Y-121817817D01*
X124290456Y-121806041D01*
X124285366Y-121797835D01*
X124279734Y-121791645D01*
X124247872Y-121771844D01*
X124214643Y-121774533D01*
X124183265Y-121796776D01*
X124170567Y-121811126D01*
X124162474Y-121826978D01*
X124157958Y-121849554D01*
X124155994Y-121884078D01*
X124155556Y-121935776D01*
X124155556Y-122051289D01*
X123658845Y-122051289D01*
X123658845Y-121932756D01*
X123658338Y-121878148D01*
X123656302Y-121841275D01*
X123651965Y-121817307D01*
X123644553Y-121801415D01*
X123636267Y-121791645D01*
X123604406Y-121771844D01*
X123571177Y-121774533D01*
X123571177Y-121774533D01*
G37*
X123571177Y-121774533D02*
X123539798Y-121796776D01*
X123512089Y-121824485D01*
X123512089Y-122133920D01*
X123512162Y-122225799D01*
X123512505Y-122297840D01*
X123513308Y-122352780D01*
X123514759Y-122393360D01*
X123517048Y-122422317D01*
X123520364Y-122442391D01*
X123524895Y-122456321D01*
X123530831Y-122466845D01*
X123535486Y-122473100D01*
X123566217Y-122497673D01*
X123601504Y-122500341D01*
X123633755Y-122485271D01*
X123644412Y-122476374D01*
X123651536Y-122464557D01*
X123655833Y-122445526D01*
X123658009Y-122414992D01*
X123658772Y-122368662D01*
X123658845Y-122332871D01*
X123658845Y-122198045D01*
X124155556Y-122198045D01*
X124155556Y-122320700D01*
X124156069Y-122376787D01*
X124158124Y-122415333D01*
X124162492Y-122441361D01*
X124169944Y-122459897D01*
X124178953Y-122473100D01*
X124209856Y-122497604D01*
X124244804Y-122500506D01*
X124278262Y-122483089D01*
X124287396Y-122473959D01*
X124293848Y-122461855D01*
X124298103Y-122443001D01*
X124300648Y-122413620D01*
X124301971Y-122369937D01*
X124302557Y-122308175D01*
X124302625Y-122294000D01*
X124303109Y-122177631D01*
X124303359Y-122081727D01*
X124303277Y-122004177D01*
X124302769Y-121942869D01*
X124301738Y-121895690D01*
X124300087Y-121860530D01*
X124297721Y-121835276D01*
X124294543Y-121817817D01*
X124290456Y-121806041D01*
X124285366Y-121797835D01*
X124279734Y-121791645D01*
X124247872Y-121771844D01*
X124214643Y-121774533D01*
X124183265Y-121796776D01*
X124170567Y-121811126D01*
X124162474Y-121826978D01*
X124157958Y-121849554D01*
X124155994Y-121884078D01*
X124155556Y-121935776D01*
X124155556Y-122051289D01*
X123658845Y-122051289D01*
X123658845Y-121932756D01*
X123658338Y-121878148D01*
X123656302Y-121841275D01*
X123651965Y-121817307D01*
X123644553Y-121801415D01*
X123636267Y-121791645D01*
X123604406Y-121771844D01*
X123571177Y-121774533D01*
G36*
X124836935Y-121769163D02*
G01*
X124758228Y-121769542D01*
X124697137Y-121770333D01*
X124651183Y-121771670D01*
X124617886Y-121773683D01*
X124594764Y-121776506D01*
X124579338Y-121780269D01*
X124569129Y-121785105D01*
X124564187Y-121788822D01*
X124538543Y-121821358D01*
X124535441Y-121855138D01*
X124551289Y-121885826D01*
X124561652Y-121898089D01*
X124572804Y-121906450D01*
X124588965Y-121911657D01*
X124614358Y-121914457D01*
X124653202Y-121915596D01*
X124709720Y-121915821D01*
X124720820Y-121915822D01*
X124866756Y-121915822D01*
X124866756Y-122186756D01*
X124866852Y-122272154D01*
X124867289Y-122337864D01*
X124868288Y-122386774D01*
X124870072Y-122421773D01*
X124872863Y-122445749D01*
X124876883Y-122461593D01*
X124882355Y-122472191D01*
X124889334Y-122480267D01*
X124922266Y-122500112D01*
X124956646Y-122498548D01*
X124987824Y-122475906D01*
X124990114Y-122473100D01*
X124997571Y-122462492D01*
X125003253Y-122450081D01*
X125007399Y-122432850D01*
X125010250Y-122407784D01*
X125012046Y-122371867D01*
X125013028Y-122322083D01*
X125013436Y-122255417D01*
X125013511Y-122179589D01*
X125013511Y-121915822D01*
X125152873Y-121915822D01*
X125212678Y-121915418D01*
X125254082Y-121913840D01*
X125281252Y-121910547D01*
X125298354Y-121904992D01*
X125309557Y-121896631D01*
X125310917Y-121895178D01*
X125327275Y-121861939D01*
X125325828Y-121824362D01*
X125307022Y-121791645D01*
X125299750Y-121785298D01*
X125290373Y-121780266D01*
X125276391Y-121776396D01*
X125255304Y-121773537D01*
X125224611Y-121771535D01*
X125181811Y-121770239D01*
X125124405Y-121769498D01*
X125049890Y-121769158D01*
X124955767Y-121769068D01*
X124935740Y-121769067D01*
X124836935Y-121769163D01*
X124836935Y-121769163D01*
G37*
X124836935Y-121769163D02*
X124758228Y-121769542D01*
X124697137Y-121770333D01*
X124651183Y-121771670D01*
X124617886Y-121773683D01*
X124594764Y-121776506D01*
X124579338Y-121780269D01*
X124569129Y-121785105D01*
X124564187Y-121788822D01*
X124538543Y-121821358D01*
X124535441Y-121855138D01*
X124551289Y-121885826D01*
X124561652Y-121898089D01*
X124572804Y-121906450D01*
X124588965Y-121911657D01*
X124614358Y-121914457D01*
X124653202Y-121915596D01*
X124709720Y-121915821D01*
X124720820Y-121915822D01*
X124866756Y-121915822D01*
X124866756Y-122186756D01*
X124866852Y-122272154D01*
X124867289Y-122337864D01*
X124868288Y-122386774D01*
X124870072Y-122421773D01*
X124872863Y-122445749D01*
X124876883Y-122461593D01*
X124882355Y-122472191D01*
X124889334Y-122480267D01*
X124922266Y-122500112D01*
X124956646Y-122498548D01*
X124987824Y-122475906D01*
X124990114Y-122473100D01*
X124997571Y-122462492D01*
X125003253Y-122450081D01*
X125007399Y-122432850D01*
X125010250Y-122407784D01*
X125012046Y-122371867D01*
X125013028Y-122322083D01*
X125013436Y-122255417D01*
X125013511Y-122179589D01*
X125013511Y-121915822D01*
X125152873Y-121915822D01*
X125212678Y-121915418D01*
X125254082Y-121913840D01*
X125281252Y-121910547D01*
X125298354Y-121904992D01*
X125309557Y-121896631D01*
X125310917Y-121895178D01*
X125327275Y-121861939D01*
X125325828Y-121824362D01*
X125307022Y-121791645D01*
X125299750Y-121785298D01*
X125290373Y-121780266D01*
X125276391Y-121776396D01*
X125255304Y-121773537D01*
X125224611Y-121771535D01*
X125181811Y-121770239D01*
X125124405Y-121769498D01*
X125049890Y-121769158D01*
X124955767Y-121769068D01*
X124935740Y-121769067D01*
X124836935Y-121769163D01*
G36*
X125611386Y-121775877D02*
G01*
X125587673Y-121790647D01*
X125561022Y-121812227D01*
X125561022Y-122133773D01*
X125561107Y-122227830D01*
X125561471Y-122301932D01*
X125562276Y-122358704D01*
X125563687Y-122400768D01*
X125565867Y-122430748D01*
X125568979Y-122451267D01*
X125573186Y-122464949D01*
X125578652Y-122474416D01*
X125582528Y-122479082D01*
X125613966Y-122499575D01*
X125649767Y-122498739D01*
X125681127Y-122481264D01*
X125707778Y-122459684D01*
X125707778Y-121812227D01*
X125681127Y-121790647D01*
X125655406Y-121774949D01*
X125634400Y-121769067D01*
X125611386Y-121775877D01*
X125611386Y-121775877D01*
G37*
X125611386Y-121775877D02*
X125587673Y-121790647D01*
X125561022Y-121812227D01*
X125561022Y-122133773D01*
X125561107Y-122227830D01*
X125561471Y-122301932D01*
X125562276Y-122358704D01*
X125563687Y-122400768D01*
X125565867Y-122430748D01*
X125568979Y-122451267D01*
X125573186Y-122464949D01*
X125578652Y-122474416D01*
X125582528Y-122479082D01*
X125613966Y-122499575D01*
X125649767Y-122498739D01*
X125681127Y-122481264D01*
X125707778Y-122459684D01*
X125707778Y-121812227D01*
X125681127Y-121790647D01*
X125655406Y-121774949D01*
X125634400Y-121769067D01*
X125611386Y-121775877D01*
G36*
X126055335Y-121771034D02*
G01*
X126035745Y-121778035D01*
X126034990Y-121778377D01*
X126008387Y-121798678D01*
X125993730Y-121819561D01*
X125990862Y-121829352D01*
X125991004Y-121842361D01*
X125995039Y-121860895D01*
X126003854Y-121887257D01*
X126018331Y-121923752D01*
X126039355Y-121972687D01*
X126067812Y-122036365D01*
X126104585Y-122117093D01*
X126124825Y-122161216D01*
X126161375Y-122239985D01*
X126195685Y-122312423D01*
X126226448Y-122375880D01*
X126252352Y-122427708D01*
X126272090Y-122465259D01*
X126284350Y-122485884D01*
X126286776Y-122488733D01*
X126317817Y-122501302D01*
X126352879Y-122499619D01*
X126381000Y-122484332D01*
X126382146Y-122483089D01*
X126393332Y-122466154D01*
X126412096Y-122433170D01*
X126436125Y-122388380D01*
X126463103Y-122336032D01*
X126472799Y-122316742D01*
X126545986Y-122170150D01*
X126625760Y-122329393D01*
X126654233Y-122384415D01*
X126680650Y-122432132D01*
X126702852Y-122468893D01*
X126718681Y-122491044D01*
X126724046Y-122495741D01*
X126765743Y-122502102D01*
X126800151Y-122488733D01*
X126810272Y-122474446D01*
X126827786Y-122442692D01*
X126851265Y-122396597D01*
X126879280Y-122339285D01*
X126910401Y-122273880D01*
X126943201Y-122203507D01*
X126976250Y-122131291D01*
X127008119Y-122060355D01*
X127037381Y-121993825D01*
X127062605Y-121934826D01*
X127082364Y-121886481D01*
X127095228Y-121851915D01*
X127099769Y-121834253D01*
X127099723Y-121833613D01*
X127088674Y-121811388D01*
X127066590Y-121788753D01*
X127065290Y-121787768D01*
X127038147Y-121772425D01*
X127013042Y-121772574D01*
X127003632Y-121775466D01*
X126992166Y-121781718D01*
X126979990Y-121794014D01*
X126965643Y-121814908D01*
X126947664Y-121846949D01*
X126924593Y-121892688D01*
X126894970Y-121954677D01*
X126868255Y-122011898D01*
X126837520Y-122078226D01*
X126809979Y-122137874D01*
X126787062Y-122187725D01*
X126770202Y-122224664D01*
X126760827Y-122245573D01*
X126759460Y-122248845D01*
X126753311Y-122243497D01*
X126739178Y-122221109D01*
X126718943Y-122184946D01*
X126694485Y-122138277D01*
X126684752Y-122119022D01*
X126651783Y-122054004D01*
X126626357Y-122006654D01*
X126606388Y-121974219D01*
X126589790Y-121953946D01*
X126574476Y-121943082D01*
X126558360Y-121938875D01*
X126547857Y-121938400D01*
X126529330Y-121940042D01*
X126513096Y-121946831D01*
X126496965Y-121961566D01*
X126478749Y-121987044D01*
X126456261Y-122026061D01*
X126427311Y-122081414D01*
X126411338Y-122112903D01*
X126385430Y-122163087D01*
X126362833Y-122204704D01*
X126345542Y-122234242D01*
X126335550Y-122248189D01*
X126334191Y-122248770D01*
X126327739Y-122237793D01*
X126313292Y-122209290D01*
X126292297Y-122166244D01*
X126266203Y-122111638D01*
X126236454Y-122048454D01*
X126221820Y-122017071D01*
X126183750Y-121936078D01*
X126153095Y-121873756D01*
X126128263Y-121828071D01*
X126107663Y-121796989D01*
X126089702Y-121778478D01*
X126072790Y-121770504D01*
X126055335Y-121771034D01*
X126055335Y-121771034D01*
G37*
X126055335Y-121771034D02*
X126035745Y-121778035D01*
X126034990Y-121778377D01*
X126008387Y-121798678D01*
X125993730Y-121819561D01*
X125990862Y-121829352D01*
X125991004Y-121842361D01*
X125995039Y-121860895D01*
X126003854Y-121887257D01*
X126018331Y-121923752D01*
X126039355Y-121972687D01*
X126067812Y-122036365D01*
X126104585Y-122117093D01*
X126124825Y-122161216D01*
X126161375Y-122239985D01*
X126195685Y-122312423D01*
X126226448Y-122375880D01*
X126252352Y-122427708D01*
X126272090Y-122465259D01*
X126284350Y-122485884D01*
X126286776Y-122488733D01*
X126317817Y-122501302D01*
X126352879Y-122499619D01*
X126381000Y-122484332D01*
X126382146Y-122483089D01*
X126393332Y-122466154D01*
X126412096Y-122433170D01*
X126436125Y-122388380D01*
X126463103Y-122336032D01*
X126472799Y-122316742D01*
X126545986Y-122170150D01*
X126625760Y-122329393D01*
X126654233Y-122384415D01*
X126680650Y-122432132D01*
X126702852Y-122468893D01*
X126718681Y-122491044D01*
X126724046Y-122495741D01*
X126765743Y-122502102D01*
X126800151Y-122488733D01*
X126810272Y-122474446D01*
X126827786Y-122442692D01*
X126851265Y-122396597D01*
X126879280Y-122339285D01*
X126910401Y-122273880D01*
X126943201Y-122203507D01*
X126976250Y-122131291D01*
X127008119Y-122060355D01*
X127037381Y-121993825D01*
X127062605Y-121934826D01*
X127082364Y-121886481D01*
X127095228Y-121851915D01*
X127099769Y-121834253D01*
X127099723Y-121833613D01*
X127088674Y-121811388D01*
X127066590Y-121788753D01*
X127065290Y-121787768D01*
X127038147Y-121772425D01*
X127013042Y-121772574D01*
X127003632Y-121775466D01*
X126992166Y-121781718D01*
X126979990Y-121794014D01*
X126965643Y-121814908D01*
X126947664Y-121846949D01*
X126924593Y-121892688D01*
X126894970Y-121954677D01*
X126868255Y-122011898D01*
X126837520Y-122078226D01*
X126809979Y-122137874D01*
X126787062Y-122187725D01*
X126770202Y-122224664D01*
X126760827Y-122245573D01*
X126759460Y-122248845D01*
X126753311Y-122243497D01*
X126739178Y-122221109D01*
X126718943Y-122184946D01*
X126694485Y-122138277D01*
X126684752Y-122119022D01*
X126651783Y-122054004D01*
X126626357Y-122006654D01*
X126606388Y-121974219D01*
X126589790Y-121953946D01*
X126574476Y-121943082D01*
X126558360Y-121938875D01*
X126547857Y-121938400D01*
X126529330Y-121940042D01*
X126513096Y-121946831D01*
X126496965Y-121961566D01*
X126478749Y-121987044D01*
X126456261Y-122026061D01*
X126427311Y-122081414D01*
X126411338Y-122112903D01*
X126385430Y-122163087D01*
X126362833Y-122204704D01*
X126345542Y-122234242D01*
X126335550Y-122248189D01*
X126334191Y-122248770D01*
X126327739Y-122237793D01*
X126313292Y-122209290D01*
X126292297Y-122166244D01*
X126266203Y-122111638D01*
X126236454Y-122048454D01*
X126221820Y-122017071D01*
X126183750Y-121936078D01*
X126153095Y-121873756D01*
X126128263Y-121828071D01*
X126107663Y-121796989D01*
X126089702Y-121778478D01*
X126072790Y-121770504D01*
X126055335Y-121771034D01*
G36*
X128781691Y-121769275D02*
G01*
X128652712Y-121773636D01*
X128543009Y-121786861D01*
X128450774Y-121809741D01*
X128374198Y-121843070D01*
X128311473Y-121887638D01*
X128260788Y-121944236D01*
X128220337Y-122013658D01*
X128219541Y-122015351D01*
X128195399Y-122077483D01*
X128186797Y-122132509D01*
X128193769Y-122187887D01*
X128216346Y-122251073D01*
X128220628Y-122260689D01*
X128249828Y-122316966D01*
X128282644Y-122360451D01*
X128324998Y-122397417D01*
X128382810Y-122434135D01*
X128386169Y-122436052D01*
X128436496Y-122460227D01*
X128493379Y-122478282D01*
X128560473Y-122490839D01*
X128641435Y-122498522D01*
X128739918Y-122501953D01*
X128774714Y-122502251D01*
X128940406Y-122502845D01*
X128963803Y-122473100D01*
X128970743Y-122463319D01*
X128976158Y-122451897D01*
X128980235Y-122436095D01*
X128983163Y-122413175D01*
X128985133Y-122380396D01*
X128985775Y-122356089D01*
X128829156Y-122356089D01*
X128735274Y-122356089D01*
X128680336Y-122354483D01*
X128623940Y-122350255D01*
X128577655Y-122344292D01*
X128574861Y-122343790D01*
X128492652Y-122321736D01*
X128428886Y-122288600D01*
X128381548Y-122242847D01*
X128348618Y-122182939D01*
X128342892Y-122167061D01*
X128337279Y-122142333D01*
X128339709Y-122117902D01*
X128351533Y-122085400D01*
X128358660Y-122069434D01*
X128382000Y-122027006D01*
X128410120Y-121997240D01*
X128441060Y-121976511D01*
X128503034Y-121949537D01*
X128582349Y-121929998D01*
X128674747Y-121918746D01*
X128741667Y-121916270D01*
X128829156Y-121915822D01*
X128829156Y-122356089D01*
X128985775Y-122356089D01*
X128986332Y-122335021D01*
X128986950Y-122274311D01*
X128987175Y-122195526D01*
X128987200Y-122133920D01*
X128987200Y-121824485D01*
X128959491Y-121796776D01*
X128947194Y-121785544D01*
X128933897Y-121777853D01*
X128915328Y-121773040D01*
X128887214Y-121770446D01*
X128845283Y-121769410D01*
X128785263Y-121769270D01*
X128781691Y-121769275D01*
X128781691Y-121769275D01*
G37*
X128781691Y-121769275D02*
X128652712Y-121773636D01*
X128543009Y-121786861D01*
X128450774Y-121809741D01*
X128374198Y-121843070D01*
X128311473Y-121887638D01*
X128260788Y-121944236D01*
X128220337Y-122013658D01*
X128219541Y-122015351D01*
X128195399Y-122077483D01*
X128186797Y-122132509D01*
X128193769Y-122187887D01*
X128216346Y-122251073D01*
X128220628Y-122260689D01*
X128249828Y-122316966D01*
X128282644Y-122360451D01*
X128324998Y-122397417D01*
X128382810Y-122434135D01*
X128386169Y-122436052D01*
X128436496Y-122460227D01*
X128493379Y-122478282D01*
X128560473Y-122490839D01*
X128641435Y-122498522D01*
X128739918Y-122501953D01*
X128774714Y-122502251D01*
X128940406Y-122502845D01*
X128963803Y-122473100D01*
X128970743Y-122463319D01*
X128976158Y-122451897D01*
X128980235Y-122436095D01*
X128983163Y-122413175D01*
X128985133Y-122380396D01*
X128985775Y-122356089D01*
X128829156Y-122356089D01*
X128735274Y-122356089D01*
X128680336Y-122354483D01*
X128623940Y-122350255D01*
X128577655Y-122344292D01*
X128574861Y-122343790D01*
X128492652Y-122321736D01*
X128428886Y-122288600D01*
X128381548Y-122242847D01*
X128348618Y-122182939D01*
X128342892Y-122167061D01*
X128337279Y-122142333D01*
X128339709Y-122117902D01*
X128351533Y-122085400D01*
X128358660Y-122069434D01*
X128382000Y-122027006D01*
X128410120Y-121997240D01*
X128441060Y-121976511D01*
X128503034Y-121949537D01*
X128582349Y-121929998D01*
X128674747Y-121918746D01*
X128741667Y-121916270D01*
X128829156Y-121915822D01*
X128829156Y-122356089D01*
X128985775Y-122356089D01*
X128986332Y-122335021D01*
X128986950Y-122274311D01*
X128987175Y-122195526D01*
X128987200Y-122133920D01*
X128987200Y-121824485D01*
X128959491Y-121796776D01*
X128947194Y-121785544D01*
X128933897Y-121777853D01*
X128915328Y-121773040D01*
X128887214Y-121770446D01*
X128845283Y-121769410D01*
X128785263Y-121769270D01*
X128781691Y-121769275D01*
G36*
X129569657Y-121769260D02*
G01*
X129493299Y-121770174D01*
X129434783Y-121772311D01*
X129391745Y-121776175D01*
X129361817Y-121782267D01*
X129342632Y-121791090D01*
X129331824Y-121803146D01*
X129327027Y-121818939D01*
X129325873Y-121838970D01*
X129325867Y-121841335D01*
X129326869Y-121863992D01*
X129331604Y-121881503D01*
X129342667Y-121894574D01*
X129362652Y-121903913D01*
X129394154Y-121910227D01*
X129439768Y-121914222D01*
X129502087Y-121916606D01*
X129583707Y-121918086D01*
X129608723Y-121918414D01*
X129850800Y-121921467D01*
X129854186Y-121986378D01*
X129857571Y-122051289D01*
X129689424Y-122051289D01*
X129623734Y-122051531D01*
X129576828Y-122052556D01*
X129544917Y-122054811D01*
X129524209Y-122058742D01*
X129510916Y-122064798D01*
X129501245Y-122073424D01*
X129501183Y-122073493D01*
X129483644Y-122107112D01*
X129484278Y-122143448D01*
X129502686Y-122174423D01*
X129506329Y-122177607D01*
X129519259Y-122185812D01*
X129536976Y-122191521D01*
X129563430Y-122195162D01*
X129602568Y-122197167D01*
X129658338Y-122197964D01*
X129694006Y-122198045D01*
X129856445Y-122198045D01*
X129856445Y-122356089D01*
X129609839Y-122356089D01*
X129528420Y-122356231D01*
X129466590Y-122356814D01*
X129421363Y-122358068D01*
X129389752Y-122360227D01*
X129368769Y-122363523D01*
X129355427Y-122368189D01*
X129346739Y-122374457D01*
X129344550Y-122376733D01*
X129328386Y-122408280D01*
X129327203Y-122444168D01*
X129340464Y-122475285D01*
X129350957Y-122485271D01*
X129361871Y-122490769D01*
X129378783Y-122495022D01*
X129404367Y-122498180D01*
X129441299Y-122500392D01*
X129492254Y-122501806D01*
X129559906Y-122502572D01*
X129646931Y-122502838D01*
X129666606Y-122502845D01*
X129755089Y-122502787D01*
X129823773Y-122502467D01*
X129875436Y-122501667D01*
X129912855Y-122500167D01*
X129938810Y-122497749D01*
X129956078Y-122494194D01*
X129967438Y-122489282D01*
X129975668Y-122482795D01*
X129980183Y-122478138D01*
X129986979Y-122469889D01*
X129992288Y-122459669D01*
X129996294Y-122444800D01*
X129999179Y-122422602D01*
X130001126Y-122390393D01*
X130002319Y-122345496D01*
X130002939Y-122285228D01*
X130003171Y-122206911D01*
X130003200Y-122140994D01*
X130003129Y-122048628D01*
X130002792Y-121976117D01*
X130002002Y-121920737D01*
X130000574Y-121879765D01*
X129998321Y-121850478D01*
X129995057Y-121830153D01*
X129990596Y-121816066D01*
X129984752Y-121805495D01*
X129979803Y-121798811D01*
X129956406Y-121769067D01*
X129666226Y-121769067D01*
X129569657Y-121769260D01*
X129569657Y-121769260D01*
G37*
X129569657Y-121769260D02*
X129493299Y-121770174D01*
X129434783Y-121772311D01*
X129391745Y-121776175D01*
X129361817Y-121782267D01*
X129342632Y-121791090D01*
X129331824Y-121803146D01*
X129327027Y-121818939D01*
X129325873Y-121838970D01*
X129325867Y-121841335D01*
X129326869Y-121863992D01*
X129331604Y-121881503D01*
X129342667Y-121894574D01*
X129362652Y-121903913D01*
X129394154Y-121910227D01*
X129439768Y-121914222D01*
X129502087Y-121916606D01*
X129583707Y-121918086D01*
X129608723Y-121918414D01*
X129850800Y-121921467D01*
X129854186Y-121986378D01*
X129857571Y-122051289D01*
X129689424Y-122051289D01*
X129623734Y-122051531D01*
X129576828Y-122052556D01*
X129544917Y-122054811D01*
X129524209Y-122058742D01*
X129510916Y-122064798D01*
X129501245Y-122073424D01*
X129501183Y-122073493D01*
X129483644Y-122107112D01*
X129484278Y-122143448D01*
X129502686Y-122174423D01*
X129506329Y-122177607D01*
X129519259Y-122185812D01*
X129536976Y-122191521D01*
X129563430Y-122195162D01*
X129602568Y-122197167D01*
X129658338Y-122197964D01*
X129694006Y-122198045D01*
X129856445Y-122198045D01*
X129856445Y-122356089D01*
X129609839Y-122356089D01*
X129528420Y-122356231D01*
X129466590Y-122356814D01*
X129421363Y-122358068D01*
X129389752Y-122360227D01*
X129368769Y-122363523D01*
X129355427Y-122368189D01*
X129346739Y-122374457D01*
X129344550Y-122376733D01*
X129328386Y-122408280D01*
X129327203Y-122444168D01*
X129340464Y-122475285D01*
X129350957Y-122485271D01*
X129361871Y-122490769D01*
X129378783Y-122495022D01*
X129404367Y-122498180D01*
X129441299Y-122500392D01*
X129492254Y-122501806D01*
X129559906Y-122502572D01*
X129646931Y-122502838D01*
X129666606Y-122502845D01*
X129755089Y-122502787D01*
X129823773Y-122502467D01*
X129875436Y-122501667D01*
X129912855Y-122500167D01*
X129938810Y-122497749D01*
X129956078Y-122494194D01*
X129967438Y-122489282D01*
X129975668Y-122482795D01*
X129980183Y-122478138D01*
X129986979Y-122469889D01*
X129992288Y-122459669D01*
X129996294Y-122444800D01*
X129999179Y-122422602D01*
X130001126Y-122390393D01*
X130002319Y-122345496D01*
X130002939Y-122285228D01*
X130003171Y-122206911D01*
X130003200Y-122140994D01*
X130003129Y-122048628D01*
X130002792Y-121976117D01*
X130002002Y-121920737D01*
X130000574Y-121879765D01*
X129998321Y-121850478D01*
X129995057Y-121830153D01*
X129990596Y-121816066D01*
X129984752Y-121805495D01*
X129979803Y-121798811D01*
X129956406Y-121769067D01*
X129666226Y-121769067D01*
X129569657Y-121769260D01*
G36*
X131100114Y-121773448D02*
G01*
X131076548Y-121787273D01*
X131045735Y-121809881D01*
X131006078Y-121842338D01*
X130955980Y-121885708D01*
X130893843Y-121941058D01*
X130818072Y-122009451D01*
X130731334Y-122088084D01*
X130550711Y-122251878D01*
X130545067Y-122032029D01*
X130543029Y-121956351D01*
X130541063Y-121899994D01*
X130538734Y-121859706D01*
X130535606Y-121832235D01*
X130531245Y-121814329D01*
X130525216Y-121802737D01*
X130517084Y-121794208D01*
X130512772Y-121790623D01*
X130478241Y-121771670D01*
X130445383Y-121774441D01*
X130419318Y-121790633D01*
X130392667Y-121812199D01*
X130389352Y-122127151D01*
X130388435Y-122219779D01*
X130387968Y-122292544D01*
X130388113Y-122348161D01*
X130389032Y-122389342D01*
X130390887Y-122418803D01*
X130393839Y-122439255D01*
X130398050Y-122453413D01*
X130403682Y-122463991D01*
X130409927Y-122472474D01*
X130423439Y-122488207D01*
X130436883Y-122498636D01*
X130452124Y-122502639D01*
X130471026Y-122499094D01*
X130495455Y-122486879D01*
X130527273Y-122464871D01*
X130568348Y-122431949D01*
X130620542Y-122386991D01*
X130685722Y-122328875D01*
X130759556Y-122262099D01*
X131024845Y-122021458D01*
X131030489Y-122240589D01*
X131032531Y-122316128D01*
X131034502Y-122372354D01*
X131036839Y-122412524D01*
X131039981Y-122439896D01*
X131044364Y-122457728D01*
X131050424Y-122469279D01*
X131058600Y-122477807D01*
X131062784Y-122481282D01*
X131099765Y-122500372D01*
X131134708Y-122497493D01*
X131165136Y-122473100D01*
X131172097Y-122463286D01*
X131177523Y-122451826D01*
X131181603Y-122435968D01*
X131184529Y-122412963D01*
X131186492Y-122380062D01*
X131187683Y-122334516D01*
X131188292Y-122273573D01*
X131188511Y-122194486D01*
X131188534Y-122135956D01*
X131188460Y-122044407D01*
X131188113Y-121972687D01*
X131187301Y-121918045D01*
X131185833Y-121877732D01*
X131183519Y-121848998D01*
X131180167Y-121829093D01*
X131175588Y-121815268D01*
X131169589Y-121804772D01*
X131165136Y-121798811D01*
X131153850Y-121784691D01*
X131143301Y-121774029D01*
X131131893Y-121767892D01*
X131118030Y-121767343D01*
X131100114Y-121773448D01*
X131100114Y-121773448D01*
G37*
X131100114Y-121773448D02*
X131076548Y-121787273D01*
X131045735Y-121809881D01*
X131006078Y-121842338D01*
X130955980Y-121885708D01*
X130893843Y-121941058D01*
X130818072Y-122009451D01*
X130731334Y-122088084D01*
X130550711Y-122251878D01*
X130545067Y-122032029D01*
X130543029Y-121956351D01*
X130541063Y-121899994D01*
X130538734Y-121859706D01*
X130535606Y-121832235D01*
X130531245Y-121814329D01*
X130525216Y-121802737D01*
X130517084Y-121794208D01*
X130512772Y-121790623D01*
X130478241Y-121771670D01*
X130445383Y-121774441D01*
X130419318Y-121790633D01*
X130392667Y-121812199D01*
X130389352Y-122127151D01*
X130388435Y-122219779D01*
X130387968Y-122292544D01*
X130388113Y-122348161D01*
X130389032Y-122389342D01*
X130390887Y-122418803D01*
X130393839Y-122439255D01*
X130398050Y-122453413D01*
X130403682Y-122463991D01*
X130409927Y-122472474D01*
X130423439Y-122488207D01*
X130436883Y-122498636D01*
X130452124Y-122502639D01*
X130471026Y-122499094D01*
X130495455Y-122486879D01*
X130527273Y-122464871D01*
X130568348Y-122431949D01*
X130620542Y-122386991D01*
X130685722Y-122328875D01*
X130759556Y-122262099D01*
X131024845Y-122021458D01*
X131030489Y-122240589D01*
X131032531Y-122316128D01*
X131034502Y-122372354D01*
X131036839Y-122412524D01*
X131039981Y-122439896D01*
X131044364Y-122457728D01*
X131050424Y-122469279D01*
X131058600Y-122477807D01*
X131062784Y-122481282D01*
X131099765Y-122500372D01*
X131134708Y-122497493D01*
X131165136Y-122473100D01*
X131172097Y-122463286D01*
X131177523Y-122451826D01*
X131181603Y-122435968D01*
X131184529Y-122412963D01*
X131186492Y-122380062D01*
X131187683Y-122334516D01*
X131188292Y-122273573D01*
X131188511Y-122194486D01*
X131188534Y-122135956D01*
X131188460Y-122044407D01*
X131188113Y-121972687D01*
X131187301Y-121918045D01*
X131185833Y-121877732D01*
X131183519Y-121848998D01*
X131180167Y-121829093D01*
X131175588Y-121815268D01*
X131169589Y-121804772D01*
X131165136Y-121798811D01*
X131153850Y-121784691D01*
X131143301Y-121774029D01*
X131131893Y-121767892D01*
X131118030Y-121767343D01*
X131100114Y-121773448D01*
G36*
X131750081Y-121774599D02*
G01*
X131681565Y-121786095D01*
X131628943Y-121803967D01*
X131594708Y-121827499D01*
X131585379Y-121840924D01*
X131575893Y-121872148D01*
X131582277Y-121900395D01*
X131602430Y-121927182D01*
X131633745Y-121939713D01*
X131679183Y-121938696D01*
X131714326Y-121931906D01*
X131792419Y-121918971D01*
X131872226Y-121917742D01*
X131961555Y-121928241D01*
X131986229Y-121932690D01*
X132069291Y-121956108D01*
X132134273Y-121990945D01*
X132180461Y-122036604D01*
X132207145Y-122092494D01*
X132212663Y-122121388D01*
X132209051Y-122180012D01*
X132185729Y-122231879D01*
X132144824Y-122275978D01*
X132088459Y-122311299D01*
X132018760Y-122336829D01*
X131937852Y-122351559D01*
X131847860Y-122354478D01*
X131750910Y-122344575D01*
X131745436Y-122343641D01*
X131706875Y-122336459D01*
X131685494Y-122329521D01*
X131676227Y-122319227D01*
X131674006Y-122301976D01*
X131673956Y-122292841D01*
X131673956Y-122254489D01*
X131742431Y-122254489D01*
X131802900Y-122250347D01*
X131844165Y-122237147D01*
X131868175Y-122213730D01*
X131876877Y-122178936D01*
X131876983Y-122174394D01*
X131871892Y-122144654D01*
X131854433Y-122123419D01*
X131821939Y-122109366D01*
X131771743Y-122101173D01*
X131723123Y-122098161D01*
X131652456Y-122096433D01*
X131601198Y-122099070D01*
X131566239Y-122108800D01*
X131544470Y-122128353D01*
X131532780Y-122160456D01*
X131528060Y-122207838D01*
X131527200Y-122270071D01*
X131528609Y-122339535D01*
X131532848Y-122386786D01*
X131539936Y-122412012D01*
X131541311Y-122413988D01*
X131580228Y-122445508D01*
X131637286Y-122470470D01*
X131708869Y-122488340D01*
X131791358Y-122498586D01*
X131881139Y-122500673D01*
X131974592Y-122494068D01*
X132029556Y-122485956D01*
X132115766Y-122461554D01*
X132195892Y-122421662D01*
X132262977Y-122369887D01*
X132273173Y-122359539D01*
X132306302Y-122316035D01*
X132336194Y-122262118D01*
X132359357Y-122205592D01*
X132372298Y-122154259D01*
X132373858Y-122134544D01*
X132367218Y-122093419D01*
X132349568Y-122042252D01*
X132324297Y-121988394D01*
X132294789Y-121939195D01*
X132268719Y-121906334D01*
X132207765Y-121857452D01*
X132128969Y-121818545D01*
X132035157Y-121790494D01*
X131929150Y-121774179D01*
X131832000Y-121770192D01*
X131750081Y-121774599D01*
X131750081Y-121774599D01*
G37*
X131750081Y-121774599D02*
X131681565Y-121786095D01*
X131628943Y-121803967D01*
X131594708Y-121827499D01*
X131585379Y-121840924D01*
X131575893Y-121872148D01*
X131582277Y-121900395D01*
X131602430Y-121927182D01*
X131633745Y-121939713D01*
X131679183Y-121938696D01*
X131714326Y-121931906D01*
X131792419Y-121918971D01*
X131872226Y-121917742D01*
X131961555Y-121928241D01*
X131986229Y-121932690D01*
X132069291Y-121956108D01*
X132134273Y-121990945D01*
X132180461Y-122036604D01*
X132207145Y-122092494D01*
X132212663Y-122121388D01*
X132209051Y-122180012D01*
X132185729Y-122231879D01*
X132144824Y-122275978D01*
X132088459Y-122311299D01*
X132018760Y-122336829D01*
X131937852Y-122351559D01*
X131847860Y-122354478D01*
X131750910Y-122344575D01*
X131745436Y-122343641D01*
X131706875Y-122336459D01*
X131685494Y-122329521D01*
X131676227Y-122319227D01*
X131674006Y-122301976D01*
X131673956Y-122292841D01*
X131673956Y-122254489D01*
X131742431Y-122254489D01*
X131802900Y-122250347D01*
X131844165Y-122237147D01*
X131868175Y-122213730D01*
X131876877Y-122178936D01*
X131876983Y-122174394D01*
X131871892Y-122144654D01*
X131854433Y-122123419D01*
X131821939Y-122109366D01*
X131771743Y-122101173D01*
X131723123Y-122098161D01*
X131652456Y-122096433D01*
X131601198Y-122099070D01*
X131566239Y-122108800D01*
X131544470Y-122128353D01*
X131532780Y-122160456D01*
X131528060Y-122207838D01*
X131527200Y-122270071D01*
X131528609Y-122339535D01*
X131532848Y-122386786D01*
X131539936Y-122412012D01*
X131541311Y-122413988D01*
X131580228Y-122445508D01*
X131637286Y-122470470D01*
X131708869Y-122488340D01*
X131791358Y-122498586D01*
X131881139Y-122500673D01*
X131974592Y-122494068D01*
X132029556Y-122485956D01*
X132115766Y-122461554D01*
X132195892Y-122421662D01*
X132262977Y-122369887D01*
X132273173Y-122359539D01*
X132306302Y-122316035D01*
X132336194Y-122262118D01*
X132359357Y-122205592D01*
X132372298Y-122154259D01*
X132373858Y-122134544D01*
X132367218Y-122093419D01*
X132349568Y-122042252D01*
X132324297Y-121988394D01*
X132294789Y-121939195D01*
X132268719Y-121906334D01*
X132207765Y-121857452D01*
X132128969Y-121818545D01*
X132035157Y-121790494D01*
X131929150Y-121774179D01*
X131832000Y-121770192D01*
X131750081Y-121774599D01*
G36*
X132723822Y-121791645D02*
G01*
X132717242Y-121799218D01*
X132712079Y-121808987D01*
X132708164Y-121823571D01*
X132705324Y-121845585D01*
X132703387Y-121877648D01*
X132702183Y-121922375D01*
X132701539Y-121982385D01*
X132701284Y-122060294D01*
X132701245Y-122135956D01*
X132701314Y-122229802D01*
X132701638Y-122303689D01*
X132702386Y-122360232D01*
X132703732Y-122402049D01*
X132705846Y-122431757D01*
X132708900Y-122451973D01*
X132713066Y-122465314D01*
X132718516Y-122474398D01*
X132723822Y-122480267D01*
X132756826Y-122499947D01*
X132791991Y-122498181D01*
X132823455Y-122476717D01*
X132830684Y-122468337D01*
X132836334Y-122458614D01*
X132840599Y-122444861D01*
X132843673Y-122424389D01*
X132845752Y-122394512D01*
X132847030Y-122352541D01*
X132847701Y-122295789D01*
X132847959Y-122221567D01*
X132848000Y-122137537D01*
X132848000Y-121824485D01*
X132820291Y-121796776D01*
X132786137Y-121773463D01*
X132753006Y-121772623D01*
X132723822Y-121791645D01*
X132723822Y-121791645D01*
G37*
X132723822Y-121791645D02*
X132717242Y-121799218D01*
X132712079Y-121808987D01*
X132708164Y-121823571D01*
X132705324Y-121845585D01*
X132703387Y-121877648D01*
X132702183Y-121922375D01*
X132701539Y-121982385D01*
X132701284Y-122060294D01*
X132701245Y-122135956D01*
X132701314Y-122229802D01*
X132701638Y-122303689D01*
X132702386Y-122360232D01*
X132703732Y-122402049D01*
X132705846Y-122431757D01*
X132708900Y-122451973D01*
X132713066Y-122465314D01*
X132718516Y-122474398D01*
X132723822Y-122480267D01*
X132756826Y-122499947D01*
X132791991Y-122498181D01*
X132823455Y-122476717D01*
X132830684Y-122468337D01*
X132836334Y-122458614D01*
X132840599Y-122444861D01*
X132843673Y-122424389D01*
X132845752Y-122394512D01*
X132847030Y-122352541D01*
X132847701Y-122295789D01*
X132847959Y-122221567D01*
X132848000Y-122137537D01*
X132848000Y-121824485D01*
X132820291Y-121796776D01*
X132786137Y-121773463D01*
X132753006Y-121772623D01*
X132723822Y-121791645D01*
G36*
X133491703Y-121770351D02*
G01*
X133416888Y-121775581D01*
X133347306Y-121783750D01*
X133287002Y-121794550D01*
X133240020Y-121807673D01*
X133210406Y-121822813D01*
X133205860Y-121827269D01*
X133190054Y-121861850D01*
X133194847Y-121897351D01*
X133219364Y-121927725D01*
X133220534Y-121928596D01*
X133234954Y-121937954D01*
X133250008Y-121942876D01*
X133271005Y-121943473D01*
X133303257Y-121939861D01*
X133352073Y-121932154D01*
X133356000Y-121931505D01*
X133428739Y-121922569D01*
X133507217Y-121918161D01*
X133585927Y-121918119D01*
X133659361Y-121922279D01*
X133722011Y-121930479D01*
X133768370Y-121942557D01*
X133771416Y-121943771D01*
X133805048Y-121962615D01*
X133816864Y-121981685D01*
X133807614Y-122000439D01*
X133778047Y-122018337D01*
X133728911Y-122034837D01*
X133660957Y-122049396D01*
X133615645Y-122056406D01*
X133521456Y-122069889D01*
X133446544Y-122082214D01*
X133387717Y-122094449D01*
X133341785Y-122107661D01*
X133305555Y-122122917D01*
X133275838Y-122141285D01*
X133249442Y-122163831D01*
X133228230Y-122185971D01*
X133203065Y-122216819D01*
X133190681Y-122243345D01*
X133186808Y-122276026D01*
X133186667Y-122287995D01*
X133189576Y-122327712D01*
X133201202Y-122357259D01*
X133221323Y-122383486D01*
X133262216Y-122423576D01*
X133307817Y-122454149D01*
X133361513Y-122476203D01*
X133426692Y-122490735D01*
X133506744Y-122498741D01*
X133605057Y-122501218D01*
X133621289Y-122501177D01*
X133686849Y-122499818D01*
X133751866Y-122496730D01*
X133809252Y-122492356D01*
X133851922Y-122487140D01*
X133855372Y-122486541D01*
X133897796Y-122476491D01*
X133933780Y-122463796D01*
X133954150Y-122452190D01*
X133973107Y-122421572D01*
X133974427Y-122385918D01*
X133958085Y-122354144D01*
X133954429Y-122350551D01*
X133939315Y-122339876D01*
X133920415Y-122335276D01*
X133891162Y-122336059D01*
X133855651Y-122340127D01*
X133815970Y-122343762D01*
X133760345Y-122346828D01*
X133695406Y-122349053D01*
X133627785Y-122350164D01*
X133610000Y-122350237D01*
X133542128Y-122349964D01*
X133492454Y-122348646D01*
X133456610Y-122345827D01*
X133430224Y-122341050D01*
X133408926Y-122333857D01*
X133396126Y-122327867D01*
X133368000Y-122311233D01*
X133350068Y-122296168D01*
X133347447Y-122291897D01*
X133352976Y-122274263D01*
X133379260Y-122257192D01*
X133424478Y-122241458D01*
X133486808Y-122227838D01*
X133505171Y-122224804D01*
X133601090Y-122209738D01*
X133677641Y-122197146D01*
X133737780Y-122186111D01*
X133784460Y-122175720D01*
X133820637Y-122165056D01*
X133849265Y-122153205D01*
X133873298Y-122139251D01*
X133895692Y-122122281D01*
X133919402Y-122101378D01*
X133927380Y-122094049D01*
X133955353Y-122066699D01*
X133970160Y-122045029D01*
X133975952Y-122020232D01*
X133976889Y-121988983D01*
X133966575Y-121927705D01*
X133935752Y-121875640D01*
X133884595Y-121832958D01*
X133813283Y-121799825D01*
X133762400Y-121784964D01*
X133707100Y-121775366D01*
X133640853Y-121769936D01*
X133567706Y-121768367D01*
X133491703Y-121770351D01*
X133491703Y-121770351D01*
G37*
X133491703Y-121770351D02*
X133416888Y-121775581D01*
X133347306Y-121783750D01*
X133287002Y-121794550D01*
X133240020Y-121807673D01*
X133210406Y-121822813D01*
X133205860Y-121827269D01*
X133190054Y-121861850D01*
X133194847Y-121897351D01*
X133219364Y-121927725D01*
X133220534Y-121928596D01*
X133234954Y-121937954D01*
X133250008Y-121942876D01*
X133271005Y-121943473D01*
X133303257Y-121939861D01*
X133352073Y-121932154D01*
X133356000Y-121931505D01*
X133428739Y-121922569D01*
X133507217Y-121918161D01*
X133585927Y-121918119D01*
X133659361Y-121922279D01*
X133722011Y-121930479D01*
X133768370Y-121942557D01*
X133771416Y-121943771D01*
X133805048Y-121962615D01*
X133816864Y-121981685D01*
X133807614Y-122000439D01*
X133778047Y-122018337D01*
X133728911Y-122034837D01*
X133660957Y-122049396D01*
X133615645Y-122056406D01*
X133521456Y-122069889D01*
X133446544Y-122082214D01*
X133387717Y-122094449D01*
X133341785Y-122107661D01*
X133305555Y-122122917D01*
X133275838Y-122141285D01*
X133249442Y-122163831D01*
X133228230Y-122185971D01*
X133203065Y-122216819D01*
X133190681Y-122243345D01*
X133186808Y-122276026D01*
X133186667Y-122287995D01*
X133189576Y-122327712D01*
X133201202Y-122357259D01*
X133221323Y-122383486D01*
X133262216Y-122423576D01*
X133307817Y-122454149D01*
X133361513Y-122476203D01*
X133426692Y-122490735D01*
X133506744Y-122498741D01*
X133605057Y-122501218D01*
X133621289Y-122501177D01*
X133686849Y-122499818D01*
X133751866Y-122496730D01*
X133809252Y-122492356D01*
X133851922Y-122487140D01*
X133855372Y-122486541D01*
X133897796Y-122476491D01*
X133933780Y-122463796D01*
X133954150Y-122452190D01*
X133973107Y-122421572D01*
X133974427Y-122385918D01*
X133958085Y-122354144D01*
X133954429Y-122350551D01*
X133939315Y-122339876D01*
X133920415Y-122335276D01*
X133891162Y-122336059D01*
X133855651Y-122340127D01*
X133815970Y-122343762D01*
X133760345Y-122346828D01*
X133695406Y-122349053D01*
X133627785Y-122350164D01*
X133610000Y-122350237D01*
X133542128Y-122349964D01*
X133492454Y-122348646D01*
X133456610Y-122345827D01*
X133430224Y-122341050D01*
X133408926Y-122333857D01*
X133396126Y-122327867D01*
X133368000Y-122311233D01*
X133350068Y-122296168D01*
X133347447Y-122291897D01*
X133352976Y-122274263D01*
X133379260Y-122257192D01*
X133424478Y-122241458D01*
X133486808Y-122227838D01*
X133505171Y-122224804D01*
X133601090Y-122209738D01*
X133677641Y-122197146D01*
X133737780Y-122186111D01*
X133784460Y-122175720D01*
X133820637Y-122165056D01*
X133849265Y-122153205D01*
X133873298Y-122139251D01*
X133895692Y-122122281D01*
X133919402Y-122101378D01*
X133927380Y-122094049D01*
X133955353Y-122066699D01*
X133970160Y-122045029D01*
X133975952Y-122020232D01*
X133976889Y-121988983D01*
X133966575Y-121927705D01*
X133935752Y-121875640D01*
X133884595Y-121832958D01*
X133813283Y-121799825D01*
X133762400Y-121784964D01*
X133707100Y-121775366D01*
X133640853Y-121769936D01*
X133567706Y-121768367D01*
X133491703Y-121770351D01*
G36*
X134512794Y-121769146D02*
G01*
X134443386Y-121769518D01*
X134390997Y-121770385D01*
X134352847Y-121771946D01*
X134326159Y-121774403D01*
X134308153Y-121777957D01*
X134296049Y-121782810D01*
X134287069Y-121789161D01*
X134283818Y-121792084D01*
X134264043Y-121823142D01*
X134260482Y-121858828D01*
X134273491Y-121890510D01*
X134279506Y-121896913D01*
X134289235Y-121903121D01*
X134304901Y-121907910D01*
X134329408Y-121911514D01*
X134365661Y-121914164D01*
X134416565Y-121916095D01*
X134485026Y-121917539D01*
X134547617Y-121918418D01*
X134795334Y-121921467D01*
X134798719Y-121986378D01*
X134802105Y-122051289D01*
X134633958Y-122051289D01*
X134560959Y-122051919D01*
X134507517Y-122054553D01*
X134470628Y-122060309D01*
X134447288Y-122070304D01*
X134434494Y-122085656D01*
X134429242Y-122107482D01*
X134428445Y-122127738D01*
X134430923Y-122152592D01*
X134440277Y-122170906D01*
X134459383Y-122183637D01*
X134491118Y-122191741D01*
X134538359Y-122196176D01*
X134603983Y-122197899D01*
X134639801Y-122198045D01*
X134800978Y-122198045D01*
X134800978Y-122356089D01*
X134552622Y-122356089D01*
X134471213Y-122356202D01*
X134409342Y-122356712D01*
X134363968Y-122357870D01*
X134332054Y-122359930D01*
X134310559Y-122363146D01*
X134296443Y-122367772D01*
X134286668Y-122374059D01*
X134281689Y-122378667D01*
X134264610Y-122405560D01*
X134259111Y-122429467D01*
X134266963Y-122458667D01*
X134281689Y-122480267D01*
X134289546Y-122487066D01*
X134299688Y-122492346D01*
X134314844Y-122496298D01*
X134337741Y-122499113D01*
X134371109Y-122500982D01*
X134417675Y-122502098D01*
X134480167Y-122502651D01*
X134561314Y-122502833D01*
X134603422Y-122502845D01*
X134693598Y-122502765D01*
X134763924Y-122502398D01*
X134817129Y-122501552D01*
X134855940Y-122500036D01*
X134883087Y-122497659D01*
X134901298Y-122494229D01*
X134913300Y-122489554D01*
X134921822Y-122483444D01*
X134925156Y-122480267D01*
X134931755Y-122472670D01*
X134936927Y-122462870D01*
X134940846Y-122448239D01*
X134943684Y-122426152D01*
X134945615Y-122393982D01*
X134946812Y-122349103D01*
X134947448Y-122288889D01*
X134947697Y-122210713D01*
X134947734Y-122137923D01*
X134947700Y-122044707D01*
X134947465Y-121971431D01*
X134946830Y-121915458D01*
X134945594Y-121874151D01*
X134943556Y-121844872D01*
X134940517Y-121824984D01*
X134936277Y-121811850D01*
X134930635Y-121802832D01*
X134923391Y-121795293D01*
X134921606Y-121793612D01*
X134912945Y-121786172D01*
X134902882Y-121780409D01*
X134888625Y-121776112D01*
X134867383Y-121773064D01*
X134836364Y-121771051D01*
X134792777Y-121769860D01*
X134733831Y-121769275D01*
X134656734Y-121769083D01*
X134602001Y-121769067D01*
X134512794Y-121769146D01*
X134512794Y-121769146D01*
G37*
X134512794Y-121769146D02*
X134443386Y-121769518D01*
X134390997Y-121770385D01*
X134352847Y-121771946D01*
X134326159Y-121774403D01*
X134308153Y-121777957D01*
X134296049Y-121782810D01*
X134287069Y-121789161D01*
X134283818Y-121792084D01*
X134264043Y-121823142D01*
X134260482Y-121858828D01*
X134273491Y-121890510D01*
X134279506Y-121896913D01*
X134289235Y-121903121D01*
X134304901Y-121907910D01*
X134329408Y-121911514D01*
X134365661Y-121914164D01*
X134416565Y-121916095D01*
X134485026Y-121917539D01*
X134547617Y-121918418D01*
X134795334Y-121921467D01*
X134798719Y-121986378D01*
X134802105Y-122051289D01*
X134633958Y-122051289D01*
X134560959Y-122051919D01*
X134507517Y-122054553D01*
X134470628Y-122060309D01*
X134447288Y-122070304D01*
X134434494Y-122085656D01*
X134429242Y-122107482D01*
X134428445Y-122127738D01*
X134430923Y-122152592D01*
X134440277Y-122170906D01*
X134459383Y-122183637D01*
X134491118Y-122191741D01*
X134538359Y-122196176D01*
X134603983Y-122197899D01*
X134639801Y-122198045D01*
X134800978Y-122198045D01*
X134800978Y-122356089D01*
X134552622Y-122356089D01*
X134471213Y-122356202D01*
X134409342Y-122356712D01*
X134363968Y-122357870D01*
X134332054Y-122359930D01*
X134310559Y-122363146D01*
X134296443Y-122367772D01*
X134286668Y-122374059D01*
X134281689Y-122378667D01*
X134264610Y-122405560D01*
X134259111Y-122429467D01*
X134266963Y-122458667D01*
X134281689Y-122480267D01*
X134289546Y-122487066D01*
X134299688Y-122492346D01*
X134314844Y-122496298D01*
X134337741Y-122499113D01*
X134371109Y-122500982D01*
X134417675Y-122502098D01*
X134480167Y-122502651D01*
X134561314Y-122502833D01*
X134603422Y-122502845D01*
X134693598Y-122502765D01*
X134763924Y-122502398D01*
X134817129Y-122501552D01*
X134855940Y-122500036D01*
X134883087Y-122497659D01*
X134901298Y-122494229D01*
X134913300Y-122489554D01*
X134921822Y-122483444D01*
X134925156Y-122480267D01*
X134931755Y-122472670D01*
X134936927Y-122462870D01*
X134940846Y-122448239D01*
X134943684Y-122426152D01*
X134945615Y-122393982D01*
X134946812Y-122349103D01*
X134947448Y-122288889D01*
X134947697Y-122210713D01*
X134947734Y-122137923D01*
X134947700Y-122044707D01*
X134947465Y-121971431D01*
X134946830Y-121915458D01*
X134945594Y-121874151D01*
X134943556Y-121844872D01*
X134940517Y-121824984D01*
X134936277Y-121811850D01*
X134930635Y-121802832D01*
X134923391Y-121795293D01*
X134921606Y-121793612D01*
X134912945Y-121786172D01*
X134902882Y-121780409D01*
X134888625Y-121776112D01*
X134867383Y-121773064D01*
X134836364Y-121771051D01*
X134792777Y-121769860D01*
X134733831Y-121769275D01*
X134656734Y-121769083D01*
X134602001Y-121769067D01*
X134512794Y-121769146D01*
G36*
X135921371Y-121769066D02*
G01*
X135881889Y-121769467D01*
X135766200Y-121772259D01*
X135669311Y-121780550D01*
X135587919Y-121795232D01*
X135518723Y-121817193D01*
X135458420Y-121847322D01*
X135403708Y-121886510D01*
X135384167Y-121903532D01*
X135351750Y-121943363D01*
X135322520Y-121997413D01*
X135299991Y-122057323D01*
X135287679Y-122114739D01*
X135286400Y-122135956D01*
X135294417Y-122194769D01*
X135315899Y-122259013D01*
X135346999Y-122319821D01*
X135383866Y-122368330D01*
X135389854Y-122374182D01*
X135440579Y-122415321D01*
X135496125Y-122447435D01*
X135559696Y-122471365D01*
X135634494Y-122487953D01*
X135723722Y-122498041D01*
X135830582Y-122502469D01*
X135879528Y-122502845D01*
X135941762Y-122502545D01*
X135985528Y-122501292D01*
X136014931Y-122498554D01*
X136034079Y-122493801D01*
X136047077Y-122486501D01*
X136054045Y-122480267D01*
X136060626Y-122472694D01*
X136065788Y-122462924D01*
X136069703Y-122448340D01*
X136072543Y-122426326D01*
X136074480Y-122394264D01*
X136075684Y-122349536D01*
X136076328Y-122289526D01*
X136076583Y-122211617D01*
X136076622Y-122135956D01*
X136076870Y-122035041D01*
X136076817Y-121954427D01*
X136075857Y-121915822D01*
X135929867Y-121915822D01*
X135929867Y-122356089D01*
X135836734Y-122356004D01*
X135780693Y-122354396D01*
X135721999Y-122350256D01*
X135673028Y-122344464D01*
X135671538Y-122344226D01*
X135592392Y-122325090D01*
X135531002Y-122295287D01*
X135484305Y-122252878D01*
X135454635Y-122206961D01*
X135436353Y-122156026D01*
X135437771Y-122108200D01*
X135458988Y-122056933D01*
X135500489Y-122003899D01*
X135557998Y-121964600D01*
X135632750Y-121938331D01*
X135682708Y-121929035D01*
X135739416Y-121922507D01*
X135799519Y-121917782D01*
X135850639Y-121915817D01*
X135853667Y-121915808D01*
X135929867Y-121915822D01*
X136075857Y-121915822D01*
X136075260Y-121891851D01*
X136070998Y-121845055D01*
X136062830Y-121811778D01*
X136049556Y-121789759D01*
X136029974Y-121776739D01*
X136002883Y-121770457D01*
X135967082Y-121768653D01*
X135921371Y-121769066D01*
X135921371Y-121769066D01*
G37*
X135921371Y-121769066D02*
X135881889Y-121769467D01*
X135766200Y-121772259D01*
X135669311Y-121780550D01*
X135587919Y-121795232D01*
X135518723Y-121817193D01*
X135458420Y-121847322D01*
X135403708Y-121886510D01*
X135384167Y-121903532D01*
X135351750Y-121943363D01*
X135322520Y-121997413D01*
X135299991Y-122057323D01*
X135287679Y-122114739D01*
X135286400Y-122135956D01*
X135294417Y-122194769D01*
X135315899Y-122259013D01*
X135346999Y-122319821D01*
X135383866Y-122368330D01*
X135389854Y-122374182D01*
X135440579Y-122415321D01*
X135496125Y-122447435D01*
X135559696Y-122471365D01*
X135634494Y-122487953D01*
X135723722Y-122498041D01*
X135830582Y-122502469D01*
X135879528Y-122502845D01*
X135941762Y-122502545D01*
X135985528Y-122501292D01*
X136014931Y-122498554D01*
X136034079Y-122493801D01*
X136047077Y-122486501D01*
X136054045Y-122480267D01*
X136060626Y-122472694D01*
X136065788Y-122462924D01*
X136069703Y-122448340D01*
X136072543Y-122426326D01*
X136074480Y-122394264D01*
X136075684Y-122349536D01*
X136076328Y-122289526D01*
X136076583Y-122211617D01*
X136076622Y-122135956D01*
X136076870Y-122035041D01*
X136076817Y-121954427D01*
X136075857Y-121915822D01*
X135929867Y-121915822D01*
X135929867Y-122356089D01*
X135836734Y-122356004D01*
X135780693Y-122354396D01*
X135721999Y-122350256D01*
X135673028Y-122344464D01*
X135671538Y-122344226D01*
X135592392Y-122325090D01*
X135531002Y-122295287D01*
X135484305Y-122252878D01*
X135454635Y-122206961D01*
X135436353Y-122156026D01*
X135437771Y-122108200D01*
X135458988Y-122056933D01*
X135500489Y-122003899D01*
X135557998Y-121964600D01*
X135632750Y-121938331D01*
X135682708Y-121929035D01*
X135739416Y-121922507D01*
X135799519Y-121917782D01*
X135850639Y-121915817D01*
X135853667Y-121915808D01*
X135929867Y-121915822D01*
X136075857Y-121915822D01*
X136075260Y-121891851D01*
X136070998Y-121845055D01*
X136062830Y-121811778D01*
X136049556Y-121789759D01*
X136029974Y-121776739D01*
X136002883Y-121770457D01*
X135967082Y-121768653D01*
X135921371Y-121769066D01*
G36*
X132073043Y-116526571D02*
G01*
X131976768Y-116550809D01*
X131890184Y-116593641D01*
X131815373Y-116653419D01*
X131754418Y-116728494D01*
X131709399Y-116817220D01*
X131683136Y-116913530D01*
X131677286Y-117010795D01*
X131692140Y-117104654D01*
X131725840Y-117192511D01*
X131776528Y-117271770D01*
X131842345Y-117339836D01*
X131921434Y-117394112D01*
X132011934Y-117432002D01*
X132063200Y-117444426D01*
X132107698Y-117451947D01*
X132141999Y-117454919D01*
X132174960Y-117453094D01*
X132215434Y-117446225D01*
X132248531Y-117439250D01*
X132341947Y-117407741D01*
X132425619Y-117356617D01*
X132497665Y-117287429D01*
X132556200Y-117201728D01*
X132570148Y-117174489D01*
X132586586Y-117138122D01*
X132596894Y-117107582D01*
X132602460Y-117075450D01*
X132604669Y-117034307D01*
X132604948Y-116988222D01*
X132600861Y-116903865D01*
X132587446Y-116834586D01*
X132562256Y-116773961D01*
X132522846Y-116715567D01*
X132484298Y-116671302D01*
X132412406Y-116605484D01*
X132337313Y-116560053D01*
X132254562Y-116532850D01*
X132176928Y-116522576D01*
X132073043Y-116526571D01*
X132073043Y-116526571D01*
G37*
X132073043Y-116526571D02*
X131976768Y-116550809D01*
X131890184Y-116593641D01*
X131815373Y-116653419D01*
X131754418Y-116728494D01*
X131709399Y-116817220D01*
X131683136Y-116913530D01*
X131677286Y-117010795D01*
X131692140Y-117104654D01*
X131725840Y-117192511D01*
X131776528Y-117271770D01*
X131842345Y-117339836D01*
X131921434Y-117394112D01*
X132011934Y-117432002D01*
X132063200Y-117444426D01*
X132107698Y-117451947D01*
X132141999Y-117454919D01*
X132174960Y-117453094D01*
X132215434Y-117446225D01*
X132248531Y-117439250D01*
X132341947Y-117407741D01*
X132425619Y-117356617D01*
X132497665Y-117287429D01*
X132556200Y-117201728D01*
X132570148Y-117174489D01*
X132586586Y-117138122D01*
X132596894Y-117107582D01*
X132602460Y-117075450D01*
X132604669Y-117034307D01*
X132604948Y-116988222D01*
X132600861Y-116903865D01*
X132587446Y-116834586D01*
X132562256Y-116773961D01*
X132522846Y-116715567D01*
X132484298Y-116671302D01*
X132412406Y-116605484D01*
X132337313Y-116560053D01*
X132254562Y-116532850D01*
X132176928Y-116522576D01*
X132073043Y-116526571D01*
G36*
X123613493Y-118972245D02*
G01*
X123613474Y-119206662D01*
X123613448Y-119419603D01*
X123613375Y-119612168D01*
X123613218Y-119785459D01*
X123612936Y-119940576D01*
X123612491Y-120078620D01*
X123611844Y-120200692D01*
X123610955Y-120307894D01*
X123609787Y-120401326D01*
X123608299Y-120482090D01*
X123606454Y-120551286D01*
X123604211Y-120610015D01*
X123601531Y-120659379D01*
X123598377Y-120700478D01*
X123594708Y-120734413D01*
X123590487Y-120762286D01*
X123585673Y-120785198D01*
X123580227Y-120804249D01*
X123574112Y-120820540D01*
X123567288Y-120835173D01*
X123559715Y-120849249D01*
X123551355Y-120863868D01*
X123546161Y-120872974D01*
X123511896Y-120933689D01*
X124370045Y-120933689D01*
X124370045Y-120837733D01*
X124370776Y-120794370D01*
X124372728Y-120761205D01*
X124375537Y-120743424D01*
X124376779Y-120741778D01*
X124388201Y-120748662D01*
X124410916Y-120766505D01*
X124433615Y-120785879D01*
X124488200Y-120826614D01*
X124557679Y-120867617D01*
X124634730Y-120905123D01*
X124712035Y-120935364D01*
X124742887Y-120945012D01*
X124811384Y-120959578D01*
X124894236Y-120969539D01*
X124983629Y-120974583D01*
X125071752Y-120974396D01*
X125150793Y-120968666D01*
X125188489Y-120962858D01*
X125326586Y-120924797D01*
X125453887Y-120867073D01*
X125569708Y-120790211D01*
X125673363Y-120694739D01*
X125764167Y-120581179D01*
X125830969Y-120470381D01*
X125885836Y-120353625D01*
X125927837Y-120234276D01*
X125957833Y-120108283D01*
X125976689Y-119971594D01*
X125985268Y-119820158D01*
X125985994Y-119742711D01*
X125983900Y-119685934D01*
X125154783Y-119685934D01*
X125154576Y-119779002D01*
X125151663Y-119866692D01*
X125146000Y-119943772D01*
X125137545Y-120005009D01*
X125134962Y-120017350D01*
X125103160Y-120124633D01*
X125061502Y-120211658D01*
X125009637Y-120278642D01*
X124947219Y-120325805D01*
X124873900Y-120353365D01*
X124789331Y-120361541D01*
X124693165Y-120350551D01*
X124629689Y-120334829D01*
X124580546Y-120316639D01*
X124526417Y-120290791D01*
X124485756Y-120267089D01*
X124415200Y-120220721D01*
X124415200Y-119070530D01*
X124482608Y-119026962D01*
X124561133Y-118986040D01*
X124645319Y-118959389D01*
X124730443Y-118947465D01*
X124811784Y-118950722D01*
X124884620Y-118969615D01*
X124916574Y-118985184D01*
X124974499Y-119028181D01*
X125023456Y-119084953D01*
X125064610Y-119157575D01*
X125099126Y-119248121D01*
X125128167Y-119358666D01*
X125129448Y-119364533D01*
X125139619Y-119426788D01*
X125147261Y-119504594D01*
X125152330Y-119592720D01*
X125154783Y-119685934D01*
X125983900Y-119685934D01*
X125978143Y-119529895D01*
X125956198Y-119334059D01*
X125920214Y-119155332D01*
X125870241Y-118993845D01*
X125806332Y-118849726D01*
X125728538Y-118723106D01*
X125636911Y-118614115D01*
X125531503Y-118522883D01*
X125486338Y-118491932D01*
X125385389Y-118435785D01*
X125282099Y-118396174D01*
X125172011Y-118372014D01*
X125050670Y-118362219D01*
X124958164Y-118363265D01*
X124828510Y-118374231D01*
X124715916Y-118396046D01*
X124617125Y-118429714D01*
X124528879Y-118476236D01*
X124480014Y-118510448D01*
X124450647Y-118532362D01*
X124428957Y-118547333D01*
X124420747Y-118551733D01*
X124419132Y-118540904D01*
X124417841Y-118510251D01*
X124416862Y-118462526D01*
X124416183Y-118400479D01*
X124415790Y-118326862D01*
X124415670Y-118244427D01*
X124415812Y-118155925D01*
X124416203Y-118064107D01*
X124416829Y-117971724D01*
X124417680Y-117881528D01*
X124418740Y-117796271D01*
X124419999Y-117718703D01*
X124421444Y-117651576D01*
X124423062Y-117597641D01*
X124424839Y-117559650D01*
X124425331Y-117552667D01*
X124432908Y-117482251D01*
X124444469Y-117427102D01*
X124462208Y-117379981D01*
X124488318Y-117333647D01*
X124494585Y-117324067D01*
X124519017Y-117287378D01*
X123613689Y-117287378D01*
X123613493Y-118972245D01*
X123613493Y-118972245D01*
G37*
X123613493Y-118972245D02*
X123613474Y-119206662D01*
X123613448Y-119419603D01*
X123613375Y-119612168D01*
X123613218Y-119785459D01*
X123612936Y-119940576D01*
X123612491Y-120078620D01*
X123611844Y-120200692D01*
X123610955Y-120307894D01*
X123609787Y-120401326D01*
X123608299Y-120482090D01*
X123606454Y-120551286D01*
X123604211Y-120610015D01*
X123601531Y-120659379D01*
X123598377Y-120700478D01*
X123594708Y-120734413D01*
X123590487Y-120762286D01*
X123585673Y-120785198D01*
X123580227Y-120804249D01*
X123574112Y-120820540D01*
X123567288Y-120835173D01*
X123559715Y-120849249D01*
X123551355Y-120863868D01*
X123546161Y-120872974D01*
X123511896Y-120933689D01*
X124370045Y-120933689D01*
X124370045Y-120837733D01*
X124370776Y-120794370D01*
X124372728Y-120761205D01*
X124375537Y-120743424D01*
X124376779Y-120741778D01*
X124388201Y-120748662D01*
X124410916Y-120766505D01*
X124433615Y-120785879D01*
X124488200Y-120826614D01*
X124557679Y-120867617D01*
X124634730Y-120905123D01*
X124712035Y-120935364D01*
X124742887Y-120945012D01*
X124811384Y-120959578D01*
X124894236Y-120969539D01*
X124983629Y-120974583D01*
X125071752Y-120974396D01*
X125150793Y-120968666D01*
X125188489Y-120962858D01*
X125326586Y-120924797D01*
X125453887Y-120867073D01*
X125569708Y-120790211D01*
X125673363Y-120694739D01*
X125764167Y-120581179D01*
X125830969Y-120470381D01*
X125885836Y-120353625D01*
X125927837Y-120234276D01*
X125957833Y-120108283D01*
X125976689Y-119971594D01*
X125985268Y-119820158D01*
X125985994Y-119742711D01*
X125983900Y-119685934D01*
X125154783Y-119685934D01*
X125154576Y-119779002D01*
X125151663Y-119866692D01*
X125146000Y-119943772D01*
X125137545Y-120005009D01*
X125134962Y-120017350D01*
X125103160Y-120124633D01*
X125061502Y-120211658D01*
X125009637Y-120278642D01*
X124947219Y-120325805D01*
X124873900Y-120353365D01*
X124789331Y-120361541D01*
X124693165Y-120350551D01*
X124629689Y-120334829D01*
X124580546Y-120316639D01*
X124526417Y-120290791D01*
X124485756Y-120267089D01*
X124415200Y-120220721D01*
X124415200Y-119070530D01*
X124482608Y-119026962D01*
X124561133Y-118986040D01*
X124645319Y-118959389D01*
X124730443Y-118947465D01*
X124811784Y-118950722D01*
X124884620Y-118969615D01*
X124916574Y-118985184D01*
X124974499Y-119028181D01*
X125023456Y-119084953D01*
X125064610Y-119157575D01*
X125099126Y-119248121D01*
X125128167Y-119358666D01*
X125129448Y-119364533D01*
X125139619Y-119426788D01*
X125147261Y-119504594D01*
X125152330Y-119592720D01*
X125154783Y-119685934D01*
X125983900Y-119685934D01*
X125978143Y-119529895D01*
X125956198Y-119334059D01*
X125920214Y-119155332D01*
X125870241Y-118993845D01*
X125806332Y-118849726D01*
X125728538Y-118723106D01*
X125636911Y-118614115D01*
X125531503Y-118522883D01*
X125486338Y-118491932D01*
X125385389Y-118435785D01*
X125282099Y-118396174D01*
X125172011Y-118372014D01*
X125050670Y-118362219D01*
X124958164Y-118363265D01*
X124828510Y-118374231D01*
X124715916Y-118396046D01*
X124617125Y-118429714D01*
X124528879Y-118476236D01*
X124480014Y-118510448D01*
X124450647Y-118532362D01*
X124428957Y-118547333D01*
X124420747Y-118551733D01*
X124419132Y-118540904D01*
X124417841Y-118510251D01*
X124416862Y-118462526D01*
X124416183Y-118400479D01*
X124415790Y-118326862D01*
X124415670Y-118244427D01*
X124415812Y-118155925D01*
X124416203Y-118064107D01*
X124416829Y-117971724D01*
X124417680Y-117881528D01*
X124418740Y-117796271D01*
X124419999Y-117718703D01*
X124421444Y-117651576D01*
X124423062Y-117597641D01*
X124424839Y-117559650D01*
X124425331Y-117552667D01*
X124432908Y-117482251D01*
X124444469Y-117427102D01*
X124462208Y-117379981D01*
X124488318Y-117333647D01*
X124494585Y-117324067D01*
X124519017Y-117287378D01*
X123613689Y-117287378D01*
X123613493Y-118972245D01*
G36*
X127126426Y-118366552D02*
G01*
X126974508Y-118386567D01*
X126839244Y-118420202D01*
X126719761Y-118467725D01*
X126615185Y-118529405D01*
X126537576Y-118592965D01*
X126468735Y-118667099D01*
X126414994Y-118746871D01*
X126372090Y-118839091D01*
X126356616Y-118882161D01*
X126343756Y-118921142D01*
X126332554Y-118957289D01*
X126322880Y-118992434D01*
X126314604Y-119028410D01*
X126307597Y-119067050D01*
X126301728Y-119110185D01*
X126296869Y-119159649D01*
X126292890Y-119217273D01*
X126289660Y-119284891D01*
X126287051Y-119364334D01*
X126284933Y-119457436D01*
X126283176Y-119566027D01*
X126281651Y-119691942D01*
X126280228Y-119837012D01*
X126278975Y-119979778D01*
X126277649Y-120135968D01*
X126276444Y-120271239D01*
X126275234Y-120387246D01*
X126273894Y-120485645D01*
X126272300Y-120568093D01*
X126270325Y-120636246D01*
X126267844Y-120691760D01*
X126264731Y-120736292D01*
X126260862Y-120771498D01*
X126256111Y-120799034D01*
X126250352Y-120820556D01*
X126243461Y-120837722D01*
X126235311Y-120852186D01*
X126225777Y-120865606D01*
X126214734Y-120879638D01*
X126210434Y-120885071D01*
X126194614Y-120907910D01*
X126187578Y-120923463D01*
X126187556Y-120923922D01*
X126198433Y-120926121D01*
X126229418Y-120928147D01*
X126278043Y-120929942D01*
X126341837Y-120931451D01*
X126418331Y-120932616D01*
X126505056Y-120933380D01*
X126599543Y-120933686D01*
X126610450Y-120933689D01*
X127033343Y-120933689D01*
X127036605Y-120837622D01*
X127039867Y-120741556D01*
X127101956Y-120792543D01*
X127199286Y-120860057D01*
X127309187Y-120914749D01*
X127395651Y-120944978D01*
X127464722Y-120959666D01*
X127548075Y-120969659D01*
X127637841Y-120974646D01*
X127726155Y-120974313D01*
X127805149Y-120968351D01*
X127841378Y-120962638D01*
X127981397Y-120924776D01*
X128107822Y-120869932D01*
X128219740Y-120798924D01*
X128316238Y-120712568D01*
X128396400Y-120611679D01*
X128459313Y-120497076D01*
X128503688Y-120370984D01*
X128516022Y-120314401D01*
X128523632Y-120252202D01*
X128527261Y-120177363D01*
X128527755Y-120143467D01*
X128527690Y-120140282D01*
X127767752Y-120140282D01*
X127758459Y-120215333D01*
X127730272Y-120279160D01*
X127681803Y-120334798D01*
X127676746Y-120339211D01*
X127628452Y-120374037D01*
X127576743Y-120396620D01*
X127516011Y-120408540D01*
X127440648Y-120411383D01*
X127422541Y-120410978D01*
X127368722Y-120408325D01*
X127328692Y-120402909D01*
X127293676Y-120392745D01*
X127254897Y-120375850D01*
X127244255Y-120370672D01*
X127183604Y-120334844D01*
X127136785Y-120292212D01*
X127124048Y-120276973D01*
X127079378Y-120220462D01*
X127079378Y-120024586D01*
X127079914Y-119945939D01*
X127081604Y-119887988D01*
X127084572Y-119848875D01*
X127088943Y-119826741D01*
X127093028Y-119820274D01*
X127108953Y-119817111D01*
X127142736Y-119814488D01*
X127189660Y-119812655D01*
X127245007Y-119811857D01*
X127253894Y-119811842D01*
X127374670Y-119817096D01*
X127477340Y-119833263D01*
X127563894Y-119860961D01*
X127636319Y-119900808D01*
X127691249Y-119947758D01*
X127735796Y-120005645D01*
X127760520Y-120068693D01*
X127767752Y-120140282D01*
X128527690Y-120140282D01*
X128525822Y-120049712D01*
X128517478Y-119970812D01*
X128501232Y-119899590D01*
X128475595Y-119828864D01*
X128451599Y-119776493D01*
X128392980Y-119681196D01*
X128314883Y-119593170D01*
X128219685Y-119514017D01*
X128109762Y-119445340D01*
X127987490Y-119388741D01*
X127855245Y-119345821D01*
X127790578Y-119330882D01*
X127654396Y-119308777D01*
X127505951Y-119294194D01*
X127354495Y-119287813D01*
X127227936Y-119289445D01*
X127066050Y-119296224D01*
X127073470Y-119237245D01*
X127092762Y-119138092D01*
X127123896Y-119057372D01*
X127167731Y-118994466D01*
X127225129Y-118948756D01*
X127296952Y-118919622D01*
X127384059Y-118906447D01*
X127487314Y-118908611D01*
X127525289Y-118912612D01*
X127666480Y-118937780D01*
X127803293Y-118978814D01*
X127897822Y-119016815D01*
X127942982Y-119036190D01*
X127981415Y-119051760D01*
X128007766Y-119061405D01*
X128015454Y-119063452D01*
X128025198Y-119054374D01*
X128041917Y-119025405D01*
X128065768Y-118976217D01*
X128096907Y-118906484D01*
X128135493Y-118815879D01*
X128142090Y-118800089D01*
X128172147Y-118727772D01*
X128199126Y-118662425D01*
X128221864Y-118606906D01*
X128239194Y-118564072D01*
X128249952Y-118536781D01*
X128253059Y-118527942D01*
X128243060Y-118523187D01*
X128216783Y-118517910D01*
X128188511Y-118514231D01*
X128158354Y-118509474D01*
X128110567Y-118500028D01*
X128049388Y-118486820D01*
X127979054Y-118470776D01*
X127903806Y-118452820D01*
X127875245Y-118445797D01*
X127770184Y-118420209D01*
X127682520Y-118400147D01*
X127607932Y-118384969D01*
X127542097Y-118374035D01*
X127480693Y-118366704D01*
X127419398Y-118362335D01*
X127353890Y-118360287D01*
X127295872Y-118359889D01*
X127126426Y-118366552D01*
X127126426Y-118366552D01*
G37*
X127126426Y-118366552D02*
X126974508Y-118386567D01*
X126839244Y-118420202D01*
X126719761Y-118467725D01*
X126615185Y-118529405D01*
X126537576Y-118592965D01*
X126468735Y-118667099D01*
X126414994Y-118746871D01*
X126372090Y-118839091D01*
X126356616Y-118882161D01*
X126343756Y-118921142D01*
X126332554Y-118957289D01*
X126322880Y-118992434D01*
X126314604Y-119028410D01*
X126307597Y-119067050D01*
X126301728Y-119110185D01*
X126296869Y-119159649D01*
X126292890Y-119217273D01*
X126289660Y-119284891D01*
X126287051Y-119364334D01*
X126284933Y-119457436D01*
X126283176Y-119566027D01*
X126281651Y-119691942D01*
X126280228Y-119837012D01*
X126278975Y-119979778D01*
X126277649Y-120135968D01*
X126276444Y-120271239D01*
X126275234Y-120387246D01*
X126273894Y-120485645D01*
X126272300Y-120568093D01*
X126270325Y-120636246D01*
X126267844Y-120691760D01*
X126264731Y-120736292D01*
X126260862Y-120771498D01*
X126256111Y-120799034D01*
X126250352Y-120820556D01*
X126243461Y-120837722D01*
X126235311Y-120852186D01*
X126225777Y-120865606D01*
X126214734Y-120879638D01*
X126210434Y-120885071D01*
X126194614Y-120907910D01*
X126187578Y-120923463D01*
X126187556Y-120923922D01*
X126198433Y-120926121D01*
X126229418Y-120928147D01*
X126278043Y-120929942D01*
X126341837Y-120931451D01*
X126418331Y-120932616D01*
X126505056Y-120933380D01*
X126599543Y-120933686D01*
X126610450Y-120933689D01*
X127033343Y-120933689D01*
X127036605Y-120837622D01*
X127039867Y-120741556D01*
X127101956Y-120792543D01*
X127199286Y-120860057D01*
X127309187Y-120914749D01*
X127395651Y-120944978D01*
X127464722Y-120959666D01*
X127548075Y-120969659D01*
X127637841Y-120974646D01*
X127726155Y-120974313D01*
X127805149Y-120968351D01*
X127841378Y-120962638D01*
X127981397Y-120924776D01*
X128107822Y-120869932D01*
X128219740Y-120798924D01*
X128316238Y-120712568D01*
X128396400Y-120611679D01*
X128459313Y-120497076D01*
X128503688Y-120370984D01*
X128516022Y-120314401D01*
X128523632Y-120252202D01*
X128527261Y-120177363D01*
X128527755Y-120143467D01*
X128527690Y-120140282D01*
X127767752Y-120140282D01*
X127758459Y-120215333D01*
X127730272Y-120279160D01*
X127681803Y-120334798D01*
X127676746Y-120339211D01*
X127628452Y-120374037D01*
X127576743Y-120396620D01*
X127516011Y-120408540D01*
X127440648Y-120411383D01*
X127422541Y-120410978D01*
X127368722Y-120408325D01*
X127328692Y-120402909D01*
X127293676Y-120392745D01*
X127254897Y-120375850D01*
X127244255Y-120370672D01*
X127183604Y-120334844D01*
X127136785Y-120292212D01*
X127124048Y-120276973D01*
X127079378Y-120220462D01*
X127079378Y-120024586D01*
X127079914Y-119945939D01*
X127081604Y-119887988D01*
X127084572Y-119848875D01*
X127088943Y-119826741D01*
X127093028Y-119820274D01*
X127108953Y-119817111D01*
X127142736Y-119814488D01*
X127189660Y-119812655D01*
X127245007Y-119811857D01*
X127253894Y-119811842D01*
X127374670Y-119817096D01*
X127477340Y-119833263D01*
X127563894Y-119860961D01*
X127636319Y-119900808D01*
X127691249Y-119947758D01*
X127735796Y-120005645D01*
X127760520Y-120068693D01*
X127767752Y-120140282D01*
X128527690Y-120140282D01*
X128525822Y-120049712D01*
X128517478Y-119970812D01*
X128501232Y-119899590D01*
X128475595Y-119828864D01*
X128451599Y-119776493D01*
X128392980Y-119681196D01*
X128314883Y-119593170D01*
X128219685Y-119514017D01*
X128109762Y-119445340D01*
X127987490Y-119388741D01*
X127855245Y-119345821D01*
X127790578Y-119330882D01*
X127654396Y-119308777D01*
X127505951Y-119294194D01*
X127354495Y-119287813D01*
X127227936Y-119289445D01*
X127066050Y-119296224D01*
X127073470Y-119237245D01*
X127092762Y-119138092D01*
X127123896Y-119057372D01*
X127167731Y-118994466D01*
X127225129Y-118948756D01*
X127296952Y-118919622D01*
X127384059Y-118906447D01*
X127487314Y-118908611D01*
X127525289Y-118912612D01*
X127666480Y-118937780D01*
X127803293Y-118978814D01*
X127897822Y-119016815D01*
X127942982Y-119036190D01*
X127981415Y-119051760D01*
X128007766Y-119061405D01*
X128015454Y-119063452D01*
X128025198Y-119054374D01*
X128041917Y-119025405D01*
X128065768Y-118976217D01*
X128096907Y-118906484D01*
X128135493Y-118815879D01*
X128142090Y-118800089D01*
X128172147Y-118727772D01*
X128199126Y-118662425D01*
X128221864Y-118606906D01*
X128239194Y-118564072D01*
X128249952Y-118536781D01*
X128253059Y-118527942D01*
X128243060Y-118523187D01*
X128216783Y-118517910D01*
X128188511Y-118514231D01*
X128158354Y-118509474D01*
X128110567Y-118500028D01*
X128049388Y-118486820D01*
X127979054Y-118470776D01*
X127903806Y-118452820D01*
X127875245Y-118445797D01*
X127770184Y-118420209D01*
X127682520Y-118400147D01*
X127607932Y-118384969D01*
X127542097Y-118374035D01*
X127480693Y-118366704D01*
X127419398Y-118362335D01*
X127353890Y-118360287D01*
X127295872Y-118359889D01*
X127126426Y-118366552D01*
G36*
X129471571Y-117449071D02*
G01*
X129311430Y-117470245D01*
X129147490Y-117510385D01*
X128977687Y-117569889D01*
X128799957Y-117649154D01*
X128788690Y-117654699D01*
X128730995Y-117682725D01*
X128679448Y-117706802D01*
X128637809Y-117725249D01*
X128609838Y-117736386D01*
X128600267Y-117738933D01*
X128581050Y-117743941D01*
X128576439Y-117748147D01*
X128581542Y-117758580D01*
X128597582Y-117784868D01*
X128622712Y-117824257D01*
X128655086Y-117873991D01*
X128692857Y-117931315D01*
X128734178Y-117993476D01*
X128777202Y-118057718D01*
X128820083Y-118121285D01*
X128860974Y-118181425D01*
X128898029Y-118235380D01*
X128929400Y-118280397D01*
X128953241Y-118313721D01*
X128967706Y-118332597D01*
X128969691Y-118334787D01*
X128979809Y-118330138D01*
X129002150Y-118312962D01*
X129032720Y-118286440D01*
X129048464Y-118271964D01*
X129144953Y-118196682D01*
X129251664Y-118141241D01*
X129367168Y-118106141D01*
X129490038Y-118091880D01*
X129559439Y-118093051D01*
X129680577Y-118110212D01*
X129789795Y-118146094D01*
X129887418Y-118200959D01*
X129973772Y-118275070D01*
X130049185Y-118368688D01*
X130113982Y-118482076D01*
X130151399Y-118568667D01*
X130195252Y-118704366D01*
X130227572Y-118851850D01*
X130248443Y-119007314D01*
X130257949Y-119166956D01*
X130256173Y-119326973D01*
X130243197Y-119483561D01*
X130219106Y-119632918D01*
X130183982Y-119771240D01*
X130137908Y-119894724D01*
X130121627Y-119928978D01*
X130053380Y-120043064D01*
X129972921Y-120139557D01*
X129881430Y-120217670D01*
X129780089Y-120276617D01*
X129670080Y-120315612D01*
X129552585Y-120333868D01*
X129511117Y-120335211D01*
X129389559Y-120324290D01*
X129269122Y-120291474D01*
X129151334Y-120237439D01*
X129037723Y-120162865D01*
X128946315Y-120084539D01*
X128899785Y-120040008D01*
X128718517Y-120337271D01*
X128673420Y-120411433D01*
X128632181Y-120479646D01*
X128596265Y-120539459D01*
X128567134Y-120588420D01*
X128546250Y-120624079D01*
X128535076Y-120643984D01*
X128533625Y-120647079D01*
X128541854Y-120656718D01*
X128567433Y-120673999D01*
X128607127Y-120697283D01*
X128657703Y-120724934D01*
X128715926Y-120755315D01*
X128778563Y-120786790D01*
X128842379Y-120817722D01*
X128904140Y-120846473D01*
X128960612Y-120871408D01*
X129008562Y-120890889D01*
X129032014Y-120899318D01*
X129165779Y-120937133D01*
X129303673Y-120962136D01*
X129451378Y-120975140D01*
X129578167Y-120977468D01*
X129646122Y-120976373D01*
X129711723Y-120974275D01*
X129769153Y-120971434D01*
X129812597Y-120968106D01*
X129826702Y-120966422D01*
X129965716Y-120937587D01*
X130107243Y-120892468D01*
X130244725Y-120833750D01*
X130371606Y-120764120D01*
X130449111Y-120711441D01*
X130576519Y-120603239D01*
X130694822Y-120476671D01*
X130801828Y-120334866D01*
X130895348Y-120180951D01*
X130973190Y-120018053D01*
X131017044Y-119900756D01*
X131067292Y-119717128D01*
X131100791Y-119522581D01*
X131117551Y-119321325D01*
X131117584Y-119117568D01*
X131100899Y-118915521D01*
X131067507Y-118719392D01*
X131017420Y-118533391D01*
X131013603Y-118521803D01*
X130950719Y-118359750D01*
X130873972Y-118211832D01*
X130780758Y-118073865D01*
X130668473Y-117941661D01*
X130624608Y-117896399D01*
X130488466Y-117772457D01*
X130348509Y-117669915D01*
X130202589Y-117587656D01*
X130048558Y-117524564D01*
X129884268Y-117479523D01*
X129788711Y-117462033D01*
X129629977Y-117446466D01*
X129471571Y-117449071D01*
X129471571Y-117449071D01*
G37*
X129471571Y-117449071D02*
X129311430Y-117470245D01*
X129147490Y-117510385D01*
X128977687Y-117569889D01*
X128799957Y-117649154D01*
X128788690Y-117654699D01*
X128730995Y-117682725D01*
X128679448Y-117706802D01*
X128637809Y-117725249D01*
X128609838Y-117736386D01*
X128600267Y-117738933D01*
X128581050Y-117743941D01*
X128576439Y-117748147D01*
X128581542Y-117758580D01*
X128597582Y-117784868D01*
X128622712Y-117824257D01*
X128655086Y-117873991D01*
X128692857Y-117931315D01*
X128734178Y-117993476D01*
X128777202Y-118057718D01*
X128820083Y-118121285D01*
X128860974Y-118181425D01*
X128898029Y-118235380D01*
X128929400Y-118280397D01*
X128953241Y-118313721D01*
X128967706Y-118332597D01*
X128969691Y-118334787D01*
X128979809Y-118330138D01*
X129002150Y-118312962D01*
X129032720Y-118286440D01*
X129048464Y-118271964D01*
X129144953Y-118196682D01*
X129251664Y-118141241D01*
X129367168Y-118106141D01*
X129490038Y-118091880D01*
X129559439Y-118093051D01*
X129680577Y-118110212D01*
X129789795Y-118146094D01*
X129887418Y-118200959D01*
X129973772Y-118275070D01*
X130049185Y-118368688D01*
X130113982Y-118482076D01*
X130151399Y-118568667D01*
X130195252Y-118704366D01*
X130227572Y-118851850D01*
X130248443Y-119007314D01*
X130257949Y-119166956D01*
X130256173Y-119326973D01*
X130243197Y-119483561D01*
X130219106Y-119632918D01*
X130183982Y-119771240D01*
X130137908Y-119894724D01*
X130121627Y-119928978D01*
X130053380Y-120043064D01*
X129972921Y-120139557D01*
X129881430Y-120217670D01*
X129780089Y-120276617D01*
X129670080Y-120315612D01*
X129552585Y-120333868D01*
X129511117Y-120335211D01*
X129389559Y-120324290D01*
X129269122Y-120291474D01*
X129151334Y-120237439D01*
X129037723Y-120162865D01*
X128946315Y-120084539D01*
X128899785Y-120040008D01*
X128718517Y-120337271D01*
X128673420Y-120411433D01*
X128632181Y-120479646D01*
X128596265Y-120539459D01*
X128567134Y-120588420D01*
X128546250Y-120624079D01*
X128535076Y-120643984D01*
X128533625Y-120647079D01*
X128541854Y-120656718D01*
X128567433Y-120673999D01*
X128607127Y-120697283D01*
X128657703Y-120724934D01*
X128715926Y-120755315D01*
X128778563Y-120786790D01*
X128842379Y-120817722D01*
X128904140Y-120846473D01*
X128960612Y-120871408D01*
X129008562Y-120890889D01*
X129032014Y-120899318D01*
X129165779Y-120937133D01*
X129303673Y-120962136D01*
X129451378Y-120975140D01*
X129578167Y-120977468D01*
X129646122Y-120976373D01*
X129711723Y-120974275D01*
X129769153Y-120971434D01*
X129812597Y-120968106D01*
X129826702Y-120966422D01*
X129965716Y-120937587D01*
X130107243Y-120892468D01*
X130244725Y-120833750D01*
X130371606Y-120764120D01*
X130449111Y-120711441D01*
X130576519Y-120603239D01*
X130694822Y-120476671D01*
X130801828Y-120334866D01*
X130895348Y-120180951D01*
X130973190Y-120018053D01*
X131017044Y-119900756D01*
X131067292Y-119717128D01*
X131100791Y-119522581D01*
X131117551Y-119321325D01*
X131117584Y-119117568D01*
X131100899Y-118915521D01*
X131067507Y-118719392D01*
X131017420Y-118533391D01*
X131013603Y-118521803D01*
X130950719Y-118359750D01*
X130873972Y-118211832D01*
X130780758Y-118073865D01*
X130668473Y-117941661D01*
X130624608Y-117896399D01*
X130488466Y-117772457D01*
X130348509Y-117669915D01*
X130202589Y-117587656D01*
X130048558Y-117524564D01*
X129884268Y-117479523D01*
X129788711Y-117462033D01*
X129629977Y-117446466D01*
X129471571Y-117449071D01*
G36*
X132746400Y-116989054D02*
G01*
X132735535Y-117102993D01*
X132703918Y-117210616D01*
X132653015Y-117309615D01*
X132584293Y-117397684D01*
X132499219Y-117472516D01*
X132402232Y-117530384D01*
X132295964Y-117570005D01*
X132188950Y-117588573D01*
X132083300Y-117587434D01*
X131981125Y-117567930D01*
X131884534Y-117531406D01*
X131795638Y-117479205D01*
X131716546Y-117412673D01*
X131649369Y-117333152D01*
X131596217Y-117241987D01*
X131559199Y-117140523D01*
X131540427Y-117030102D01*
X131538489Y-116980206D01*
X131538489Y-116892267D01*
X131486560Y-116892267D01*
X131450253Y-116895111D01*
X131423355Y-116906911D01*
X131396249Y-116930649D01*
X131357867Y-116969031D01*
X131357867Y-119160602D01*
X131357876Y-119422739D01*
X131357908Y-119663241D01*
X131357972Y-119883048D01*
X131358076Y-120083101D01*
X131358227Y-120264344D01*
X131358434Y-120427716D01*
X131358706Y-120574160D01*
X131359050Y-120704617D01*
X131359474Y-120820029D01*
X131359987Y-120921338D01*
X131360597Y-121009484D01*
X131361312Y-121085410D01*
X131362140Y-121150057D01*
X131363089Y-121204367D01*
X131364167Y-121249280D01*
X131365383Y-121285740D01*
X131366745Y-121314687D01*
X131368261Y-121337063D01*
X131369938Y-121353809D01*
X131371786Y-121365868D01*
X131373813Y-121374180D01*
X131376025Y-121379687D01*
X131377108Y-121381537D01*
X131381271Y-121388549D01*
X131384805Y-121394996D01*
X131388635Y-121400900D01*
X131393682Y-121406286D01*
X131400871Y-121411178D01*
X131411123Y-121415598D01*
X131425364Y-121419572D01*
X131444514Y-121423121D01*
X131469499Y-121426270D01*
X131501240Y-121429042D01*
X131540662Y-121431461D01*
X131588686Y-121433551D01*
X131646237Y-121435335D01*
X131714237Y-121436837D01*
X131793610Y-121438080D01*
X131885279Y-121439089D01*
X131990166Y-121439885D01*
X132109196Y-121440494D01*
X132243290Y-121440939D01*
X132393373Y-121441243D01*
X132560367Y-121441430D01*
X132745196Y-121441524D01*
X132948783Y-121441548D01*
X133172050Y-121441525D01*
X133415922Y-121441480D01*
X133681321Y-121441437D01*
X133719704Y-121441432D01*
X133986682Y-121441389D01*
X134232002Y-121441318D01*
X134456583Y-121441213D01*
X134661345Y-121441066D01*
X134847206Y-121440869D01*
X135015088Y-121440616D01*
X135165908Y-121440300D01*
X135300587Y-121439913D01*
X135420044Y-121439447D01*
X135525199Y-121438897D01*
X135616971Y-121438253D01*
X135696279Y-121437511D01*
X135764043Y-121436661D01*
X135821182Y-121435697D01*
X135868617Y-121434611D01*
X135907266Y-121433397D01*
X135938049Y-121432047D01*
X135961885Y-121430555D01*
X135979694Y-121428911D01*
X135992395Y-121427111D01*
X136000908Y-121425145D01*
X136005266Y-121423477D01*
X136013728Y-121419906D01*
X136021497Y-121417270D01*
X136028602Y-121414634D01*
X136035073Y-121411062D01*
X136040939Y-121405621D01*
X136046229Y-121397375D01*
X136050974Y-121385390D01*
X136055202Y-121368731D01*
X136058943Y-121346463D01*
X136062227Y-121317652D01*
X136065083Y-121281363D01*
X136067540Y-121236661D01*
X136069629Y-121182611D01*
X136071378Y-121118279D01*
X136072817Y-121042730D01*
X136073976Y-120955030D01*
X136074883Y-120854243D01*
X136075569Y-120739434D01*
X136076063Y-120609670D01*
X136076395Y-120464015D01*
X136076593Y-120301535D01*
X136076687Y-120121295D01*
X136076708Y-119922360D01*
X136076685Y-119703796D01*
X136076646Y-119464668D01*
X136076622Y-119204040D01*
X136076622Y-119161889D01*
X136076636Y-118898992D01*
X136076661Y-118657732D01*
X136076671Y-118437165D01*
X136076642Y-118236352D01*
X136076548Y-118054349D01*
X136076362Y-117890216D01*
X136076059Y-117743011D01*
X136075614Y-117611792D01*
X136075034Y-117501867D01*
X135772197Y-117501867D01*
X135732407Y-117559711D01*
X135721236Y-117575479D01*
X135711166Y-117589441D01*
X135702138Y-117602784D01*
X135694097Y-117616693D01*
X135686986Y-117632356D01*
X135680747Y-117650958D01*
X135675325Y-117673686D01*
X135670662Y-117701727D01*
X135666701Y-117736267D01*
X135663385Y-117778492D01*
X135660659Y-117829589D01*
X135658464Y-117890744D01*
X135656745Y-117963144D01*
X135655444Y-118047975D01*
X135654505Y-118146422D01*
X135653870Y-118259674D01*
X135653484Y-118388916D01*
X135653288Y-118535334D01*
X135653227Y-118700116D01*
X135653243Y-118884447D01*
X135653280Y-119089513D01*
X135653289Y-119212133D01*
X135653265Y-119429082D01*
X135653231Y-119624642D01*
X135653243Y-119799999D01*
X135653358Y-119956341D01*
X135653630Y-120094857D01*
X135654118Y-120216734D01*
X135654876Y-120323160D01*
X135655962Y-120415322D01*
X135657431Y-120494409D01*
X135659340Y-120561608D01*
X135661744Y-120618107D01*
X135664701Y-120665093D01*
X135668266Y-120703755D01*
X135672495Y-120735280D01*
X135677446Y-120760855D01*
X135683173Y-120781670D01*
X135689733Y-120798911D01*
X135697183Y-120813765D01*
X135705579Y-120827422D01*
X135714976Y-120841069D01*
X135725432Y-120855893D01*
X135731523Y-120864783D01*
X135770296Y-120922400D01*
X135238732Y-120922400D01*
X135115483Y-120922365D01*
X135012987Y-120922215D01*
X134929420Y-120921878D01*
X134862956Y-120921286D01*
X134811771Y-120920367D01*
X134774041Y-120919051D01*
X134747940Y-120917269D01*
X134731644Y-120914951D01*
X134723328Y-120912026D01*
X134721168Y-120908424D01*
X134723339Y-120904075D01*
X134724535Y-120902645D01*
X134749685Y-120865573D01*
X134775583Y-120812772D01*
X134799192Y-120750770D01*
X134807461Y-120724357D01*
X134812078Y-120706416D01*
X134815979Y-120685355D01*
X134819248Y-120659089D01*
X134821966Y-120625532D01*
X134824215Y-120582599D01*
X134826077Y-120528204D01*
X134827636Y-120460262D01*
X134828972Y-120376688D01*
X134830169Y-120275395D01*
X134831308Y-120154300D01*
X134831685Y-120109600D01*
X134832702Y-119984449D01*
X134833460Y-119880082D01*
X134833903Y-119794707D01*
X134833970Y-119726533D01*
X134833605Y-119673765D01*
X134832748Y-119634614D01*
X134831341Y-119607285D01*
X134829325Y-119589986D01*
X134826643Y-119580926D01*
X134823236Y-119578312D01*
X134819044Y-119580351D01*
X134814571Y-119584667D01*
X134804216Y-119597602D01*
X134782158Y-119626676D01*
X134749957Y-119669759D01*
X134709174Y-119724718D01*
X134661370Y-119789423D01*
X134608105Y-119861742D01*
X134550940Y-119939544D01*
X134491437Y-120020698D01*
X134431155Y-120103072D01*
X134371655Y-120184536D01*
X134314498Y-120262957D01*
X134261245Y-120336204D01*
X134213457Y-120402147D01*
X134172693Y-120458654D01*
X134140516Y-120503593D01*
X134118485Y-120534834D01*
X134113917Y-120541466D01*
X134090996Y-120578369D01*
X134064188Y-120626359D01*
X134038789Y-120675897D01*
X134035568Y-120682577D01*
X134013890Y-120730772D01*
X134001304Y-120768334D01*
X133995574Y-120804160D01*
X133994456Y-120846200D01*
X133995090Y-120922400D01*
X132840651Y-120922400D01*
X132931815Y-120828669D01*
X132978612Y-120778775D01*
X133028899Y-120722295D01*
X133074944Y-120668026D01*
X133095369Y-120642673D01*
X133125807Y-120603128D01*
X133165862Y-120549916D01*
X133214361Y-120484667D01*
X133270135Y-120409011D01*
X133332011Y-120324577D01*
X133398819Y-120232994D01*
X133469387Y-120135892D01*
X133542545Y-120034901D01*
X133617121Y-119931650D01*
X133691944Y-119827768D01*
X133765843Y-119724885D01*
X133837646Y-119624631D01*
X133906184Y-119528636D01*
X133970284Y-119438527D01*
X134028775Y-119355936D01*
X134080486Y-119282492D01*
X134124247Y-119219824D01*
X134158885Y-119169561D01*
X134183230Y-119133334D01*
X134196111Y-119112771D01*
X134197869Y-119108668D01*
X134189910Y-119097342D01*
X134169115Y-119070162D01*
X134136847Y-119028829D01*
X134094470Y-118975044D01*
X134043347Y-118910506D01*
X133984841Y-118836918D01*
X133920314Y-118755978D01*
X133851131Y-118669388D01*
X133778653Y-118578848D01*
X133704246Y-118486060D01*
X133644517Y-118411702D01*
X132633511Y-118411702D01*
X132627602Y-118424659D01*
X132613272Y-118446908D01*
X132612225Y-118448391D01*
X132593438Y-118478544D01*
X132573791Y-118515375D01*
X132569892Y-118523511D01*
X132566356Y-118531940D01*
X132563230Y-118542059D01*
X132560486Y-118555260D01*
X132558092Y-118572938D01*
X132556019Y-118596484D01*
X132554235Y-118627293D01*
X132552712Y-118666757D01*
X132551419Y-118716269D01*
X132550326Y-118777223D01*
X132549403Y-118851011D01*
X132548619Y-118939028D01*
X132547945Y-119042665D01*
X132547350Y-119163316D01*
X132546805Y-119302374D01*
X132546279Y-119461232D01*
X132545745Y-119640089D01*
X132545206Y-119825207D01*
X132544772Y-119989145D01*
X132544509Y-120133303D01*
X132544484Y-120259079D01*
X132544765Y-120367871D01*
X132545419Y-120461077D01*
X132546514Y-120540097D01*
X132548118Y-120606328D01*
X132550297Y-120661170D01*
X132553119Y-120706021D01*
X132556651Y-120742278D01*
X132560961Y-120771341D01*
X132566117Y-120794609D01*
X132572185Y-120813479D01*
X132579233Y-120829351D01*
X132587329Y-120843622D01*
X132596540Y-120857691D01*
X132605040Y-120870158D01*
X132622176Y-120896452D01*
X132632322Y-120914037D01*
X132633511Y-120917257D01*
X132622604Y-120918334D01*
X132591411Y-120919335D01*
X132542223Y-120920235D01*
X132477333Y-120921010D01*
X132399030Y-120921637D01*
X132309607Y-120922091D01*
X132211356Y-120922349D01*
X132142445Y-120922400D01*
X132037452Y-120922180D01*
X131940610Y-120921548D01*
X131854107Y-120920549D01*
X131780132Y-120919227D01*
X131720874Y-120917626D01*
X131678520Y-120915791D01*
X131655260Y-120913765D01*
X131651378Y-120912493D01*
X131659076Y-120897591D01*
X131667074Y-120889560D01*
X131680246Y-120872434D01*
X131697485Y-120842183D01*
X131709407Y-120817622D01*
X131736045Y-120758711D01*
X131739120Y-119581845D01*
X131742195Y-118404978D01*
X132187853Y-118404978D01*
X132285670Y-118405142D01*
X132376064Y-118405611D01*
X132456630Y-118406347D01*
X132524962Y-118407316D01*
X132578656Y-118408480D01*
X132615305Y-118409803D01*
X132632504Y-118411249D01*
X132633511Y-118411702D01*
X133644517Y-118411702D01*
X133629270Y-118392722D01*
X133555090Y-118300537D01*
X133483069Y-118211204D01*
X133414569Y-118126424D01*
X133350955Y-118047898D01*
X133293588Y-117977326D01*
X133243833Y-117916409D01*
X133203052Y-117866847D01*
X133185888Y-117846178D01*
X133099596Y-117745516D01*
X133022997Y-117662259D01*
X132954183Y-117594438D01*
X132891248Y-117540089D01*
X132881867Y-117532722D01*
X132842356Y-117502117D01*
X133974116Y-117501867D01*
X133968827Y-117549844D01*
X133972130Y-117607188D01*
X133993661Y-117675463D01*
X134033635Y-117755212D01*
X134078943Y-117827495D01*
X134095161Y-117850140D01*
X134123214Y-117887696D01*
X134161430Y-117938021D01*
X134208137Y-117998973D01*
X134261661Y-118068411D01*
X134320331Y-118144194D01*
X134382475Y-118224180D01*
X134446421Y-118306228D01*
X134510495Y-118388196D01*
X134573027Y-118467943D01*
X134632343Y-118543327D01*
X134686771Y-118612207D01*
X134734639Y-118672442D01*
X134774275Y-118721889D01*
X134804006Y-118758408D01*
X134822161Y-118779858D01*
X134825220Y-118783156D01*
X134828079Y-118775149D01*
X134830293Y-118744855D01*
X134831857Y-118692556D01*
X134832767Y-118618531D01*
X134833020Y-118523063D01*
X134832613Y-118406434D01*
X134831704Y-118286445D01*
X134830382Y-118154333D01*
X134828857Y-118042594D01*
X134826881Y-117949025D01*
X134824206Y-117871419D01*
X134820582Y-117807574D01*
X134815761Y-117755283D01*
X134809494Y-117712344D01*
X134801532Y-117676551D01*
X134791627Y-117645700D01*
X134779531Y-117617586D01*
X134764993Y-117590005D01*
X134750311Y-117564966D01*
X134712314Y-117501867D01*
X135772197Y-117501867D01*
X136075034Y-117501867D01*
X136075001Y-117495617D01*
X136074195Y-117393544D01*
X136073170Y-117304633D01*
X136071900Y-117227941D01*
X136070360Y-117162527D01*
X136068524Y-117107449D01*
X136066367Y-117061765D01*
X136063863Y-117024534D01*
X136060987Y-116994813D01*
X136057713Y-116971662D01*
X136054015Y-116954139D01*
X136049869Y-116941301D01*
X136045247Y-116932208D01*
X136040126Y-116925918D01*
X136034478Y-116921488D01*
X136028279Y-116917978D01*
X136021504Y-116914445D01*
X136015508Y-116910876D01*
X136010275Y-116908300D01*
X136002099Y-116905972D01*
X135989886Y-116903878D01*
X135972541Y-116902007D01*
X135948969Y-116900347D01*
X135918077Y-116898884D01*
X135878768Y-116897608D01*
X135829950Y-116896504D01*
X135770527Y-116895561D01*
X135699404Y-116894767D01*
X135615488Y-116894109D01*
X135517683Y-116893575D01*
X135404894Y-116893153D01*
X135276029Y-116892829D01*
X135129991Y-116892592D01*
X134965686Y-116892430D01*
X134782020Y-116892330D01*
X134577897Y-116892280D01*
X134366753Y-116892267D01*
X132746400Y-116892267D01*
X132746400Y-116989054D01*
X132746400Y-116989054D01*
G37*
X132746400Y-116989054D02*
X132735535Y-117102993D01*
X132703918Y-117210616D01*
X132653015Y-117309615D01*
X132584293Y-117397684D01*
X132499219Y-117472516D01*
X132402232Y-117530384D01*
X132295964Y-117570005D01*
X132188950Y-117588573D01*
X132083300Y-117587434D01*
X131981125Y-117567930D01*
X131884534Y-117531406D01*
X131795638Y-117479205D01*
X131716546Y-117412673D01*
X131649369Y-117333152D01*
X131596217Y-117241987D01*
X131559199Y-117140523D01*
X131540427Y-117030102D01*
X131538489Y-116980206D01*
X131538489Y-116892267D01*
X131486560Y-116892267D01*
X131450253Y-116895111D01*
X131423355Y-116906911D01*
X131396249Y-116930649D01*
X131357867Y-116969031D01*
X131357867Y-119160602D01*
X131357876Y-119422739D01*
X131357908Y-119663241D01*
X131357972Y-119883048D01*
X131358076Y-120083101D01*
X131358227Y-120264344D01*
X131358434Y-120427716D01*
X131358706Y-120574160D01*
X131359050Y-120704617D01*
X131359474Y-120820029D01*
X131359987Y-120921338D01*
X131360597Y-121009484D01*
X131361312Y-121085410D01*
X131362140Y-121150057D01*
X131363089Y-121204367D01*
X131364167Y-121249280D01*
X131365383Y-121285740D01*
X131366745Y-121314687D01*
X131368261Y-121337063D01*
X131369938Y-121353809D01*
X131371786Y-121365868D01*
X131373813Y-121374180D01*
X131376025Y-121379687D01*
X131377108Y-121381537D01*
X131381271Y-121388549D01*
X131384805Y-121394996D01*
X131388635Y-121400900D01*
X131393682Y-121406286D01*
X131400871Y-121411178D01*
X131411123Y-121415598D01*
X131425364Y-121419572D01*
X131444514Y-121423121D01*
X131469499Y-121426270D01*
X131501240Y-121429042D01*
X131540662Y-121431461D01*
X131588686Y-121433551D01*
X131646237Y-121435335D01*
X131714237Y-121436837D01*
X131793610Y-121438080D01*
X131885279Y-121439089D01*
X131990166Y-121439885D01*
X132109196Y-121440494D01*
X132243290Y-121440939D01*
X132393373Y-121441243D01*
X132560367Y-121441430D01*
X132745196Y-121441524D01*
X132948783Y-121441548D01*
X133172050Y-121441525D01*
X133415922Y-121441480D01*
X133681321Y-121441437D01*
X133719704Y-121441432D01*
X133986682Y-121441389D01*
X134232002Y-121441318D01*
X134456583Y-121441213D01*
X134661345Y-121441066D01*
X134847206Y-121440869D01*
X135015088Y-121440616D01*
X135165908Y-121440300D01*
X135300587Y-121439913D01*
X135420044Y-121439447D01*
X135525199Y-121438897D01*
X135616971Y-121438253D01*
X135696279Y-121437511D01*
X135764043Y-121436661D01*
X135821182Y-121435697D01*
X135868617Y-121434611D01*
X135907266Y-121433397D01*
X135938049Y-121432047D01*
X135961885Y-121430555D01*
X135979694Y-121428911D01*
X135992395Y-121427111D01*
X136000908Y-121425145D01*
X136005266Y-121423477D01*
X136013728Y-121419906D01*
X136021497Y-121417270D01*
X136028602Y-121414634D01*
X136035073Y-121411062D01*
X136040939Y-121405621D01*
X136046229Y-121397375D01*
X136050974Y-121385390D01*
X136055202Y-121368731D01*
X136058943Y-121346463D01*
X136062227Y-121317652D01*
X136065083Y-121281363D01*
X136067540Y-121236661D01*
X136069629Y-121182611D01*
X136071378Y-121118279D01*
X136072817Y-121042730D01*
X136073976Y-120955030D01*
X136074883Y-120854243D01*
X136075569Y-120739434D01*
X136076063Y-120609670D01*
X136076395Y-120464015D01*
X136076593Y-120301535D01*
X136076687Y-120121295D01*
X136076708Y-119922360D01*
X136076685Y-119703796D01*
X136076646Y-119464668D01*
X136076622Y-119204040D01*
X136076622Y-119161889D01*
X136076636Y-118898992D01*
X136076661Y-118657732D01*
X136076671Y-118437165D01*
X136076642Y-118236352D01*
X136076548Y-118054349D01*
X136076362Y-117890216D01*
X136076059Y-117743011D01*
X136075614Y-117611792D01*
X136075034Y-117501867D01*
X135772197Y-117501867D01*
X135732407Y-117559711D01*
X135721236Y-117575479D01*
X135711166Y-117589441D01*
X135702138Y-117602784D01*
X135694097Y-117616693D01*
X135686986Y-117632356D01*
X135680747Y-117650958D01*
X135675325Y-117673686D01*
X135670662Y-117701727D01*
X135666701Y-117736267D01*
X135663385Y-117778492D01*
X135660659Y-117829589D01*
X135658464Y-117890744D01*
X135656745Y-117963144D01*
X135655444Y-118047975D01*
X135654505Y-118146422D01*
X135653870Y-118259674D01*
X135653484Y-118388916D01*
X135653288Y-118535334D01*
X135653227Y-118700116D01*
X135653243Y-118884447D01*
X135653280Y-119089513D01*
X135653289Y-119212133D01*
X135653265Y-119429082D01*
X135653231Y-119624642D01*
X135653243Y-119799999D01*
X135653358Y-119956341D01*
X135653630Y-120094857D01*
X135654118Y-120216734D01*
X135654876Y-120323160D01*
X135655962Y-120415322D01*
X135657431Y-120494409D01*
X135659340Y-120561608D01*
X135661744Y-120618107D01*
X135664701Y-120665093D01*
X135668266Y-120703755D01*
X135672495Y-120735280D01*
X135677446Y-120760855D01*
X135683173Y-120781670D01*
X135689733Y-120798911D01*
X135697183Y-120813765D01*
X135705579Y-120827422D01*
X135714976Y-120841069D01*
X135725432Y-120855893D01*
X135731523Y-120864783D01*
X135770296Y-120922400D01*
X135238732Y-120922400D01*
X135115483Y-120922365D01*
X135012987Y-120922215D01*
X134929420Y-120921878D01*
X134862956Y-120921286D01*
X134811771Y-120920367D01*
X134774041Y-120919051D01*
X134747940Y-120917269D01*
X134731644Y-120914951D01*
X134723328Y-120912026D01*
X134721168Y-120908424D01*
X134723339Y-120904075D01*
X134724535Y-120902645D01*
X134749685Y-120865573D01*
X134775583Y-120812772D01*
X134799192Y-120750770D01*
X134807461Y-120724357D01*
X134812078Y-120706416D01*
X134815979Y-120685355D01*
X134819248Y-120659089D01*
X134821966Y-120625532D01*
X134824215Y-120582599D01*
X134826077Y-120528204D01*
X134827636Y-120460262D01*
X134828972Y-120376688D01*
X134830169Y-120275395D01*
X134831308Y-120154300D01*
X134831685Y-120109600D01*
X134832702Y-119984449D01*
X134833460Y-119880082D01*
X134833903Y-119794707D01*
X134833970Y-119726533D01*
X134833605Y-119673765D01*
X134832748Y-119634614D01*
X134831341Y-119607285D01*
X134829325Y-119589986D01*
X134826643Y-119580926D01*
X134823236Y-119578312D01*
X134819044Y-119580351D01*
X134814571Y-119584667D01*
X134804216Y-119597602D01*
X134782158Y-119626676D01*
X134749957Y-119669759D01*
X134709174Y-119724718D01*
X134661370Y-119789423D01*
X134608105Y-119861742D01*
X134550940Y-119939544D01*
X134491437Y-120020698D01*
X134431155Y-120103072D01*
X134371655Y-120184536D01*
X134314498Y-120262957D01*
X134261245Y-120336204D01*
X134213457Y-120402147D01*
X134172693Y-120458654D01*
X134140516Y-120503593D01*
X134118485Y-120534834D01*
X134113917Y-120541466D01*
X134090996Y-120578369D01*
X134064188Y-120626359D01*
X134038789Y-120675897D01*
X134035568Y-120682577D01*
X134013890Y-120730772D01*
X134001304Y-120768334D01*
X133995574Y-120804160D01*
X133994456Y-120846200D01*
X133995090Y-120922400D01*
X132840651Y-120922400D01*
X132931815Y-120828669D01*
X132978612Y-120778775D01*
X133028899Y-120722295D01*
X133074944Y-120668026D01*
X133095369Y-120642673D01*
X133125807Y-120603128D01*
X133165862Y-120549916D01*
X133214361Y-120484667D01*
X133270135Y-120409011D01*
X133332011Y-120324577D01*
X133398819Y-120232994D01*
X133469387Y-120135892D01*
X133542545Y-120034901D01*
X133617121Y-119931650D01*
X133691944Y-119827768D01*
X133765843Y-119724885D01*
X133837646Y-119624631D01*
X133906184Y-119528636D01*
X133970284Y-119438527D01*
X134028775Y-119355936D01*
X134080486Y-119282492D01*
X134124247Y-119219824D01*
X134158885Y-119169561D01*
X134183230Y-119133334D01*
X134196111Y-119112771D01*
X134197869Y-119108668D01*
X134189910Y-119097342D01*
X134169115Y-119070162D01*
X134136847Y-119028829D01*
X134094470Y-118975044D01*
X134043347Y-118910506D01*
X133984841Y-118836918D01*
X133920314Y-118755978D01*
X133851131Y-118669388D01*
X133778653Y-118578848D01*
X133704246Y-118486060D01*
X133644517Y-118411702D01*
X132633511Y-118411702D01*
X132627602Y-118424659D01*
X132613272Y-118446908D01*
X132612225Y-118448391D01*
X132593438Y-118478544D01*
X132573791Y-118515375D01*
X132569892Y-118523511D01*
X132566356Y-118531940D01*
X132563230Y-118542059D01*
X132560486Y-118555260D01*
X132558092Y-118572938D01*
X132556019Y-118596484D01*
X132554235Y-118627293D01*
X132552712Y-118666757D01*
X132551419Y-118716269D01*
X132550326Y-118777223D01*
X132549403Y-118851011D01*
X132548619Y-118939028D01*
X132547945Y-119042665D01*
X132547350Y-119163316D01*
X132546805Y-119302374D01*
X132546279Y-119461232D01*
X132545745Y-119640089D01*
X132545206Y-119825207D01*
X132544772Y-119989145D01*
X132544509Y-120133303D01*
X132544484Y-120259079D01*
X132544765Y-120367871D01*
X132545419Y-120461077D01*
X132546514Y-120540097D01*
X132548118Y-120606328D01*
X132550297Y-120661170D01*
X132553119Y-120706021D01*
X132556651Y-120742278D01*
X132560961Y-120771341D01*
X132566117Y-120794609D01*
X132572185Y-120813479D01*
X132579233Y-120829351D01*
X132587329Y-120843622D01*
X132596540Y-120857691D01*
X132605040Y-120870158D01*
X132622176Y-120896452D01*
X132632322Y-120914037D01*
X132633511Y-120917257D01*
X132622604Y-120918334D01*
X132591411Y-120919335D01*
X132542223Y-120920235D01*
X132477333Y-120921010D01*
X132399030Y-120921637D01*
X132309607Y-120922091D01*
X132211356Y-120922349D01*
X132142445Y-120922400D01*
X132037452Y-120922180D01*
X131940610Y-120921548D01*
X131854107Y-120920549D01*
X131780132Y-120919227D01*
X131720874Y-120917626D01*
X131678520Y-120915791D01*
X131655260Y-120913765D01*
X131651378Y-120912493D01*
X131659076Y-120897591D01*
X131667074Y-120889560D01*
X131680246Y-120872434D01*
X131697485Y-120842183D01*
X131709407Y-120817622D01*
X131736045Y-120758711D01*
X131739120Y-119581845D01*
X131742195Y-118404978D01*
X132187853Y-118404978D01*
X132285670Y-118405142D01*
X132376064Y-118405611D01*
X132456630Y-118406347D01*
X132524962Y-118407316D01*
X132578656Y-118408480D01*
X132615305Y-118409803D01*
X132632504Y-118411249D01*
X132633511Y-118411702D01*
X133644517Y-118411702D01*
X133629270Y-118392722D01*
X133555090Y-118300537D01*
X133483069Y-118211204D01*
X133414569Y-118126424D01*
X133350955Y-118047898D01*
X133293588Y-117977326D01*
X133243833Y-117916409D01*
X133203052Y-117866847D01*
X133185888Y-117846178D01*
X133099596Y-117745516D01*
X133022997Y-117662259D01*
X132954183Y-117594438D01*
X132891248Y-117540089D01*
X132881867Y-117532722D01*
X132842356Y-117502117D01*
X133974116Y-117501867D01*
X133968827Y-117549844D01*
X133972130Y-117607188D01*
X133993661Y-117675463D01*
X134033635Y-117755212D01*
X134078943Y-117827495D01*
X134095161Y-117850140D01*
X134123214Y-117887696D01*
X134161430Y-117938021D01*
X134208137Y-117998973D01*
X134261661Y-118068411D01*
X134320331Y-118144194D01*
X134382475Y-118224180D01*
X134446421Y-118306228D01*
X134510495Y-118388196D01*
X134573027Y-118467943D01*
X134632343Y-118543327D01*
X134686771Y-118612207D01*
X134734639Y-118672442D01*
X134774275Y-118721889D01*
X134804006Y-118758408D01*
X134822161Y-118779858D01*
X134825220Y-118783156D01*
X134828079Y-118775149D01*
X134830293Y-118744855D01*
X134831857Y-118692556D01*
X134832767Y-118618531D01*
X134833020Y-118523063D01*
X134832613Y-118406434D01*
X134831704Y-118286445D01*
X134830382Y-118154333D01*
X134828857Y-118042594D01*
X134826881Y-117949025D01*
X134824206Y-117871419D01*
X134820582Y-117807574D01*
X134815761Y-117755283D01*
X134809494Y-117712344D01*
X134801532Y-117676551D01*
X134791627Y-117645700D01*
X134779531Y-117617586D01*
X134764993Y-117590005D01*
X134750311Y-117564966D01*
X134712314Y-117501867D01*
X135772197Y-117501867D01*
X136075034Y-117501867D01*
X136075001Y-117495617D01*
X136074195Y-117393544D01*
X136073170Y-117304633D01*
X136071900Y-117227941D01*
X136070360Y-117162527D01*
X136068524Y-117107449D01*
X136066367Y-117061765D01*
X136063863Y-117024534D01*
X136060987Y-116994813D01*
X136057713Y-116971662D01*
X136054015Y-116954139D01*
X136049869Y-116941301D01*
X136045247Y-116932208D01*
X136040126Y-116925918D01*
X136034478Y-116921488D01*
X136028279Y-116917978D01*
X136021504Y-116914445D01*
X136015508Y-116910876D01*
X136010275Y-116908300D01*
X136002099Y-116905972D01*
X135989886Y-116903878D01*
X135972541Y-116902007D01*
X135948969Y-116900347D01*
X135918077Y-116898884D01*
X135878768Y-116897608D01*
X135829950Y-116896504D01*
X135770527Y-116895561D01*
X135699404Y-116894767D01*
X135615488Y-116894109D01*
X135517683Y-116893575D01*
X135404894Y-116893153D01*
X135276029Y-116892829D01*
X135129991Y-116892592D01*
X134965686Y-116892430D01*
X134782020Y-116892330D01*
X134577897Y-116892280D01*
X134366753Y-116892267D01*
X132746400Y-116892267D01*
X132746400Y-116989054D01*
D14*
X156188449Y-87526452D02*
X156646385Y-87984388D01*
X156673322Y-88065200D01*
X156673322Y-88119075D01*
X156646385Y-88199887D01*
X156538635Y-88307637D01*
X156457823Y-88334574D01*
X156403948Y-88334574D01*
X156323136Y-88307637D01*
X155865200Y-87849701D01*
X155353389Y-88361511D02*
X155461139Y-88253762D01*
X155541951Y-88226824D01*
X155595826Y-88226824D01*
X155730513Y-88253762D01*
X155865200Y-88334574D01*
X156080699Y-88550073D01*
X156107637Y-88630885D01*
X156107637Y-88684760D01*
X156080699Y-88765572D01*
X155972950Y-88873322D01*
X155892137Y-88900259D01*
X155838263Y-88900259D01*
X155757450Y-88873322D01*
X155622763Y-88738635D01*
X155595826Y-88657823D01*
X155595826Y-88603948D01*
X155622763Y-88523136D01*
X155730513Y-88415386D01*
X155811325Y-88388449D01*
X155865200Y-88388449D01*
X155946012Y-88415386D01*
M02*
