G04 #@! TF.GenerationSoftware,KiCad,Pcbnew,5.1.4*
G04 #@! TF.CreationDate,2019-10-19T18:39:23+01:00*
G04 #@! TF.ProjectId,manila_ice,6d616e69-6c61-45f6-9963-652e6b696361,rev?*
G04 #@! TF.SameCoordinates,Original*
G04 #@! TF.FileFunction,Legend,Top*
G04 #@! TF.FilePolarity,Positive*
%FSLAX46Y46*%
G04 Gerber Fmt 4.6, Leading zero omitted, Abs format (unit mm)*
G04 Created by KiCad (PCBNEW 5.1.4) date 2019-10-19 18:39:23*
%MOMM*%
%LPD*%
G04 APERTURE LIST*
%ADD10C,0.120000*%
%ADD11C,0.150000*%
%ADD12C,0.200000*%
%ADD13C,0.500000*%
%ADD14C,0.010000*%
%ADD15C,0.100000*%
G04 APERTURE END LIST*
D10*
X136200000Y-114700000D02*
X136900000Y-112700000D01*
X140100000Y-107500000D02*
X139800000Y-109050000D01*
D11*
X114142857Y-92671428D02*
X114342857Y-93271428D01*
X114542857Y-92671428D01*
X114742857Y-93271428D02*
X114742857Y-92671428D01*
X115028571Y-93271428D02*
X115028571Y-92671428D01*
X115371428Y-93271428D01*
X115371428Y-92671428D01*
X148928571Y-96771428D02*
X148585714Y-96771428D01*
X148757142Y-96771428D02*
X148757142Y-96171428D01*
X148700000Y-96257142D01*
X148642857Y-96314285D01*
X148585714Y-96342857D01*
X149100000Y-96171428D02*
X149300000Y-96771428D01*
X149500000Y-96171428D01*
X149671428Y-96228571D02*
X149700000Y-96200000D01*
X149757142Y-96171428D01*
X149900000Y-96171428D01*
X149957142Y-96200000D01*
X149985714Y-96228571D01*
X150014285Y-96285714D01*
X150014285Y-96342857D01*
X149985714Y-96428571D01*
X149642857Y-96771428D01*
X150014285Y-96771428D01*
X148307142Y-89921428D02*
X148678571Y-89921428D01*
X148478571Y-90150000D01*
X148564285Y-90150000D01*
X148621428Y-90178571D01*
X148650000Y-90207142D01*
X148678571Y-90264285D01*
X148678571Y-90407142D01*
X148650000Y-90464285D01*
X148621428Y-90492857D01*
X148564285Y-90521428D01*
X148392857Y-90521428D01*
X148335714Y-90492857D01*
X148307142Y-90464285D01*
X148850000Y-89921428D02*
X149050000Y-90521428D01*
X149250000Y-89921428D01*
X149392857Y-89921428D02*
X149764285Y-89921428D01*
X149564285Y-90150000D01*
X149650000Y-90150000D01*
X149707142Y-90178571D01*
X149735714Y-90207142D01*
X149764285Y-90264285D01*
X149764285Y-90407142D01*
X149735714Y-90464285D01*
X149707142Y-90492857D01*
X149650000Y-90521428D01*
X149478571Y-90521428D01*
X149421428Y-90492857D01*
X149392857Y-90464285D01*
X165200000Y-123642857D02*
X165285714Y-123671428D01*
X165428571Y-123671428D01*
X165485714Y-123642857D01*
X165514285Y-123614285D01*
X165542857Y-123557142D01*
X165542857Y-123500000D01*
X165514285Y-123442857D01*
X165485714Y-123414285D01*
X165428571Y-123385714D01*
X165314285Y-123357142D01*
X165257142Y-123328571D01*
X165228571Y-123300000D01*
X165200000Y-123242857D01*
X165200000Y-123185714D01*
X165228571Y-123128571D01*
X165257142Y-123100000D01*
X165314285Y-123071428D01*
X165457142Y-123071428D01*
X165542857Y-123100000D01*
X165742857Y-123071428D02*
X165885714Y-123671428D01*
X166000000Y-123242857D01*
X166114285Y-123671428D01*
X166257142Y-123071428D01*
X166800000Y-123671428D02*
X166457142Y-123671428D01*
X166628571Y-123671428D02*
X166628571Y-123071428D01*
X166571428Y-123157142D01*
X166514285Y-123214285D01*
X166457142Y-123242857D01*
X157200000Y-123642857D02*
X157285714Y-123671428D01*
X157428571Y-123671428D01*
X157485714Y-123642857D01*
X157514285Y-123614285D01*
X157542857Y-123557142D01*
X157542857Y-123500000D01*
X157514285Y-123442857D01*
X157485714Y-123414285D01*
X157428571Y-123385714D01*
X157314285Y-123357142D01*
X157257142Y-123328571D01*
X157228571Y-123300000D01*
X157200000Y-123242857D01*
X157200000Y-123185714D01*
X157228571Y-123128571D01*
X157257142Y-123100000D01*
X157314285Y-123071428D01*
X157457142Y-123071428D01*
X157542857Y-123100000D01*
X157742857Y-123071428D02*
X157885714Y-123671428D01*
X158000000Y-123242857D01*
X158114285Y-123671428D01*
X158257142Y-123071428D01*
X158600000Y-123071428D02*
X158657142Y-123071428D01*
X158714285Y-123100000D01*
X158742857Y-123128571D01*
X158771428Y-123185714D01*
X158800000Y-123300000D01*
X158800000Y-123442857D01*
X158771428Y-123557142D01*
X158742857Y-123614285D01*
X158714285Y-123642857D01*
X158657142Y-123671428D01*
X158600000Y-123671428D01*
X158542857Y-123642857D01*
X158514285Y-123614285D01*
X158485714Y-123557142D01*
X158457142Y-123442857D01*
X158457142Y-123300000D01*
X158485714Y-123185714D01*
X158514285Y-123128571D01*
X158542857Y-123100000D01*
X158600000Y-123071428D01*
X172828571Y-123614285D02*
X172800000Y-123642857D01*
X172714285Y-123671428D01*
X172657142Y-123671428D01*
X172571428Y-123642857D01*
X172514285Y-123585714D01*
X172485714Y-123528571D01*
X172457142Y-123414285D01*
X172457142Y-123328571D01*
X172485714Y-123214285D01*
X172514285Y-123157142D01*
X172571428Y-123100000D01*
X172657142Y-123071428D01*
X172714285Y-123071428D01*
X172800000Y-123100000D01*
X172828571Y-123128571D01*
X173428571Y-123671428D02*
X173228571Y-123385714D01*
X173085714Y-123671428D02*
X173085714Y-123071428D01*
X173314285Y-123071428D01*
X173371428Y-123100000D01*
X173400000Y-123128571D01*
X173428571Y-123185714D01*
X173428571Y-123271428D01*
X173400000Y-123328571D01*
X173371428Y-123357142D01*
X173314285Y-123385714D01*
X173085714Y-123385714D01*
X173685714Y-123357142D02*
X173885714Y-123357142D01*
X173971428Y-123671428D02*
X173685714Y-123671428D01*
X173685714Y-123071428D01*
X173971428Y-123071428D01*
X174200000Y-123642857D02*
X174285714Y-123671428D01*
X174428571Y-123671428D01*
X174485714Y-123642857D01*
X174514285Y-123614285D01*
X174542857Y-123557142D01*
X174542857Y-123500000D01*
X174514285Y-123442857D01*
X174485714Y-123414285D01*
X174428571Y-123385714D01*
X174314285Y-123357142D01*
X174257142Y-123328571D01*
X174228571Y-123300000D01*
X174200000Y-123242857D01*
X174200000Y-123185714D01*
X174228571Y-123128571D01*
X174257142Y-123100000D01*
X174314285Y-123071428D01*
X174457142Y-123071428D01*
X174542857Y-123100000D01*
X174800000Y-123357142D02*
X175000000Y-123357142D01*
X175085714Y-123671428D02*
X174800000Y-123671428D01*
X174800000Y-123071428D01*
X175085714Y-123071428D01*
X175257142Y-123071428D02*
X175600000Y-123071428D01*
X175428571Y-123671428D02*
X175428571Y-123071428D01*
D12*
X166266666Y-76652380D02*
X166266666Y-75652380D01*
X166647619Y-75652380D01*
X166742857Y-75700000D01*
X166790476Y-75747619D01*
X166838095Y-75842857D01*
X166838095Y-75985714D01*
X166790476Y-76080952D01*
X166742857Y-76128571D01*
X166647619Y-76176190D01*
X166266666Y-76176190D01*
X167266666Y-76652380D02*
X167266666Y-75652380D01*
X167600000Y-76366666D01*
X167933333Y-75652380D01*
X167933333Y-76652380D01*
X168600000Y-75652380D02*
X168790476Y-75652380D01*
X168885714Y-75700000D01*
X168980952Y-75795238D01*
X169028571Y-75985714D01*
X169028571Y-76319047D01*
X168980952Y-76509523D01*
X168885714Y-76604761D01*
X168790476Y-76652380D01*
X168600000Y-76652380D01*
X168504761Y-76604761D01*
X168409523Y-76509523D01*
X168361904Y-76319047D01*
X168361904Y-75985714D01*
X168409523Y-75795238D01*
X168504761Y-75700000D01*
X168600000Y-75652380D01*
X169457142Y-76652380D02*
X169457142Y-75652380D01*
X169695238Y-75652380D01*
X169838095Y-75700000D01*
X169933333Y-75795238D01*
X169980952Y-75890476D01*
X170028571Y-76080952D01*
X170028571Y-76223809D01*
X169980952Y-76414285D01*
X169933333Y-76509523D01*
X169838095Y-76604761D01*
X169695238Y-76652380D01*
X169457142Y-76652380D01*
X170980952Y-76652380D02*
X170409523Y-76652380D01*
X170695238Y-76652380D02*
X170695238Y-75652380D01*
X170600000Y-75795238D01*
X170504761Y-75890476D01*
X170409523Y-75938095D01*
X172171428Y-75985714D02*
X172933333Y-76271428D01*
X172171428Y-76557142D01*
X167028571Y-73785714D02*
X166266666Y-74071428D01*
X167028571Y-74357142D01*
X168266666Y-74452380D02*
X168266666Y-73452380D01*
X168647619Y-73452380D01*
X168742857Y-73500000D01*
X168790476Y-73547619D01*
X168838095Y-73642857D01*
X168838095Y-73785714D01*
X168790476Y-73880952D01*
X168742857Y-73928571D01*
X168647619Y-73976190D01*
X168266666Y-73976190D01*
X169266666Y-74452380D02*
X169266666Y-73452380D01*
X169600000Y-74166666D01*
X169933333Y-73452380D01*
X169933333Y-74452380D01*
X170600000Y-73452380D02*
X170790476Y-73452380D01*
X170885714Y-73500000D01*
X170980952Y-73595238D01*
X171028571Y-73785714D01*
X171028571Y-74119047D01*
X170980952Y-74309523D01*
X170885714Y-74404761D01*
X170790476Y-74452380D01*
X170600000Y-74452380D01*
X170504761Y-74404761D01*
X170409523Y-74309523D01*
X170361904Y-74119047D01*
X170361904Y-73785714D01*
X170409523Y-73595238D01*
X170504761Y-73500000D01*
X170600000Y-73452380D01*
X171457142Y-74452380D02*
X171457142Y-73452380D01*
X171695238Y-73452380D01*
X171838095Y-73500000D01*
X171933333Y-73595238D01*
X171980952Y-73690476D01*
X172028571Y-73880952D01*
X172028571Y-74023809D01*
X171980952Y-74214285D01*
X171933333Y-74309523D01*
X171838095Y-74404761D01*
X171695238Y-74452380D01*
X171457142Y-74452380D01*
X172647619Y-73452380D02*
X172742857Y-73452380D01*
X172838095Y-73500000D01*
X172885714Y-73547619D01*
X172933333Y-73642857D01*
X172980952Y-73833333D01*
X172980952Y-74071428D01*
X172933333Y-74261904D01*
X172885714Y-74357142D01*
X172838095Y-74404761D01*
X172742857Y-74452380D01*
X172647619Y-74452380D01*
X172552380Y-74404761D01*
X172504761Y-74357142D01*
X172457142Y-74261904D01*
X172409523Y-74071428D01*
X172409523Y-73833333D01*
X172457142Y-73642857D01*
X172504761Y-73547619D01*
X172552380Y-73500000D01*
X172647619Y-73452380D01*
X145866666Y-77852380D02*
X146533333Y-77852380D01*
X146104761Y-78852380D01*
X144390476Y-77852380D02*
X144200000Y-77852380D01*
X144104761Y-77900000D01*
X144057142Y-77947619D01*
X143961904Y-78090476D01*
X143914285Y-78280952D01*
X143914285Y-78661904D01*
X143961904Y-78757142D01*
X144009523Y-78804761D01*
X144104761Y-78852380D01*
X144295238Y-78852380D01*
X144390476Y-78804761D01*
X144438095Y-78757142D01*
X144485714Y-78661904D01*
X144485714Y-78423809D01*
X144438095Y-78328571D01*
X144390476Y-78280952D01*
X144295238Y-78233333D01*
X144104761Y-78233333D01*
X144009523Y-78280952D01*
X143961904Y-78328571D01*
X143914285Y-78423809D01*
X142438095Y-77852380D02*
X141961904Y-77852380D01*
X141914285Y-78328571D01*
X141961904Y-78280952D01*
X142057142Y-78233333D01*
X142295238Y-78233333D01*
X142390476Y-78280952D01*
X142438095Y-78328571D01*
X142485714Y-78423809D01*
X142485714Y-78661904D01*
X142438095Y-78757142D01*
X142390476Y-78804761D01*
X142295238Y-78852380D01*
X142057142Y-78852380D01*
X141961904Y-78804761D01*
X141914285Y-78757142D01*
X140390476Y-78185714D02*
X140390476Y-78852380D01*
X140152380Y-77804761D02*
X139914285Y-78519047D01*
X140533333Y-78519047D01*
X137866666Y-77852380D02*
X138485714Y-77852380D01*
X138152380Y-78233333D01*
X138295238Y-78233333D01*
X138390476Y-78280952D01*
X138438095Y-78328571D01*
X138485714Y-78423809D01*
X138485714Y-78661904D01*
X138438095Y-78757142D01*
X138390476Y-78804761D01*
X138295238Y-78852380D01*
X138009523Y-78852380D01*
X137914285Y-78804761D01*
X137866666Y-78757142D01*
X135914285Y-77947619D02*
X135961904Y-77900000D01*
X136057142Y-77852380D01*
X136295238Y-77852380D01*
X136390476Y-77900000D01*
X136438095Y-77947619D01*
X136485714Y-78042857D01*
X136485714Y-78138095D01*
X136438095Y-78280952D01*
X135866666Y-78852380D01*
X136485714Y-78852380D01*
X134485714Y-78852380D02*
X133914285Y-78852380D01*
X134200000Y-78852380D02*
X134200000Y-77852380D01*
X134104761Y-77995238D01*
X134009523Y-78090476D01*
X133914285Y-78138095D01*
X132152380Y-77852380D02*
X132247619Y-77852380D01*
X132342857Y-77900000D01*
X132390476Y-77947619D01*
X132438095Y-78042857D01*
X132485714Y-78233333D01*
X132485714Y-78471428D01*
X132438095Y-78661904D01*
X132390476Y-78757142D01*
X132342857Y-78804761D01*
X132247619Y-78852380D01*
X132152380Y-78852380D01*
X132057142Y-78804761D01*
X132009523Y-78757142D01*
X131961904Y-78661904D01*
X131914285Y-78471428D01*
X131914285Y-78233333D01*
X131961904Y-78042857D01*
X132009523Y-77947619D01*
X132057142Y-77900000D01*
X132152380Y-77852380D01*
X128752380Y-76252380D02*
X128276190Y-76252380D01*
X128276190Y-75252380D01*
X129085714Y-75728571D02*
X129419047Y-75728571D01*
X129561904Y-76252380D02*
X129085714Y-76252380D01*
X129085714Y-75252380D01*
X129561904Y-75252380D01*
X129990476Y-76252380D02*
X129990476Y-75252380D01*
X130228571Y-75252380D01*
X130371428Y-75300000D01*
X130466666Y-75395238D01*
X130514285Y-75490476D01*
X130561904Y-75680952D01*
X130561904Y-75823809D01*
X130514285Y-76014285D01*
X130466666Y-76109523D01*
X130371428Y-76204761D01*
X130228571Y-76252380D01*
X129990476Y-76252380D01*
X130942857Y-76204761D02*
X131038095Y-76252380D01*
X131228571Y-76252380D01*
X131323809Y-76204761D01*
X131371428Y-76109523D01*
X131371428Y-76061904D01*
X131323809Y-75966666D01*
X131228571Y-75919047D01*
X131085714Y-75919047D01*
X130990476Y-75871428D01*
X130942857Y-75776190D01*
X130942857Y-75728571D01*
X130990476Y-75633333D01*
X131085714Y-75585714D01*
X131228571Y-75585714D01*
X131323809Y-75633333D01*
D11*
X149526190Y-83452380D02*
X149859523Y-84452380D01*
X150192857Y-83452380D01*
X151050000Y-84452380D02*
X150478571Y-84452380D01*
X150764285Y-84452380D02*
X150764285Y-83452380D01*
X150669047Y-83595238D01*
X150573809Y-83690476D01*
X150478571Y-83738095D01*
X151478571Y-84357142D02*
X151526190Y-84404761D01*
X151478571Y-84452380D01*
X151430952Y-84404761D01*
X151478571Y-84357142D01*
X151478571Y-84452380D01*
X152145238Y-83452380D02*
X152240476Y-83452380D01*
X152335714Y-83500000D01*
X152383333Y-83547619D01*
X152430952Y-83642857D01*
X152478571Y-83833333D01*
X152478571Y-84071428D01*
X152430952Y-84261904D01*
X152383333Y-84357142D01*
X152335714Y-84404761D01*
X152240476Y-84452380D01*
X152145238Y-84452380D01*
X152050000Y-84404761D01*
X152002380Y-84357142D01*
X151954761Y-84261904D01*
X151907142Y-84071428D01*
X151907142Y-83833333D01*
X151954761Y-83642857D01*
X152002380Y-83547619D01*
X152050000Y-83500000D01*
X152145238Y-83452380D01*
D13*
X160316666Y-84633333D02*
X160316666Y-82300000D01*
X160316666Y-81133333D02*
X160150000Y-81300000D01*
X160316666Y-81466666D01*
X160483333Y-81300000D01*
X160316666Y-81133333D01*
X160316666Y-81466666D01*
X163983333Y-84300000D02*
X163816666Y-84466666D01*
X163316666Y-84633333D01*
X162983333Y-84633333D01*
X162483333Y-84466666D01*
X162150000Y-84133333D01*
X161983333Y-83800000D01*
X161816666Y-83133333D01*
X161816666Y-82633333D01*
X161983333Y-81966666D01*
X162150000Y-81633333D01*
X162483333Y-81300000D01*
X162983333Y-81133333D01*
X163316666Y-81133333D01*
X163816666Y-81300000D01*
X163983333Y-81466666D01*
X165483333Y-82800000D02*
X166650000Y-82800000D01*
X167150000Y-84633333D02*
X165483333Y-84633333D01*
X165483333Y-81133333D01*
X167150000Y-81133333D01*
D10*
X186125279Y-118490000D02*
X185799721Y-118490000D01*
X186125279Y-119510000D02*
X185799721Y-119510000D01*
X172360000Y-89862779D02*
X172360000Y-89537221D01*
X171340000Y-89862779D02*
X171340000Y-89537221D01*
X167400000Y-89840000D02*
X163950000Y-89840000D01*
X167400000Y-89840000D02*
X169350000Y-89840000D01*
X167400000Y-94960000D02*
X165450000Y-94960000D01*
X167400000Y-94960000D02*
X169350000Y-94960000D01*
X167710000Y-96762779D02*
X167710000Y-96437221D01*
X166690000Y-96762779D02*
X166690000Y-96437221D01*
X169185000Y-96750279D02*
X169185000Y-96424721D01*
X168165000Y-96750279D02*
X168165000Y-96424721D01*
X138324273Y-107745522D02*
X138554478Y-107975727D01*
X139045522Y-107024273D02*
X139275727Y-107254478D01*
X115500000Y-94250000D02*
G75*
G03X115500000Y-94250000I-700000J0D01*
G01*
X148250000Y-96500000D02*
G75*
G03X148250000Y-96500000I-700000J0D01*
G01*
X148000000Y-90250000D02*
G75*
G03X148000000Y-90250000I-700000J0D01*
G01*
D14*
G36*
X189426964Y-79290018D02*
G01*
X189483812Y-79591570D01*
X189903338Y-79764512D01*
X190154984Y-79593395D01*
X190225458Y-79545750D01*
X190289163Y-79503210D01*
X190343126Y-79467715D01*
X190384373Y-79441210D01*
X190409934Y-79425636D01*
X190416895Y-79422278D01*
X190429435Y-79430914D01*
X190456231Y-79454792D01*
X190494280Y-79490859D01*
X190540579Y-79536067D01*
X190592123Y-79587364D01*
X190645909Y-79641701D01*
X190698935Y-79696028D01*
X190748195Y-79747295D01*
X190790687Y-79792451D01*
X190823407Y-79828446D01*
X190843351Y-79852230D01*
X190848119Y-79860190D01*
X190841257Y-79874865D01*
X190822020Y-79907014D01*
X190792430Y-79953492D01*
X190754510Y-80011156D01*
X190710282Y-80076860D01*
X190684654Y-80114336D01*
X190637941Y-80182768D01*
X190596432Y-80244520D01*
X190562140Y-80296519D01*
X190537080Y-80335692D01*
X190523264Y-80358965D01*
X190521188Y-80363855D01*
X190525895Y-80377755D01*
X190538723Y-80410150D01*
X190557738Y-80456485D01*
X190581003Y-80512206D01*
X190606584Y-80572758D01*
X190632545Y-80633586D01*
X190656950Y-80690136D01*
X190677863Y-80737852D01*
X190693349Y-80772181D01*
X190701472Y-80788568D01*
X190701952Y-80789212D01*
X190714707Y-80792341D01*
X190748677Y-80799321D01*
X190800340Y-80809467D01*
X190866176Y-80822092D01*
X190942664Y-80836509D01*
X190987290Y-80844823D01*
X191069021Y-80860384D01*
X191142843Y-80875192D01*
X191205021Y-80888436D01*
X191251822Y-80899305D01*
X191279509Y-80906989D01*
X191285074Y-80909427D01*
X191290526Y-80925930D01*
X191294924Y-80963200D01*
X191298272Y-81016880D01*
X191300574Y-81082612D01*
X191301832Y-81156037D01*
X191302048Y-81232796D01*
X191301227Y-81308532D01*
X191299371Y-81378886D01*
X191296482Y-81439500D01*
X191292565Y-81486016D01*
X191287622Y-81514075D01*
X191284657Y-81519916D01*
X191266934Y-81526917D01*
X191229381Y-81536927D01*
X191176964Y-81548769D01*
X191114652Y-81561267D01*
X191092900Y-81565310D01*
X190988024Y-81584520D01*
X190905180Y-81599991D01*
X190841630Y-81612337D01*
X190794637Y-81622173D01*
X190761463Y-81630114D01*
X190739371Y-81636776D01*
X190725624Y-81642773D01*
X190717484Y-81648719D01*
X190716345Y-81649894D01*
X190704977Y-81668826D01*
X190687635Y-81705669D01*
X190666050Y-81755913D01*
X190641954Y-81815046D01*
X190617079Y-81878556D01*
X190593157Y-81941932D01*
X190571919Y-82000662D01*
X190555097Y-82050235D01*
X190544422Y-82086139D01*
X190541627Y-82103862D01*
X190541860Y-82104483D01*
X190551331Y-82118970D01*
X190572818Y-82150844D01*
X190604063Y-82196789D01*
X190642807Y-82253485D01*
X190686793Y-82317617D01*
X190699319Y-82335842D01*
X190743984Y-82401914D01*
X190783288Y-82462200D01*
X190815088Y-82513235D01*
X190837245Y-82551560D01*
X190847617Y-82573711D01*
X190848119Y-82576432D01*
X190839405Y-82590736D01*
X190815325Y-82619072D01*
X190778976Y-82658396D01*
X190733453Y-82705661D01*
X190681852Y-82757823D01*
X190627267Y-82811835D01*
X190572794Y-82864653D01*
X190521529Y-82913231D01*
X190476567Y-82954523D01*
X190441004Y-82985485D01*
X190417935Y-83003070D01*
X190411554Y-83005941D01*
X190396699Y-82999178D01*
X190366286Y-82980939D01*
X190325268Y-82954297D01*
X190293709Y-82932852D01*
X190236525Y-82893503D01*
X190168806Y-82847171D01*
X190100880Y-82800913D01*
X190064361Y-82776155D01*
X189940752Y-82692547D01*
X189836991Y-82748650D01*
X189789720Y-82773228D01*
X189749523Y-82792331D01*
X189722326Y-82803227D01*
X189715402Y-82804743D01*
X189707077Y-82793549D01*
X189690654Y-82761917D01*
X189667357Y-82712765D01*
X189638414Y-82649010D01*
X189605050Y-82573571D01*
X189568491Y-82489364D01*
X189529964Y-82399308D01*
X189490694Y-82306321D01*
X189451908Y-82213320D01*
X189414830Y-82123223D01*
X189380689Y-82038948D01*
X189350708Y-81963413D01*
X189326116Y-81899534D01*
X189308136Y-81850231D01*
X189297997Y-81818421D01*
X189296366Y-81807496D01*
X189309291Y-81793561D01*
X189337589Y-81770940D01*
X189375346Y-81744333D01*
X189378515Y-81742228D01*
X189476100Y-81664114D01*
X189554786Y-81572982D01*
X189613891Y-81471745D01*
X189652732Y-81363318D01*
X189670628Y-81250614D01*
X189666897Y-81136548D01*
X189640857Y-81024034D01*
X189591825Y-80915985D01*
X189577400Y-80892345D01*
X189502369Y-80796887D01*
X189413730Y-80720232D01*
X189314549Y-80662780D01*
X189207895Y-80624929D01*
X189096836Y-80607078D01*
X188984439Y-80609625D01*
X188873773Y-80632970D01*
X188767906Y-80677510D01*
X188669905Y-80743645D01*
X188639590Y-80770487D01*
X188562438Y-80854512D01*
X188506218Y-80942966D01*
X188467653Y-81042115D01*
X188446174Y-81140303D01*
X188440872Y-81250697D01*
X188458552Y-81361640D01*
X188497419Y-81469381D01*
X188555677Y-81570169D01*
X188631531Y-81660256D01*
X188723183Y-81735892D01*
X188735228Y-81743864D01*
X188773389Y-81769974D01*
X188802399Y-81792595D01*
X188816268Y-81807039D01*
X188816469Y-81807496D01*
X188813492Y-81823121D01*
X188801689Y-81858582D01*
X188782286Y-81910962D01*
X188756512Y-81977345D01*
X188725591Y-82054814D01*
X188690751Y-82140450D01*
X188653217Y-82231337D01*
X188614217Y-82324559D01*
X188574977Y-82417197D01*
X188536724Y-82506335D01*
X188500683Y-82589055D01*
X188468083Y-82662441D01*
X188440148Y-82723575D01*
X188418105Y-82769541D01*
X188403182Y-82797421D01*
X188397172Y-82804743D01*
X188378809Y-82799041D01*
X188344448Y-82783749D01*
X188300016Y-82761599D01*
X188275583Y-82748650D01*
X188171822Y-82692547D01*
X188048213Y-82776155D01*
X187985114Y-82818987D01*
X187916030Y-82866122D01*
X187851293Y-82910503D01*
X187818866Y-82932852D01*
X187773259Y-82963477D01*
X187734640Y-82987747D01*
X187708048Y-83002587D01*
X187699410Y-83005724D01*
X187686839Y-82997261D01*
X187659016Y-82973636D01*
X187618639Y-82937302D01*
X187568405Y-82890711D01*
X187511012Y-82836317D01*
X187474714Y-82801392D01*
X187411210Y-82738996D01*
X187356327Y-82683188D01*
X187312286Y-82636354D01*
X187281305Y-82600882D01*
X187265602Y-82579161D01*
X187264095Y-82574752D01*
X187271086Y-82557985D01*
X187290406Y-82524082D01*
X187319909Y-82476476D01*
X187357455Y-82418599D01*
X187400900Y-82353884D01*
X187413255Y-82335842D01*
X187458273Y-82270267D01*
X187498660Y-82211228D01*
X187532160Y-82162042D01*
X187556514Y-82126028D01*
X187569464Y-82106502D01*
X187570715Y-82104483D01*
X187568844Y-82088922D01*
X187558913Y-82054709D01*
X187542653Y-82006355D01*
X187521795Y-81948371D01*
X187498073Y-81885270D01*
X187473216Y-81821563D01*
X187448958Y-81761761D01*
X187427029Y-81710376D01*
X187409162Y-81671919D01*
X187397087Y-81650902D01*
X187396229Y-81649894D01*
X187388846Y-81643888D01*
X187376375Y-81637948D01*
X187356080Y-81631460D01*
X187325222Y-81623809D01*
X187281066Y-81614380D01*
X187220874Y-81602559D01*
X187141907Y-81587729D01*
X187041430Y-81569277D01*
X187019675Y-81565310D01*
X186955198Y-81552853D01*
X186898989Y-81540666D01*
X186856013Y-81529926D01*
X186831240Y-81521809D01*
X186827918Y-81519916D01*
X186822444Y-81503138D01*
X186817994Y-81465645D01*
X186814572Y-81411794D01*
X186812181Y-81345944D01*
X186810823Y-81272453D01*
X186810501Y-81195680D01*
X186811219Y-81119983D01*
X186812979Y-81049720D01*
X186815784Y-80989250D01*
X186819638Y-80942930D01*
X186824543Y-80915119D01*
X186827500Y-80909427D01*
X186843963Y-80903686D01*
X186881449Y-80894345D01*
X186936225Y-80882215D01*
X187004555Y-80868107D01*
X187082706Y-80852830D01*
X187125284Y-80844823D01*
X187206071Y-80829721D01*
X187278113Y-80816040D01*
X187337889Y-80804467D01*
X187381879Y-80795687D01*
X187406561Y-80790387D01*
X187410623Y-80789212D01*
X187417489Y-80775965D01*
X187432002Y-80744057D01*
X187452229Y-80698047D01*
X187476234Y-80642492D01*
X187502082Y-80581953D01*
X187527840Y-80520986D01*
X187551573Y-80464151D01*
X187571346Y-80416006D01*
X187585224Y-80381110D01*
X187591274Y-80364021D01*
X187591386Y-80363274D01*
X187584528Y-80349793D01*
X187565302Y-80318770D01*
X187535728Y-80273289D01*
X187497827Y-80216432D01*
X187453620Y-80151283D01*
X187427921Y-80113862D01*
X187381093Y-80045247D01*
X187339501Y-79982952D01*
X187305175Y-79930129D01*
X187280143Y-79889927D01*
X187266435Y-79865500D01*
X187264456Y-79860024D01*
X187272966Y-79847278D01*
X187296493Y-79820063D01*
X187332032Y-79781428D01*
X187376577Y-79734423D01*
X187427123Y-79682095D01*
X187480664Y-79627495D01*
X187534195Y-79573670D01*
X187584711Y-79523670D01*
X187629206Y-79480543D01*
X187664675Y-79447339D01*
X187688113Y-79427106D01*
X187695954Y-79422278D01*
X187708720Y-79429067D01*
X187739256Y-79448142D01*
X187784590Y-79477561D01*
X187841756Y-79515381D01*
X187907784Y-79559661D01*
X187957590Y-79593395D01*
X188209236Y-79764512D01*
X188418999Y-79678041D01*
X188628763Y-79591570D01*
X188685611Y-79290018D01*
X188742460Y-78988466D01*
X189370115Y-78988466D01*
X189426964Y-79290018D01*
X189426964Y-79290018D01*
G37*
X189426964Y-79290018D02*
X189483812Y-79591570D01*
X189903338Y-79764512D01*
X190154984Y-79593395D01*
X190225458Y-79545750D01*
X190289163Y-79503210D01*
X190343126Y-79467715D01*
X190384373Y-79441210D01*
X190409934Y-79425636D01*
X190416895Y-79422278D01*
X190429435Y-79430914D01*
X190456231Y-79454792D01*
X190494280Y-79490859D01*
X190540579Y-79536067D01*
X190592123Y-79587364D01*
X190645909Y-79641701D01*
X190698935Y-79696028D01*
X190748195Y-79747295D01*
X190790687Y-79792451D01*
X190823407Y-79828446D01*
X190843351Y-79852230D01*
X190848119Y-79860190D01*
X190841257Y-79874865D01*
X190822020Y-79907014D01*
X190792430Y-79953492D01*
X190754510Y-80011156D01*
X190710282Y-80076860D01*
X190684654Y-80114336D01*
X190637941Y-80182768D01*
X190596432Y-80244520D01*
X190562140Y-80296519D01*
X190537080Y-80335692D01*
X190523264Y-80358965D01*
X190521188Y-80363855D01*
X190525895Y-80377755D01*
X190538723Y-80410150D01*
X190557738Y-80456485D01*
X190581003Y-80512206D01*
X190606584Y-80572758D01*
X190632545Y-80633586D01*
X190656950Y-80690136D01*
X190677863Y-80737852D01*
X190693349Y-80772181D01*
X190701472Y-80788568D01*
X190701952Y-80789212D01*
X190714707Y-80792341D01*
X190748677Y-80799321D01*
X190800340Y-80809467D01*
X190866176Y-80822092D01*
X190942664Y-80836509D01*
X190987290Y-80844823D01*
X191069021Y-80860384D01*
X191142843Y-80875192D01*
X191205021Y-80888436D01*
X191251822Y-80899305D01*
X191279509Y-80906989D01*
X191285074Y-80909427D01*
X191290526Y-80925930D01*
X191294924Y-80963200D01*
X191298272Y-81016880D01*
X191300574Y-81082612D01*
X191301832Y-81156037D01*
X191302048Y-81232796D01*
X191301227Y-81308532D01*
X191299371Y-81378886D01*
X191296482Y-81439500D01*
X191292565Y-81486016D01*
X191287622Y-81514075D01*
X191284657Y-81519916D01*
X191266934Y-81526917D01*
X191229381Y-81536927D01*
X191176964Y-81548769D01*
X191114652Y-81561267D01*
X191092900Y-81565310D01*
X190988024Y-81584520D01*
X190905180Y-81599991D01*
X190841630Y-81612337D01*
X190794637Y-81622173D01*
X190761463Y-81630114D01*
X190739371Y-81636776D01*
X190725624Y-81642773D01*
X190717484Y-81648719D01*
X190716345Y-81649894D01*
X190704977Y-81668826D01*
X190687635Y-81705669D01*
X190666050Y-81755913D01*
X190641954Y-81815046D01*
X190617079Y-81878556D01*
X190593157Y-81941932D01*
X190571919Y-82000662D01*
X190555097Y-82050235D01*
X190544422Y-82086139D01*
X190541627Y-82103862D01*
X190541860Y-82104483D01*
X190551331Y-82118970D01*
X190572818Y-82150844D01*
X190604063Y-82196789D01*
X190642807Y-82253485D01*
X190686793Y-82317617D01*
X190699319Y-82335842D01*
X190743984Y-82401914D01*
X190783288Y-82462200D01*
X190815088Y-82513235D01*
X190837245Y-82551560D01*
X190847617Y-82573711D01*
X190848119Y-82576432D01*
X190839405Y-82590736D01*
X190815325Y-82619072D01*
X190778976Y-82658396D01*
X190733453Y-82705661D01*
X190681852Y-82757823D01*
X190627267Y-82811835D01*
X190572794Y-82864653D01*
X190521529Y-82913231D01*
X190476567Y-82954523D01*
X190441004Y-82985485D01*
X190417935Y-83003070D01*
X190411554Y-83005941D01*
X190396699Y-82999178D01*
X190366286Y-82980939D01*
X190325268Y-82954297D01*
X190293709Y-82932852D01*
X190236525Y-82893503D01*
X190168806Y-82847171D01*
X190100880Y-82800913D01*
X190064361Y-82776155D01*
X189940752Y-82692547D01*
X189836991Y-82748650D01*
X189789720Y-82773228D01*
X189749523Y-82792331D01*
X189722326Y-82803227D01*
X189715402Y-82804743D01*
X189707077Y-82793549D01*
X189690654Y-82761917D01*
X189667357Y-82712765D01*
X189638414Y-82649010D01*
X189605050Y-82573571D01*
X189568491Y-82489364D01*
X189529964Y-82399308D01*
X189490694Y-82306321D01*
X189451908Y-82213320D01*
X189414830Y-82123223D01*
X189380689Y-82038948D01*
X189350708Y-81963413D01*
X189326116Y-81899534D01*
X189308136Y-81850231D01*
X189297997Y-81818421D01*
X189296366Y-81807496D01*
X189309291Y-81793561D01*
X189337589Y-81770940D01*
X189375346Y-81744333D01*
X189378515Y-81742228D01*
X189476100Y-81664114D01*
X189554786Y-81572982D01*
X189613891Y-81471745D01*
X189652732Y-81363318D01*
X189670628Y-81250614D01*
X189666897Y-81136548D01*
X189640857Y-81024034D01*
X189591825Y-80915985D01*
X189577400Y-80892345D01*
X189502369Y-80796887D01*
X189413730Y-80720232D01*
X189314549Y-80662780D01*
X189207895Y-80624929D01*
X189096836Y-80607078D01*
X188984439Y-80609625D01*
X188873773Y-80632970D01*
X188767906Y-80677510D01*
X188669905Y-80743645D01*
X188639590Y-80770487D01*
X188562438Y-80854512D01*
X188506218Y-80942966D01*
X188467653Y-81042115D01*
X188446174Y-81140303D01*
X188440872Y-81250697D01*
X188458552Y-81361640D01*
X188497419Y-81469381D01*
X188555677Y-81570169D01*
X188631531Y-81660256D01*
X188723183Y-81735892D01*
X188735228Y-81743864D01*
X188773389Y-81769974D01*
X188802399Y-81792595D01*
X188816268Y-81807039D01*
X188816469Y-81807496D01*
X188813492Y-81823121D01*
X188801689Y-81858582D01*
X188782286Y-81910962D01*
X188756512Y-81977345D01*
X188725591Y-82054814D01*
X188690751Y-82140450D01*
X188653217Y-82231337D01*
X188614217Y-82324559D01*
X188574977Y-82417197D01*
X188536724Y-82506335D01*
X188500683Y-82589055D01*
X188468083Y-82662441D01*
X188440148Y-82723575D01*
X188418105Y-82769541D01*
X188403182Y-82797421D01*
X188397172Y-82804743D01*
X188378809Y-82799041D01*
X188344448Y-82783749D01*
X188300016Y-82761599D01*
X188275583Y-82748650D01*
X188171822Y-82692547D01*
X188048213Y-82776155D01*
X187985114Y-82818987D01*
X187916030Y-82866122D01*
X187851293Y-82910503D01*
X187818866Y-82932852D01*
X187773259Y-82963477D01*
X187734640Y-82987747D01*
X187708048Y-83002587D01*
X187699410Y-83005724D01*
X187686839Y-82997261D01*
X187659016Y-82973636D01*
X187618639Y-82937302D01*
X187568405Y-82890711D01*
X187511012Y-82836317D01*
X187474714Y-82801392D01*
X187411210Y-82738996D01*
X187356327Y-82683188D01*
X187312286Y-82636354D01*
X187281305Y-82600882D01*
X187265602Y-82579161D01*
X187264095Y-82574752D01*
X187271086Y-82557985D01*
X187290406Y-82524082D01*
X187319909Y-82476476D01*
X187357455Y-82418599D01*
X187400900Y-82353884D01*
X187413255Y-82335842D01*
X187458273Y-82270267D01*
X187498660Y-82211228D01*
X187532160Y-82162042D01*
X187556514Y-82126028D01*
X187569464Y-82106502D01*
X187570715Y-82104483D01*
X187568844Y-82088922D01*
X187558913Y-82054709D01*
X187542653Y-82006355D01*
X187521795Y-81948371D01*
X187498073Y-81885270D01*
X187473216Y-81821563D01*
X187448958Y-81761761D01*
X187427029Y-81710376D01*
X187409162Y-81671919D01*
X187397087Y-81650902D01*
X187396229Y-81649894D01*
X187388846Y-81643888D01*
X187376375Y-81637948D01*
X187356080Y-81631460D01*
X187325222Y-81623809D01*
X187281066Y-81614380D01*
X187220874Y-81602559D01*
X187141907Y-81587729D01*
X187041430Y-81569277D01*
X187019675Y-81565310D01*
X186955198Y-81552853D01*
X186898989Y-81540666D01*
X186856013Y-81529926D01*
X186831240Y-81521809D01*
X186827918Y-81519916D01*
X186822444Y-81503138D01*
X186817994Y-81465645D01*
X186814572Y-81411794D01*
X186812181Y-81345944D01*
X186810823Y-81272453D01*
X186810501Y-81195680D01*
X186811219Y-81119983D01*
X186812979Y-81049720D01*
X186815784Y-80989250D01*
X186819638Y-80942930D01*
X186824543Y-80915119D01*
X186827500Y-80909427D01*
X186843963Y-80903686D01*
X186881449Y-80894345D01*
X186936225Y-80882215D01*
X187004555Y-80868107D01*
X187082706Y-80852830D01*
X187125284Y-80844823D01*
X187206071Y-80829721D01*
X187278113Y-80816040D01*
X187337889Y-80804467D01*
X187381879Y-80795687D01*
X187406561Y-80790387D01*
X187410623Y-80789212D01*
X187417489Y-80775965D01*
X187432002Y-80744057D01*
X187452229Y-80698047D01*
X187476234Y-80642492D01*
X187502082Y-80581953D01*
X187527840Y-80520986D01*
X187551573Y-80464151D01*
X187571346Y-80416006D01*
X187585224Y-80381110D01*
X187591274Y-80364021D01*
X187591386Y-80363274D01*
X187584528Y-80349793D01*
X187565302Y-80318770D01*
X187535728Y-80273289D01*
X187497827Y-80216432D01*
X187453620Y-80151283D01*
X187427921Y-80113862D01*
X187381093Y-80045247D01*
X187339501Y-79982952D01*
X187305175Y-79930129D01*
X187280143Y-79889927D01*
X187266435Y-79865500D01*
X187264456Y-79860024D01*
X187272966Y-79847278D01*
X187296493Y-79820063D01*
X187332032Y-79781428D01*
X187376577Y-79734423D01*
X187427123Y-79682095D01*
X187480664Y-79627495D01*
X187534195Y-79573670D01*
X187584711Y-79523670D01*
X187629206Y-79480543D01*
X187664675Y-79447339D01*
X187688113Y-79427106D01*
X187695954Y-79422278D01*
X187708720Y-79429067D01*
X187739256Y-79448142D01*
X187784590Y-79477561D01*
X187841756Y-79515381D01*
X187907784Y-79559661D01*
X187957590Y-79593395D01*
X188209236Y-79764512D01*
X188418999Y-79678041D01*
X188628763Y-79591570D01*
X188685611Y-79290018D01*
X188742460Y-78988466D01*
X189370115Y-78988466D01*
X189426964Y-79290018D01*
G36*
X190849460Y-83458030D02*
G01*
X190892711Y-83471245D01*
X190920558Y-83487941D01*
X190929629Y-83501145D01*
X190927132Y-83516797D01*
X190910931Y-83541385D01*
X190897232Y-83558800D01*
X190868992Y-83590283D01*
X190847775Y-83603529D01*
X190829688Y-83602664D01*
X190776035Y-83589010D01*
X190736630Y-83589630D01*
X190704632Y-83605104D01*
X190693890Y-83614161D01*
X190659505Y-83646027D01*
X190659505Y-84062179D01*
X190521188Y-84062179D01*
X190521188Y-83458614D01*
X190590347Y-83458614D01*
X190631869Y-83460256D01*
X190653291Y-83466087D01*
X190659502Y-83477461D01*
X190659505Y-83477798D01*
X190662439Y-83489713D01*
X190675704Y-83488159D01*
X190694084Y-83479563D01*
X190732046Y-83463568D01*
X190762872Y-83453945D01*
X190802536Y-83451478D01*
X190849460Y-83458030D01*
X190849460Y-83458030D01*
G37*
X190849460Y-83458030D02*
X190892711Y-83471245D01*
X190920558Y-83487941D01*
X190929629Y-83501145D01*
X190927132Y-83516797D01*
X190910931Y-83541385D01*
X190897232Y-83558800D01*
X190868992Y-83590283D01*
X190847775Y-83603529D01*
X190829688Y-83602664D01*
X190776035Y-83589010D01*
X190736630Y-83589630D01*
X190704632Y-83605104D01*
X190693890Y-83614161D01*
X190659505Y-83646027D01*
X190659505Y-84062179D01*
X190521188Y-84062179D01*
X190521188Y-83458614D01*
X190590347Y-83458614D01*
X190631869Y-83460256D01*
X190653291Y-83466087D01*
X190659502Y-83477461D01*
X190659505Y-83477798D01*
X190662439Y-83489713D01*
X190675704Y-83488159D01*
X190694084Y-83479563D01*
X190732046Y-83463568D01*
X190762872Y-83453945D01*
X190802536Y-83451478D01*
X190849460Y-83458030D01*
G36*
X188295988Y-83469002D02*
G01*
X188327283Y-83483950D01*
X188357591Y-83505541D01*
X188380682Y-83530391D01*
X188397500Y-83562087D01*
X188408994Y-83604214D01*
X188416109Y-83660358D01*
X188419793Y-83734106D01*
X188420992Y-83829044D01*
X188421011Y-83838985D01*
X188421287Y-84062179D01*
X188282970Y-84062179D01*
X188282970Y-83856418D01*
X188282872Y-83780189D01*
X188282191Y-83724939D01*
X188280349Y-83686501D01*
X188276767Y-83660706D01*
X188270868Y-83643384D01*
X188262073Y-83630368D01*
X188249820Y-83617507D01*
X188206953Y-83589873D01*
X188160157Y-83584745D01*
X188115576Y-83602217D01*
X188100072Y-83615221D01*
X188088690Y-83627447D01*
X188080519Y-83640540D01*
X188075026Y-83658615D01*
X188071680Y-83685787D01*
X188069949Y-83726170D01*
X188069303Y-83783879D01*
X188069208Y-83854132D01*
X188069208Y-84062179D01*
X187930891Y-84062179D01*
X187930891Y-83458614D01*
X188000050Y-83458614D01*
X188041572Y-83460256D01*
X188062994Y-83466087D01*
X188069205Y-83477461D01*
X188069208Y-83477798D01*
X188072090Y-83488938D01*
X188084801Y-83487674D01*
X188110074Y-83475434D01*
X188167395Y-83457424D01*
X188232963Y-83455421D01*
X188295988Y-83469002D01*
X188295988Y-83469002D01*
G37*
X188295988Y-83469002D02*
X188327283Y-83483950D01*
X188357591Y-83505541D01*
X188380682Y-83530391D01*
X188397500Y-83562087D01*
X188408994Y-83604214D01*
X188416109Y-83660358D01*
X188419793Y-83734106D01*
X188420992Y-83829044D01*
X188421011Y-83838985D01*
X188421287Y-84062179D01*
X188282970Y-84062179D01*
X188282970Y-83856418D01*
X188282872Y-83780189D01*
X188282191Y-83724939D01*
X188280349Y-83686501D01*
X188276767Y-83660706D01*
X188270868Y-83643384D01*
X188262073Y-83630368D01*
X188249820Y-83617507D01*
X188206953Y-83589873D01*
X188160157Y-83584745D01*
X188115576Y-83602217D01*
X188100072Y-83615221D01*
X188088690Y-83627447D01*
X188080519Y-83640540D01*
X188075026Y-83658615D01*
X188071680Y-83685787D01*
X188069949Y-83726170D01*
X188069303Y-83783879D01*
X188069208Y-83854132D01*
X188069208Y-84062179D01*
X187930891Y-84062179D01*
X187930891Y-83458614D01*
X188000050Y-83458614D01*
X188041572Y-83460256D01*
X188062994Y-83466087D01*
X188069205Y-83477461D01*
X188069208Y-83477798D01*
X188072090Y-83488938D01*
X188084801Y-83487674D01*
X188110074Y-83475434D01*
X188167395Y-83457424D01*
X188232963Y-83455421D01*
X188295988Y-83469002D01*
G36*
X191727898Y-83456457D02*
G01*
X191760096Y-83464279D01*
X191821825Y-83492921D01*
X191874610Y-83536667D01*
X191911141Y-83589117D01*
X191916160Y-83600893D01*
X191923045Y-83631740D01*
X191927864Y-83677371D01*
X191929505Y-83723492D01*
X191929505Y-83810693D01*
X191747178Y-83810693D01*
X191671979Y-83810978D01*
X191619003Y-83812704D01*
X191585325Y-83817181D01*
X191568020Y-83825720D01*
X191564163Y-83839630D01*
X191570829Y-83860222D01*
X191582770Y-83884315D01*
X191616080Y-83924525D01*
X191662368Y-83944558D01*
X191718944Y-83943905D01*
X191783031Y-83922101D01*
X191838417Y-83895193D01*
X191884375Y-83931532D01*
X191930333Y-83967872D01*
X191887096Y-84007819D01*
X191829374Y-84045563D01*
X191758386Y-84068320D01*
X191682029Y-84074688D01*
X191608199Y-84063268D01*
X191596287Y-84059393D01*
X191531399Y-84025506D01*
X191483130Y-83974986D01*
X191450465Y-83906325D01*
X191432385Y-83818014D01*
X191432175Y-83816121D01*
X191430556Y-83719878D01*
X191437100Y-83685542D01*
X191564852Y-83685542D01*
X191576584Y-83690822D01*
X191608438Y-83694867D01*
X191655397Y-83697176D01*
X191685154Y-83697525D01*
X191740648Y-83697306D01*
X191775346Y-83695916D01*
X191793601Y-83692251D01*
X191799766Y-83685210D01*
X191798195Y-83673690D01*
X191796878Y-83669233D01*
X191774382Y-83627355D01*
X191739003Y-83593604D01*
X191707780Y-83578773D01*
X191666301Y-83579668D01*
X191624269Y-83598164D01*
X191589012Y-83628786D01*
X191567854Y-83666062D01*
X191564852Y-83685542D01*
X191437100Y-83685542D01*
X191446690Y-83635229D01*
X191478698Y-83564191D01*
X191524701Y-83508779D01*
X191582821Y-83471009D01*
X191651180Y-83452896D01*
X191727898Y-83456457D01*
X191727898Y-83456457D01*
G37*
X191727898Y-83456457D02*
X191760096Y-83464279D01*
X191821825Y-83492921D01*
X191874610Y-83536667D01*
X191911141Y-83589117D01*
X191916160Y-83600893D01*
X191923045Y-83631740D01*
X191927864Y-83677371D01*
X191929505Y-83723492D01*
X191929505Y-83810693D01*
X191747178Y-83810693D01*
X191671979Y-83810978D01*
X191619003Y-83812704D01*
X191585325Y-83817181D01*
X191568020Y-83825720D01*
X191564163Y-83839630D01*
X191570829Y-83860222D01*
X191582770Y-83884315D01*
X191616080Y-83924525D01*
X191662368Y-83944558D01*
X191718944Y-83943905D01*
X191783031Y-83922101D01*
X191838417Y-83895193D01*
X191884375Y-83931532D01*
X191930333Y-83967872D01*
X191887096Y-84007819D01*
X191829374Y-84045563D01*
X191758386Y-84068320D01*
X191682029Y-84074688D01*
X191608199Y-84063268D01*
X191596287Y-84059393D01*
X191531399Y-84025506D01*
X191483130Y-83974986D01*
X191450465Y-83906325D01*
X191432385Y-83818014D01*
X191432175Y-83816121D01*
X191430556Y-83719878D01*
X191437100Y-83685542D01*
X191564852Y-83685542D01*
X191576584Y-83690822D01*
X191608438Y-83694867D01*
X191655397Y-83697176D01*
X191685154Y-83697525D01*
X191740648Y-83697306D01*
X191775346Y-83695916D01*
X191793601Y-83692251D01*
X191799766Y-83685210D01*
X191798195Y-83673690D01*
X191796878Y-83669233D01*
X191774382Y-83627355D01*
X191739003Y-83593604D01*
X191707780Y-83578773D01*
X191666301Y-83579668D01*
X191624269Y-83598164D01*
X191589012Y-83628786D01*
X191567854Y-83666062D01*
X191564852Y-83685542D01*
X191437100Y-83685542D01*
X191446690Y-83635229D01*
X191478698Y-83564191D01*
X191524701Y-83508779D01*
X191582821Y-83471009D01*
X191651180Y-83452896D01*
X191727898Y-83456457D01*
G36*
X191267226Y-83463880D02*
G01*
X191340080Y-83494830D01*
X191363027Y-83509895D01*
X191392354Y-83533048D01*
X191410764Y-83551253D01*
X191413961Y-83557183D01*
X191404935Y-83570340D01*
X191381837Y-83592667D01*
X191363344Y-83608250D01*
X191312728Y-83648926D01*
X191272760Y-83615295D01*
X191241874Y-83593584D01*
X191211759Y-83586090D01*
X191177292Y-83587920D01*
X191122561Y-83601528D01*
X191084886Y-83629772D01*
X191061991Y-83675433D01*
X191051597Y-83741289D01*
X191051595Y-83741331D01*
X191052494Y-83814939D01*
X191066463Y-83868946D01*
X191094328Y-83905716D01*
X191113325Y-83918168D01*
X191163776Y-83933673D01*
X191217663Y-83933683D01*
X191264546Y-83918638D01*
X191275644Y-83911287D01*
X191303476Y-83892511D01*
X191325236Y-83889434D01*
X191348704Y-83903409D01*
X191374649Y-83928510D01*
X191415716Y-83970880D01*
X191370121Y-84008464D01*
X191299674Y-84050882D01*
X191220233Y-84071785D01*
X191137215Y-84070272D01*
X191082694Y-84056411D01*
X191018970Y-84022135D01*
X190968005Y-83968212D01*
X190944851Y-83930149D01*
X190926099Y-83875536D01*
X190916715Y-83806369D01*
X190916643Y-83731407D01*
X190925824Y-83659409D01*
X190944199Y-83599137D01*
X190947093Y-83592958D01*
X190989952Y-83532351D01*
X191047979Y-83488224D01*
X191116591Y-83461493D01*
X191191201Y-83453073D01*
X191267226Y-83463880D01*
X191267226Y-83463880D01*
G37*
X191267226Y-83463880D02*
X191340080Y-83494830D01*
X191363027Y-83509895D01*
X191392354Y-83533048D01*
X191410764Y-83551253D01*
X191413961Y-83557183D01*
X191404935Y-83570340D01*
X191381837Y-83592667D01*
X191363344Y-83608250D01*
X191312728Y-83648926D01*
X191272760Y-83615295D01*
X191241874Y-83593584D01*
X191211759Y-83586090D01*
X191177292Y-83587920D01*
X191122561Y-83601528D01*
X191084886Y-83629772D01*
X191061991Y-83675433D01*
X191051597Y-83741289D01*
X191051595Y-83741331D01*
X191052494Y-83814939D01*
X191066463Y-83868946D01*
X191094328Y-83905716D01*
X191113325Y-83918168D01*
X191163776Y-83933673D01*
X191217663Y-83933683D01*
X191264546Y-83918638D01*
X191275644Y-83911287D01*
X191303476Y-83892511D01*
X191325236Y-83889434D01*
X191348704Y-83903409D01*
X191374649Y-83928510D01*
X191415716Y-83970880D01*
X191370121Y-84008464D01*
X191299674Y-84050882D01*
X191220233Y-84071785D01*
X191137215Y-84070272D01*
X191082694Y-84056411D01*
X191018970Y-84022135D01*
X190968005Y-83968212D01*
X190944851Y-83930149D01*
X190926099Y-83875536D01*
X190916715Y-83806369D01*
X190916643Y-83731407D01*
X190925824Y-83659409D01*
X190944199Y-83599137D01*
X190947093Y-83592958D01*
X190989952Y-83532351D01*
X191047979Y-83488224D01*
X191116591Y-83461493D01*
X191191201Y-83453073D01*
X191267226Y-83463880D01*
G36*
X190043367Y-83654342D02*
G01*
X190044555Y-83746563D01*
X190048897Y-83816610D01*
X190057558Y-83867381D01*
X190071704Y-83901772D01*
X190092500Y-83922679D01*
X190121110Y-83933000D01*
X190156535Y-83935636D01*
X190193636Y-83932682D01*
X190221818Y-83921889D01*
X190242243Y-83900360D01*
X190256079Y-83865199D01*
X190264491Y-83813510D01*
X190268643Y-83742394D01*
X190269703Y-83654342D01*
X190269703Y-83458614D01*
X190408020Y-83458614D01*
X190408020Y-84062179D01*
X190338862Y-84062179D01*
X190297170Y-84060489D01*
X190275701Y-84054556D01*
X190269703Y-84043293D01*
X190266091Y-84033261D01*
X190251714Y-84035383D01*
X190222736Y-84049580D01*
X190156319Y-84071480D01*
X190085875Y-84069928D01*
X190018377Y-84046147D01*
X189986233Y-84027362D01*
X189961715Y-84007022D01*
X189943804Y-83981573D01*
X189931479Y-83947458D01*
X189923723Y-83901121D01*
X189919516Y-83839007D01*
X189917840Y-83757561D01*
X189917624Y-83694578D01*
X189917624Y-83458614D01*
X190043367Y-83458614D01*
X190043367Y-83654342D01*
X190043367Y-83654342D01*
G37*
X190043367Y-83654342D02*
X190044555Y-83746563D01*
X190048897Y-83816610D01*
X190057558Y-83867381D01*
X190071704Y-83901772D01*
X190092500Y-83922679D01*
X190121110Y-83933000D01*
X190156535Y-83935636D01*
X190193636Y-83932682D01*
X190221818Y-83921889D01*
X190242243Y-83900360D01*
X190256079Y-83865199D01*
X190264491Y-83813510D01*
X190268643Y-83742394D01*
X190269703Y-83654342D01*
X190269703Y-83458614D01*
X190408020Y-83458614D01*
X190408020Y-84062179D01*
X190338862Y-84062179D01*
X190297170Y-84060489D01*
X190275701Y-84054556D01*
X190269703Y-84043293D01*
X190266091Y-84033261D01*
X190251714Y-84035383D01*
X190222736Y-84049580D01*
X190156319Y-84071480D01*
X190085875Y-84069928D01*
X190018377Y-84046147D01*
X189986233Y-84027362D01*
X189961715Y-84007022D01*
X189943804Y-83981573D01*
X189931479Y-83947458D01*
X189923723Y-83901121D01*
X189919516Y-83839007D01*
X189917840Y-83757561D01*
X189917624Y-83694578D01*
X189917624Y-83458614D01*
X190043367Y-83458614D01*
X190043367Y-83654342D01*
G36*
X189660762Y-83466055D02*
G01*
X189724363Y-83500692D01*
X189774123Y-83555372D01*
X189797568Y-83599842D01*
X189807634Y-83639121D01*
X189814156Y-83695116D01*
X189816951Y-83759621D01*
X189815836Y-83824429D01*
X189810626Y-83881334D01*
X189804541Y-83911727D01*
X189784014Y-83953306D01*
X189748463Y-83997468D01*
X189705619Y-84036087D01*
X189663211Y-84061034D01*
X189662177Y-84061430D01*
X189609553Y-84072331D01*
X189547188Y-84072601D01*
X189487924Y-84062676D01*
X189465040Y-84054722D01*
X189406102Y-84021300D01*
X189363890Y-83977511D01*
X189336156Y-83919538D01*
X189320651Y-83843565D01*
X189317143Y-83803771D01*
X189317590Y-83753766D01*
X189452376Y-83753766D01*
X189456917Y-83826732D01*
X189469986Y-83882334D01*
X189490756Y-83917861D01*
X189505552Y-83928020D01*
X189543464Y-83935104D01*
X189588527Y-83933007D01*
X189627487Y-83922812D01*
X189637704Y-83917204D01*
X189664659Y-83884538D01*
X189682451Y-83834545D01*
X189690024Y-83773705D01*
X189686325Y-83708497D01*
X189678057Y-83669253D01*
X189654320Y-83623805D01*
X189616849Y-83595396D01*
X189571720Y-83585573D01*
X189525011Y-83595887D01*
X189489132Y-83621112D01*
X189470277Y-83641925D01*
X189459272Y-83662439D01*
X189454026Y-83690203D01*
X189452449Y-83732762D01*
X189452376Y-83753766D01*
X189317590Y-83753766D01*
X189318094Y-83697580D01*
X189335388Y-83610501D01*
X189369029Y-83542530D01*
X189419018Y-83493664D01*
X189485356Y-83463899D01*
X189499601Y-83460448D01*
X189585210Y-83452345D01*
X189660762Y-83466055D01*
X189660762Y-83466055D01*
G37*
X189660762Y-83466055D02*
X189724363Y-83500692D01*
X189774123Y-83555372D01*
X189797568Y-83599842D01*
X189807634Y-83639121D01*
X189814156Y-83695116D01*
X189816951Y-83759621D01*
X189815836Y-83824429D01*
X189810626Y-83881334D01*
X189804541Y-83911727D01*
X189784014Y-83953306D01*
X189748463Y-83997468D01*
X189705619Y-84036087D01*
X189663211Y-84061034D01*
X189662177Y-84061430D01*
X189609553Y-84072331D01*
X189547188Y-84072601D01*
X189487924Y-84062676D01*
X189465040Y-84054722D01*
X189406102Y-84021300D01*
X189363890Y-83977511D01*
X189336156Y-83919538D01*
X189320651Y-83843565D01*
X189317143Y-83803771D01*
X189317590Y-83753766D01*
X189452376Y-83753766D01*
X189456917Y-83826732D01*
X189469986Y-83882334D01*
X189490756Y-83917861D01*
X189505552Y-83928020D01*
X189543464Y-83935104D01*
X189588527Y-83933007D01*
X189627487Y-83922812D01*
X189637704Y-83917204D01*
X189664659Y-83884538D01*
X189682451Y-83834545D01*
X189690024Y-83773705D01*
X189686325Y-83708497D01*
X189678057Y-83669253D01*
X189654320Y-83623805D01*
X189616849Y-83595396D01*
X189571720Y-83585573D01*
X189525011Y-83595887D01*
X189489132Y-83621112D01*
X189470277Y-83641925D01*
X189459272Y-83662439D01*
X189454026Y-83690203D01*
X189452449Y-83732762D01*
X189452376Y-83753766D01*
X189317590Y-83753766D01*
X189318094Y-83697580D01*
X189335388Y-83610501D01*
X189369029Y-83542530D01*
X189419018Y-83493664D01*
X189485356Y-83463899D01*
X189499601Y-83460448D01*
X189585210Y-83452345D01*
X189660762Y-83466055D01*
G36*
X189064017Y-83456452D02*
G01*
X189111634Y-83465482D01*
X189161034Y-83484370D01*
X189166312Y-83486777D01*
X189203774Y-83506476D01*
X189229717Y-83524781D01*
X189238103Y-83536508D01*
X189230117Y-83555632D01*
X189210720Y-83583850D01*
X189202110Y-83594384D01*
X189166628Y-83635847D01*
X189120885Y-83608858D01*
X189077350Y-83590878D01*
X189027050Y-83581267D01*
X188978812Y-83580660D01*
X188941467Y-83589691D01*
X188932505Y-83595327D01*
X188915437Y-83621171D01*
X188913363Y-83650941D01*
X188926134Y-83674197D01*
X188933688Y-83678708D01*
X188956325Y-83684309D01*
X188996115Y-83690892D01*
X189045166Y-83697183D01*
X189054215Y-83698170D01*
X189132996Y-83711798D01*
X189190136Y-83734946D01*
X189228030Y-83769752D01*
X189249079Y-83818354D01*
X189255635Y-83877718D01*
X189246577Y-83945198D01*
X189217164Y-83998188D01*
X189167278Y-84036783D01*
X189096800Y-84061081D01*
X189018565Y-84070667D01*
X188954766Y-84070552D01*
X188903016Y-84061845D01*
X188867673Y-84049825D01*
X188823017Y-84028880D01*
X188781747Y-84004574D01*
X188767079Y-83993876D01*
X188729357Y-83963084D01*
X188774852Y-83917049D01*
X188820347Y-83871013D01*
X188872072Y-83905243D01*
X188923952Y-83930952D01*
X188979351Y-83944399D01*
X189032605Y-83945818D01*
X189078049Y-83935443D01*
X189110016Y-83913507D01*
X189120338Y-83894998D01*
X189118789Y-83865314D01*
X189093140Y-83842615D01*
X189043460Y-83826940D01*
X188989031Y-83819695D01*
X188905264Y-83805873D01*
X188843033Y-83779796D01*
X188801507Y-83740699D01*
X188779853Y-83687820D01*
X188776853Y-83625126D01*
X188791671Y-83559642D01*
X188825454Y-83510144D01*
X188878505Y-83476408D01*
X188951126Y-83458207D01*
X189004928Y-83454639D01*
X189064017Y-83456452D01*
X189064017Y-83456452D01*
G37*
X189064017Y-83456452D02*
X189111634Y-83465482D01*
X189161034Y-83484370D01*
X189166312Y-83486777D01*
X189203774Y-83506476D01*
X189229717Y-83524781D01*
X189238103Y-83536508D01*
X189230117Y-83555632D01*
X189210720Y-83583850D01*
X189202110Y-83594384D01*
X189166628Y-83635847D01*
X189120885Y-83608858D01*
X189077350Y-83590878D01*
X189027050Y-83581267D01*
X188978812Y-83580660D01*
X188941467Y-83589691D01*
X188932505Y-83595327D01*
X188915437Y-83621171D01*
X188913363Y-83650941D01*
X188926134Y-83674197D01*
X188933688Y-83678708D01*
X188956325Y-83684309D01*
X188996115Y-83690892D01*
X189045166Y-83697183D01*
X189054215Y-83698170D01*
X189132996Y-83711798D01*
X189190136Y-83734946D01*
X189228030Y-83769752D01*
X189249079Y-83818354D01*
X189255635Y-83877718D01*
X189246577Y-83945198D01*
X189217164Y-83998188D01*
X189167278Y-84036783D01*
X189096800Y-84061081D01*
X189018565Y-84070667D01*
X188954766Y-84070552D01*
X188903016Y-84061845D01*
X188867673Y-84049825D01*
X188823017Y-84028880D01*
X188781747Y-84004574D01*
X188767079Y-83993876D01*
X188729357Y-83963084D01*
X188774852Y-83917049D01*
X188820347Y-83871013D01*
X188872072Y-83905243D01*
X188923952Y-83930952D01*
X188979351Y-83944399D01*
X189032605Y-83945818D01*
X189078049Y-83935443D01*
X189110016Y-83913507D01*
X189120338Y-83894998D01*
X189118789Y-83865314D01*
X189093140Y-83842615D01*
X189043460Y-83826940D01*
X188989031Y-83819695D01*
X188905264Y-83805873D01*
X188843033Y-83779796D01*
X188801507Y-83740699D01*
X188779853Y-83687820D01*
X188776853Y-83625126D01*
X188791671Y-83559642D01*
X188825454Y-83510144D01*
X188878505Y-83476408D01*
X188951126Y-83458207D01*
X189004928Y-83454639D01*
X189064017Y-83456452D01*
G36*
X187693301Y-83472614D02*
G01*
X187705832Y-83478514D01*
X187749201Y-83510283D01*
X187790210Y-83556646D01*
X187820832Y-83607696D01*
X187829541Y-83631166D01*
X187837488Y-83673091D01*
X187842226Y-83723757D01*
X187842801Y-83744679D01*
X187842871Y-83810693D01*
X187462917Y-83810693D01*
X187471017Y-83845273D01*
X187490896Y-83886170D01*
X187525653Y-83921514D01*
X187567002Y-83944282D01*
X187593351Y-83949010D01*
X187629084Y-83943273D01*
X187671718Y-83928882D01*
X187686201Y-83922262D01*
X187739760Y-83895513D01*
X187785467Y-83930376D01*
X187811842Y-83953955D01*
X187825876Y-83973417D01*
X187826586Y-83979129D01*
X187814049Y-83992973D01*
X187786572Y-84014012D01*
X187761634Y-84030425D01*
X187694336Y-84059930D01*
X187618890Y-84073284D01*
X187544112Y-84069812D01*
X187484505Y-84051663D01*
X187423059Y-84012784D01*
X187379392Y-83961595D01*
X187352074Y-83895367D01*
X187339678Y-83811371D01*
X187338579Y-83772936D01*
X187342978Y-83684861D01*
X187343518Y-83682299D01*
X187469418Y-83682299D01*
X187472885Y-83690558D01*
X187487137Y-83695113D01*
X187516530Y-83697065D01*
X187565425Y-83697517D01*
X187584252Y-83697525D01*
X187641533Y-83696843D01*
X187677859Y-83694364D01*
X187697396Y-83689443D01*
X187704310Y-83681434D01*
X187704555Y-83678862D01*
X187696664Y-83658423D01*
X187676915Y-83629789D01*
X187668425Y-83619763D01*
X187636906Y-83591408D01*
X187604051Y-83580259D01*
X187586349Y-83579327D01*
X187538461Y-83590981D01*
X187498301Y-83622285D01*
X187472827Y-83667752D01*
X187472375Y-83669233D01*
X187469418Y-83682299D01*
X187343518Y-83682299D01*
X187357608Y-83615510D01*
X187383962Y-83560025D01*
X187416193Y-83520639D01*
X187475783Y-83477931D01*
X187545832Y-83455109D01*
X187620339Y-83453046D01*
X187693301Y-83472614D01*
X187693301Y-83472614D01*
G37*
X187693301Y-83472614D02*
X187705832Y-83478514D01*
X187749201Y-83510283D01*
X187790210Y-83556646D01*
X187820832Y-83607696D01*
X187829541Y-83631166D01*
X187837488Y-83673091D01*
X187842226Y-83723757D01*
X187842801Y-83744679D01*
X187842871Y-83810693D01*
X187462917Y-83810693D01*
X187471017Y-83845273D01*
X187490896Y-83886170D01*
X187525653Y-83921514D01*
X187567002Y-83944282D01*
X187593351Y-83949010D01*
X187629084Y-83943273D01*
X187671718Y-83928882D01*
X187686201Y-83922262D01*
X187739760Y-83895513D01*
X187785467Y-83930376D01*
X187811842Y-83953955D01*
X187825876Y-83973417D01*
X187826586Y-83979129D01*
X187814049Y-83992973D01*
X187786572Y-84014012D01*
X187761634Y-84030425D01*
X187694336Y-84059930D01*
X187618890Y-84073284D01*
X187544112Y-84069812D01*
X187484505Y-84051663D01*
X187423059Y-84012784D01*
X187379392Y-83961595D01*
X187352074Y-83895367D01*
X187339678Y-83811371D01*
X187338579Y-83772936D01*
X187342978Y-83684861D01*
X187343518Y-83682299D01*
X187469418Y-83682299D01*
X187472885Y-83690558D01*
X187487137Y-83695113D01*
X187516530Y-83697065D01*
X187565425Y-83697517D01*
X187584252Y-83697525D01*
X187641533Y-83696843D01*
X187677859Y-83694364D01*
X187697396Y-83689443D01*
X187704310Y-83681434D01*
X187704555Y-83678862D01*
X187696664Y-83658423D01*
X187676915Y-83629789D01*
X187668425Y-83619763D01*
X187636906Y-83591408D01*
X187604051Y-83580259D01*
X187586349Y-83579327D01*
X187538461Y-83590981D01*
X187498301Y-83622285D01*
X187472827Y-83667752D01*
X187472375Y-83669233D01*
X187469418Y-83682299D01*
X187343518Y-83682299D01*
X187357608Y-83615510D01*
X187383962Y-83560025D01*
X187416193Y-83520639D01*
X187475783Y-83477931D01*
X187545832Y-83455109D01*
X187620339Y-83453046D01*
X187693301Y-83472614D01*
G36*
X186511739Y-83465148D02*
G01*
X186577521Y-83494231D01*
X186627460Y-83542793D01*
X186661626Y-83610908D01*
X186680093Y-83698651D01*
X186681417Y-83712351D01*
X186682454Y-83808939D01*
X186669007Y-83893602D01*
X186641892Y-83962221D01*
X186627373Y-83984294D01*
X186576799Y-84031011D01*
X186512391Y-84061268D01*
X186440334Y-84073824D01*
X186366815Y-84067439D01*
X186310928Y-84047772D01*
X186262868Y-84014629D01*
X186223588Y-83971175D01*
X186222908Y-83970158D01*
X186206956Y-83943338D01*
X186196590Y-83916368D01*
X186190312Y-83882332D01*
X186186627Y-83834310D01*
X186185003Y-83794931D01*
X186184328Y-83759219D01*
X186310045Y-83759219D01*
X186311274Y-83794770D01*
X186315734Y-83842094D01*
X186323603Y-83872465D01*
X186337793Y-83894072D01*
X186351083Y-83906694D01*
X186398198Y-83933122D01*
X186447495Y-83936653D01*
X186493407Y-83917639D01*
X186516362Y-83896331D01*
X186532904Y-83874859D01*
X186542579Y-83854313D01*
X186546826Y-83827574D01*
X186547080Y-83787523D01*
X186545772Y-83750638D01*
X186542957Y-83697947D01*
X186538495Y-83663772D01*
X186530452Y-83641480D01*
X186516897Y-83624442D01*
X186506155Y-83614703D01*
X186461223Y-83589123D01*
X186412751Y-83587847D01*
X186372106Y-83602999D01*
X186337433Y-83634642D01*
X186316776Y-83686620D01*
X186310045Y-83759219D01*
X186184328Y-83759219D01*
X186183521Y-83716621D01*
X186186052Y-83658056D01*
X186193638Y-83614007D01*
X186207319Y-83579248D01*
X186228135Y-83548551D01*
X186235853Y-83539436D01*
X186284111Y-83494021D01*
X186335872Y-83467493D01*
X186399172Y-83456379D01*
X186430039Y-83455471D01*
X186511739Y-83465148D01*
X186511739Y-83465148D01*
G37*
X186511739Y-83465148D02*
X186577521Y-83494231D01*
X186627460Y-83542793D01*
X186661626Y-83610908D01*
X186680093Y-83698651D01*
X186681417Y-83712351D01*
X186682454Y-83808939D01*
X186669007Y-83893602D01*
X186641892Y-83962221D01*
X186627373Y-83984294D01*
X186576799Y-84031011D01*
X186512391Y-84061268D01*
X186440334Y-84073824D01*
X186366815Y-84067439D01*
X186310928Y-84047772D01*
X186262868Y-84014629D01*
X186223588Y-83971175D01*
X186222908Y-83970158D01*
X186206956Y-83943338D01*
X186196590Y-83916368D01*
X186190312Y-83882332D01*
X186186627Y-83834310D01*
X186185003Y-83794931D01*
X186184328Y-83759219D01*
X186310045Y-83759219D01*
X186311274Y-83794770D01*
X186315734Y-83842094D01*
X186323603Y-83872465D01*
X186337793Y-83894072D01*
X186351083Y-83906694D01*
X186398198Y-83933122D01*
X186447495Y-83936653D01*
X186493407Y-83917639D01*
X186516362Y-83896331D01*
X186532904Y-83874859D01*
X186542579Y-83854313D01*
X186546826Y-83827574D01*
X186547080Y-83787523D01*
X186545772Y-83750638D01*
X186542957Y-83697947D01*
X186538495Y-83663772D01*
X186530452Y-83641480D01*
X186516897Y-83624442D01*
X186506155Y-83614703D01*
X186461223Y-83589123D01*
X186412751Y-83587847D01*
X186372106Y-83602999D01*
X186337433Y-83634642D01*
X186316776Y-83686620D01*
X186310045Y-83759219D01*
X186184328Y-83759219D01*
X186183521Y-83716621D01*
X186186052Y-83658056D01*
X186193638Y-83614007D01*
X186207319Y-83579248D01*
X186228135Y-83548551D01*
X186235853Y-83539436D01*
X186284111Y-83494021D01*
X186335872Y-83467493D01*
X186399172Y-83456379D01*
X186430039Y-83455471D01*
X186511739Y-83465148D01*
G36*
X191082581Y-84404970D02*
G01*
X191142685Y-84420597D01*
X191193021Y-84452848D01*
X191217393Y-84476940D01*
X191257345Y-84533895D01*
X191280242Y-84599965D01*
X191288108Y-84681182D01*
X191288148Y-84687748D01*
X191288218Y-84753763D01*
X190908264Y-84753763D01*
X190916363Y-84788342D01*
X190930987Y-84819659D01*
X190956581Y-84852291D01*
X190961935Y-84857500D01*
X191007943Y-84885694D01*
X191060410Y-84890475D01*
X191120803Y-84871926D01*
X191131040Y-84866931D01*
X191162439Y-84851745D01*
X191183470Y-84843094D01*
X191187139Y-84842293D01*
X191199948Y-84850063D01*
X191224378Y-84869072D01*
X191236779Y-84879460D01*
X191262476Y-84903321D01*
X191270915Y-84919077D01*
X191265058Y-84933571D01*
X191261928Y-84937534D01*
X191240725Y-84954879D01*
X191205738Y-84975959D01*
X191181337Y-84988265D01*
X191112072Y-85009946D01*
X191035388Y-85016971D01*
X190962765Y-85008647D01*
X190942426Y-85002686D01*
X190879476Y-84968952D01*
X190832815Y-84917045D01*
X190802173Y-84846459D01*
X190787282Y-84756692D01*
X190785647Y-84709753D01*
X190790421Y-84641413D01*
X190910990Y-84641413D01*
X190922652Y-84646465D01*
X190953998Y-84650429D01*
X190999571Y-84652768D01*
X191030446Y-84653169D01*
X191085981Y-84652783D01*
X191121033Y-84650975D01*
X191140262Y-84646773D01*
X191148330Y-84639203D01*
X191149901Y-84628218D01*
X191139121Y-84594381D01*
X191111980Y-84560940D01*
X191076277Y-84535272D01*
X191040560Y-84524772D01*
X190992048Y-84534086D01*
X190950053Y-84561013D01*
X190920936Y-84599827D01*
X190910990Y-84641413D01*
X190790421Y-84641413D01*
X190792599Y-84610236D01*
X190814055Y-84530949D01*
X190850470Y-84471263D01*
X190902297Y-84430549D01*
X190969990Y-84408179D01*
X191006662Y-84403871D01*
X191082581Y-84404970D01*
X191082581Y-84404970D01*
G37*
X191082581Y-84404970D02*
X191142685Y-84420597D01*
X191193021Y-84452848D01*
X191217393Y-84476940D01*
X191257345Y-84533895D01*
X191280242Y-84599965D01*
X191288108Y-84681182D01*
X191288148Y-84687748D01*
X191288218Y-84753763D01*
X190908264Y-84753763D01*
X190916363Y-84788342D01*
X190930987Y-84819659D01*
X190956581Y-84852291D01*
X190961935Y-84857500D01*
X191007943Y-84885694D01*
X191060410Y-84890475D01*
X191120803Y-84871926D01*
X191131040Y-84866931D01*
X191162439Y-84851745D01*
X191183470Y-84843094D01*
X191187139Y-84842293D01*
X191199948Y-84850063D01*
X191224378Y-84869072D01*
X191236779Y-84879460D01*
X191262476Y-84903321D01*
X191270915Y-84919077D01*
X191265058Y-84933571D01*
X191261928Y-84937534D01*
X191240725Y-84954879D01*
X191205738Y-84975959D01*
X191181337Y-84988265D01*
X191112072Y-85009946D01*
X191035388Y-85016971D01*
X190962765Y-85008647D01*
X190942426Y-85002686D01*
X190879476Y-84968952D01*
X190832815Y-84917045D01*
X190802173Y-84846459D01*
X190787282Y-84756692D01*
X190785647Y-84709753D01*
X190790421Y-84641413D01*
X190910990Y-84641413D01*
X190922652Y-84646465D01*
X190953998Y-84650429D01*
X190999571Y-84652768D01*
X191030446Y-84653169D01*
X191085981Y-84652783D01*
X191121033Y-84650975D01*
X191140262Y-84646773D01*
X191148330Y-84639203D01*
X191149901Y-84628218D01*
X191139121Y-84594381D01*
X191111980Y-84560940D01*
X191076277Y-84535272D01*
X191040560Y-84524772D01*
X190992048Y-84534086D01*
X190950053Y-84561013D01*
X190920936Y-84599827D01*
X190910990Y-84641413D01*
X190790421Y-84641413D01*
X190792599Y-84610236D01*
X190814055Y-84530949D01*
X190850470Y-84471263D01*
X190902297Y-84430549D01*
X190969990Y-84408179D01*
X191006662Y-84403871D01*
X191082581Y-84404970D01*
G36*
X190685255Y-84401486D02*
G01*
X190733595Y-84411015D01*
X190761114Y-84425125D01*
X190790064Y-84448568D01*
X190748876Y-84500571D01*
X190723482Y-84532064D01*
X190706238Y-84547428D01*
X190689102Y-84549776D01*
X190664027Y-84542217D01*
X190652257Y-84537941D01*
X190604270Y-84531631D01*
X190560324Y-84545156D01*
X190528060Y-84575710D01*
X190522819Y-84585452D01*
X190517112Y-84611258D01*
X190512706Y-84658817D01*
X190509811Y-84724758D01*
X190508631Y-84805710D01*
X190508614Y-84817226D01*
X190508614Y-85017822D01*
X190370297Y-85017822D01*
X190370297Y-84401683D01*
X190439456Y-84401683D01*
X190479333Y-84402725D01*
X190500107Y-84407358D01*
X190507789Y-84417849D01*
X190508614Y-84427745D01*
X190508614Y-84453806D01*
X190541745Y-84427745D01*
X190579735Y-84409965D01*
X190630770Y-84401174D01*
X190685255Y-84401486D01*
X190685255Y-84401486D01*
G37*
X190685255Y-84401486D02*
X190733595Y-84411015D01*
X190761114Y-84425125D01*
X190790064Y-84448568D01*
X190748876Y-84500571D01*
X190723482Y-84532064D01*
X190706238Y-84547428D01*
X190689102Y-84549776D01*
X190664027Y-84542217D01*
X190652257Y-84537941D01*
X190604270Y-84531631D01*
X190560324Y-84545156D01*
X190528060Y-84575710D01*
X190522819Y-84585452D01*
X190517112Y-84611258D01*
X190512706Y-84658817D01*
X190509811Y-84724758D01*
X190508631Y-84805710D01*
X190508614Y-84817226D01*
X190508614Y-85017822D01*
X190370297Y-85017822D01*
X190370297Y-84401683D01*
X190439456Y-84401683D01*
X190479333Y-84402725D01*
X190500107Y-84407358D01*
X190507789Y-84417849D01*
X190508614Y-84427745D01*
X190508614Y-84453806D01*
X190541745Y-84427745D01*
X190579735Y-84409965D01*
X190630770Y-84401174D01*
X190685255Y-84401486D01*
G36*
X190088411Y-84405417D02*
G01*
X190141411Y-84418290D01*
X190156731Y-84425110D01*
X190186428Y-84442974D01*
X190209220Y-84463093D01*
X190226083Y-84488962D01*
X190237998Y-84524073D01*
X190245942Y-84571920D01*
X190250894Y-84635996D01*
X190253831Y-84719794D01*
X190254947Y-84775768D01*
X190259052Y-85017822D01*
X190188932Y-85017822D01*
X190146393Y-85016038D01*
X190124476Y-85009942D01*
X190118812Y-84999706D01*
X190115821Y-84988637D01*
X190102451Y-84990754D01*
X190084233Y-84999629D01*
X190038624Y-85013233D01*
X189980007Y-85016899D01*
X189918354Y-85010903D01*
X189863638Y-84995521D01*
X189858730Y-84993386D01*
X189808723Y-84958255D01*
X189775756Y-84909419D01*
X189760587Y-84852333D01*
X189761746Y-84831824D01*
X189885508Y-84831824D01*
X189896413Y-84859425D01*
X189928745Y-84879204D01*
X189980910Y-84889819D01*
X190008787Y-84891228D01*
X190055247Y-84887620D01*
X190086129Y-84873597D01*
X190093664Y-84866931D01*
X190114076Y-84830666D01*
X190118812Y-84797773D01*
X190118812Y-84753763D01*
X190057513Y-84753763D01*
X189986256Y-84757395D01*
X189936276Y-84768818D01*
X189904696Y-84788824D01*
X189897626Y-84797743D01*
X189885508Y-84831824D01*
X189761746Y-84831824D01*
X189763971Y-84792456D01*
X189786663Y-84735244D01*
X189817624Y-84696580D01*
X189836376Y-84679864D01*
X189854733Y-84668878D01*
X189878619Y-84662180D01*
X189913957Y-84658326D01*
X189966669Y-84655873D01*
X189987577Y-84655168D01*
X190118812Y-84650879D01*
X190118620Y-84611158D01*
X190113537Y-84569405D01*
X190095162Y-84544158D01*
X190058039Y-84528030D01*
X190057043Y-84527742D01*
X190004410Y-84521400D01*
X189952906Y-84529684D01*
X189914630Y-84549827D01*
X189899272Y-84559773D01*
X189882730Y-84558397D01*
X189857275Y-84543987D01*
X189842328Y-84533817D01*
X189813091Y-84512088D01*
X189794980Y-84495800D01*
X189792074Y-84491137D01*
X189804040Y-84467005D01*
X189839396Y-84438185D01*
X189854753Y-84428461D01*
X189898901Y-84411714D01*
X189958398Y-84402227D01*
X190024487Y-84400095D01*
X190088411Y-84405417D01*
X190088411Y-84405417D01*
G37*
X190088411Y-84405417D02*
X190141411Y-84418290D01*
X190156731Y-84425110D01*
X190186428Y-84442974D01*
X190209220Y-84463093D01*
X190226083Y-84488962D01*
X190237998Y-84524073D01*
X190245942Y-84571920D01*
X190250894Y-84635996D01*
X190253831Y-84719794D01*
X190254947Y-84775768D01*
X190259052Y-85017822D01*
X190188932Y-85017822D01*
X190146393Y-85016038D01*
X190124476Y-85009942D01*
X190118812Y-84999706D01*
X190115821Y-84988637D01*
X190102451Y-84990754D01*
X190084233Y-84999629D01*
X190038624Y-85013233D01*
X189980007Y-85016899D01*
X189918354Y-85010903D01*
X189863638Y-84995521D01*
X189858730Y-84993386D01*
X189808723Y-84958255D01*
X189775756Y-84909419D01*
X189760587Y-84852333D01*
X189761746Y-84831824D01*
X189885508Y-84831824D01*
X189896413Y-84859425D01*
X189928745Y-84879204D01*
X189980910Y-84889819D01*
X190008787Y-84891228D01*
X190055247Y-84887620D01*
X190086129Y-84873597D01*
X190093664Y-84866931D01*
X190114076Y-84830666D01*
X190118812Y-84797773D01*
X190118812Y-84753763D01*
X190057513Y-84753763D01*
X189986256Y-84757395D01*
X189936276Y-84768818D01*
X189904696Y-84788824D01*
X189897626Y-84797743D01*
X189885508Y-84831824D01*
X189761746Y-84831824D01*
X189763971Y-84792456D01*
X189786663Y-84735244D01*
X189817624Y-84696580D01*
X189836376Y-84679864D01*
X189854733Y-84668878D01*
X189878619Y-84662180D01*
X189913957Y-84658326D01*
X189966669Y-84655873D01*
X189987577Y-84655168D01*
X190118812Y-84650879D01*
X190118620Y-84611158D01*
X190113537Y-84569405D01*
X190095162Y-84544158D01*
X190058039Y-84528030D01*
X190057043Y-84527742D01*
X190004410Y-84521400D01*
X189952906Y-84529684D01*
X189914630Y-84549827D01*
X189899272Y-84559773D01*
X189882730Y-84558397D01*
X189857275Y-84543987D01*
X189842328Y-84533817D01*
X189813091Y-84512088D01*
X189794980Y-84495800D01*
X189792074Y-84491137D01*
X189804040Y-84467005D01*
X189839396Y-84438185D01*
X189854753Y-84428461D01*
X189898901Y-84411714D01*
X189958398Y-84402227D01*
X190024487Y-84400095D01*
X190088411Y-84405417D01*
G36*
X189331524Y-84404237D02*
G01*
X189381255Y-84407971D01*
X189511291Y-84797773D01*
X189531678Y-84728614D01*
X189543946Y-84685874D01*
X189560085Y-84628115D01*
X189577512Y-84564625D01*
X189586726Y-84530570D01*
X189621388Y-84401683D01*
X189764391Y-84401683D01*
X189721646Y-84536857D01*
X189700596Y-84603342D01*
X189675167Y-84683539D01*
X189648610Y-84767193D01*
X189624902Y-84841782D01*
X189570902Y-85011535D01*
X189512598Y-85015328D01*
X189454295Y-85019122D01*
X189422679Y-84914734D01*
X189403182Y-84849889D01*
X189381904Y-84778400D01*
X189363308Y-84715263D01*
X189362574Y-84712750D01*
X189348684Y-84669969D01*
X189336429Y-84640779D01*
X189327846Y-84629741D01*
X189326082Y-84631018D01*
X189319891Y-84648130D01*
X189308128Y-84684787D01*
X189292225Y-84736378D01*
X189273614Y-84798294D01*
X189263543Y-84832352D01*
X189209007Y-85017822D01*
X189093264Y-85017822D01*
X189000737Y-84725471D01*
X188974744Y-84643462D01*
X188951066Y-84568987D01*
X188930820Y-84505544D01*
X188915126Y-84456632D01*
X188905102Y-84425749D01*
X188902055Y-84416726D01*
X188904467Y-84407487D01*
X188923408Y-84403441D01*
X188962823Y-84403846D01*
X188968993Y-84404152D01*
X189042086Y-84407971D01*
X189089957Y-84584010D01*
X189107553Y-84648211D01*
X189123277Y-84704649D01*
X189135746Y-84748422D01*
X189143574Y-84774630D01*
X189145020Y-84778903D01*
X189151014Y-84773990D01*
X189163101Y-84748532D01*
X189179893Y-84705997D01*
X189200003Y-84649850D01*
X189217003Y-84599130D01*
X189281794Y-84400504D01*
X189331524Y-84404237D01*
X189331524Y-84404237D01*
G37*
X189331524Y-84404237D02*
X189381255Y-84407971D01*
X189511291Y-84797773D01*
X189531678Y-84728614D01*
X189543946Y-84685874D01*
X189560085Y-84628115D01*
X189577512Y-84564625D01*
X189586726Y-84530570D01*
X189621388Y-84401683D01*
X189764391Y-84401683D01*
X189721646Y-84536857D01*
X189700596Y-84603342D01*
X189675167Y-84683539D01*
X189648610Y-84767193D01*
X189624902Y-84841782D01*
X189570902Y-85011535D01*
X189512598Y-85015328D01*
X189454295Y-85019122D01*
X189422679Y-84914734D01*
X189403182Y-84849889D01*
X189381904Y-84778400D01*
X189363308Y-84715263D01*
X189362574Y-84712750D01*
X189348684Y-84669969D01*
X189336429Y-84640779D01*
X189327846Y-84629741D01*
X189326082Y-84631018D01*
X189319891Y-84648130D01*
X189308128Y-84684787D01*
X189292225Y-84736378D01*
X189273614Y-84798294D01*
X189263543Y-84832352D01*
X189209007Y-85017822D01*
X189093264Y-85017822D01*
X189000737Y-84725471D01*
X188974744Y-84643462D01*
X188951066Y-84568987D01*
X188930820Y-84505544D01*
X188915126Y-84456632D01*
X188905102Y-84425749D01*
X188902055Y-84416726D01*
X188904467Y-84407487D01*
X188923408Y-84403441D01*
X188962823Y-84403846D01*
X188968993Y-84404152D01*
X189042086Y-84407971D01*
X189089957Y-84584010D01*
X189107553Y-84648211D01*
X189123277Y-84704649D01*
X189135746Y-84748422D01*
X189143574Y-84774630D01*
X189145020Y-84778903D01*
X189151014Y-84773990D01*
X189163101Y-84748532D01*
X189179893Y-84705997D01*
X189200003Y-84649850D01*
X189217003Y-84599130D01*
X189281794Y-84400504D01*
X189331524Y-84404237D01*
G36*
X188848812Y-85017822D02*
G01*
X188779654Y-85017822D01*
X188739512Y-85016645D01*
X188718606Y-85011772D01*
X188711078Y-85001186D01*
X188710495Y-84994029D01*
X188709226Y-84979676D01*
X188701221Y-84976923D01*
X188680185Y-84985771D01*
X188663827Y-84994029D01*
X188601023Y-85013597D01*
X188532752Y-85014729D01*
X188477248Y-85000135D01*
X188425562Y-84964877D01*
X188386162Y-84912835D01*
X188364587Y-84851450D01*
X188364038Y-84848018D01*
X188360833Y-84810571D01*
X188359239Y-84756813D01*
X188359367Y-84716155D01*
X188496721Y-84716155D01*
X188499903Y-84770194D01*
X188507141Y-84814735D01*
X188516940Y-84839888D01*
X188554011Y-84874260D01*
X188598026Y-84886582D01*
X188643416Y-84876618D01*
X188682203Y-84846895D01*
X188696892Y-84826905D01*
X188705481Y-84803050D01*
X188709504Y-84768230D01*
X188710495Y-84715930D01*
X188708722Y-84664139D01*
X188704037Y-84618634D01*
X188697397Y-84588181D01*
X188696290Y-84585452D01*
X188669509Y-84553000D01*
X188630421Y-84535183D01*
X188586685Y-84532306D01*
X188545962Y-84544674D01*
X188515913Y-84572593D01*
X188512796Y-84578148D01*
X188503039Y-84612022D01*
X188497723Y-84660728D01*
X188496721Y-84716155D01*
X188359367Y-84716155D01*
X188359432Y-84695540D01*
X188360336Y-84662563D01*
X188366486Y-84580981D01*
X188379267Y-84519730D01*
X188400529Y-84474449D01*
X188432122Y-84440779D01*
X188462793Y-84421014D01*
X188505646Y-84407120D01*
X188558944Y-84402354D01*
X188613520Y-84406236D01*
X188660208Y-84418282D01*
X188684876Y-84432693D01*
X188710495Y-84455878D01*
X188710495Y-84162773D01*
X188848812Y-84162773D01*
X188848812Y-85017822D01*
X188848812Y-85017822D01*
G37*
X188848812Y-85017822D02*
X188779654Y-85017822D01*
X188739512Y-85016645D01*
X188718606Y-85011772D01*
X188711078Y-85001186D01*
X188710495Y-84994029D01*
X188709226Y-84979676D01*
X188701221Y-84976923D01*
X188680185Y-84985771D01*
X188663827Y-84994029D01*
X188601023Y-85013597D01*
X188532752Y-85014729D01*
X188477248Y-85000135D01*
X188425562Y-84964877D01*
X188386162Y-84912835D01*
X188364587Y-84851450D01*
X188364038Y-84848018D01*
X188360833Y-84810571D01*
X188359239Y-84756813D01*
X188359367Y-84716155D01*
X188496721Y-84716155D01*
X188499903Y-84770194D01*
X188507141Y-84814735D01*
X188516940Y-84839888D01*
X188554011Y-84874260D01*
X188598026Y-84886582D01*
X188643416Y-84876618D01*
X188682203Y-84846895D01*
X188696892Y-84826905D01*
X188705481Y-84803050D01*
X188709504Y-84768230D01*
X188710495Y-84715930D01*
X188708722Y-84664139D01*
X188704037Y-84618634D01*
X188697397Y-84588181D01*
X188696290Y-84585452D01*
X188669509Y-84553000D01*
X188630421Y-84535183D01*
X188586685Y-84532306D01*
X188545962Y-84544674D01*
X188515913Y-84572593D01*
X188512796Y-84578148D01*
X188503039Y-84612022D01*
X188497723Y-84660728D01*
X188496721Y-84716155D01*
X188359367Y-84716155D01*
X188359432Y-84695540D01*
X188360336Y-84662563D01*
X188366486Y-84580981D01*
X188379267Y-84519730D01*
X188400529Y-84474449D01*
X188432122Y-84440779D01*
X188462793Y-84421014D01*
X188505646Y-84407120D01*
X188558944Y-84402354D01*
X188613520Y-84406236D01*
X188660208Y-84418282D01*
X188684876Y-84432693D01*
X188710495Y-84455878D01*
X188710495Y-84162773D01*
X188848812Y-84162773D01*
X188848812Y-85017822D01*
G36*
X188056644Y-84403020D02*
G01*
X188075461Y-84408660D01*
X188081527Y-84421053D01*
X188081782Y-84426647D01*
X188082871Y-84442230D01*
X188090368Y-84444676D01*
X188110619Y-84433993D01*
X188122649Y-84426694D01*
X188160600Y-84411063D01*
X188205928Y-84403334D01*
X188253456Y-84402740D01*
X188298005Y-84408513D01*
X188334398Y-84419884D01*
X188357457Y-84436088D01*
X188362004Y-84456355D01*
X188359709Y-84461843D01*
X188342980Y-84484626D01*
X188317037Y-84512647D01*
X188312345Y-84517177D01*
X188287617Y-84538005D01*
X188266282Y-84544735D01*
X188236445Y-84540038D01*
X188224492Y-84536917D01*
X188187295Y-84529421D01*
X188161141Y-84532792D01*
X188139054Y-84544681D01*
X188118822Y-84560635D01*
X188103921Y-84580700D01*
X188093566Y-84608702D01*
X188086971Y-84648467D01*
X188083351Y-84703823D01*
X188081922Y-84778594D01*
X188081782Y-84823740D01*
X188081782Y-85017822D01*
X187956040Y-85017822D01*
X187956040Y-84401683D01*
X188018911Y-84401683D01*
X188056644Y-84403020D01*
X188056644Y-84403020D01*
G37*
X188056644Y-84403020D02*
X188075461Y-84408660D01*
X188081527Y-84421053D01*
X188081782Y-84426647D01*
X188082871Y-84442230D01*
X188090368Y-84444676D01*
X188110619Y-84433993D01*
X188122649Y-84426694D01*
X188160600Y-84411063D01*
X188205928Y-84403334D01*
X188253456Y-84402740D01*
X188298005Y-84408513D01*
X188334398Y-84419884D01*
X188357457Y-84436088D01*
X188362004Y-84456355D01*
X188359709Y-84461843D01*
X188342980Y-84484626D01*
X188317037Y-84512647D01*
X188312345Y-84517177D01*
X188287617Y-84538005D01*
X188266282Y-84544735D01*
X188236445Y-84540038D01*
X188224492Y-84536917D01*
X188187295Y-84529421D01*
X188161141Y-84532792D01*
X188139054Y-84544681D01*
X188118822Y-84560635D01*
X188103921Y-84580700D01*
X188093566Y-84608702D01*
X188086971Y-84648467D01*
X188083351Y-84703823D01*
X188081922Y-84778594D01*
X188081782Y-84823740D01*
X188081782Y-85017822D01*
X187956040Y-85017822D01*
X187956040Y-84401683D01*
X188018911Y-84401683D01*
X188056644Y-84403020D01*
G36*
X187665790Y-84406555D02*
G01*
X187724945Y-84422339D01*
X187769977Y-84450948D01*
X187801754Y-84488419D01*
X187811634Y-84504411D01*
X187818927Y-84521163D01*
X187824026Y-84542592D01*
X187827321Y-84572616D01*
X187829203Y-84615154D01*
X187830063Y-84674122D01*
X187830293Y-84753440D01*
X187830297Y-84774484D01*
X187830297Y-85017822D01*
X187769941Y-85017822D01*
X187731443Y-85015126D01*
X187702977Y-85008295D01*
X187695845Y-85004083D01*
X187676348Y-84996813D01*
X187656434Y-85004083D01*
X187623647Y-85013160D01*
X187576022Y-85016813D01*
X187523236Y-85015228D01*
X187474964Y-85008589D01*
X187446782Y-85000072D01*
X187392247Y-84965063D01*
X187358165Y-84916479D01*
X187342843Y-84851882D01*
X187342701Y-84850223D01*
X187344045Y-84821566D01*
X187465644Y-84821566D01*
X187476274Y-84854161D01*
X187493590Y-84872505D01*
X187528348Y-84886379D01*
X187574227Y-84891917D01*
X187621012Y-84889191D01*
X187658486Y-84878274D01*
X187668985Y-84871269D01*
X187687332Y-84838904D01*
X187691980Y-84802111D01*
X187691980Y-84753763D01*
X187622418Y-84753763D01*
X187556333Y-84758850D01*
X187506236Y-84773263D01*
X187475071Y-84795729D01*
X187465644Y-84821566D01*
X187344045Y-84821566D01*
X187346013Y-84779647D01*
X187369290Y-84723845D01*
X187413052Y-84681647D01*
X187419101Y-84677808D01*
X187445093Y-84665309D01*
X187477265Y-84657740D01*
X187522240Y-84654061D01*
X187575669Y-84653216D01*
X187691980Y-84653169D01*
X187691980Y-84604411D01*
X187687047Y-84566581D01*
X187674457Y-84541236D01*
X187672983Y-84539887D01*
X187644966Y-84528800D01*
X187602674Y-84524503D01*
X187555936Y-84526615D01*
X187514582Y-84534756D01*
X187490043Y-84546965D01*
X187476747Y-84556746D01*
X187462706Y-84558613D01*
X187443329Y-84550600D01*
X187414024Y-84530739D01*
X187370197Y-84497063D01*
X187366175Y-84493909D01*
X187368236Y-84482236D01*
X187385432Y-84462822D01*
X187411567Y-84441248D01*
X187440448Y-84423096D01*
X187449522Y-84418809D01*
X187482620Y-84410256D01*
X187531120Y-84404155D01*
X187585305Y-84401708D01*
X187587839Y-84401703D01*
X187665790Y-84406555D01*
X187665790Y-84406555D01*
G37*
X187665790Y-84406555D02*
X187724945Y-84422339D01*
X187769977Y-84450948D01*
X187801754Y-84488419D01*
X187811634Y-84504411D01*
X187818927Y-84521163D01*
X187824026Y-84542592D01*
X187827321Y-84572616D01*
X187829203Y-84615154D01*
X187830063Y-84674122D01*
X187830293Y-84753440D01*
X187830297Y-84774484D01*
X187830297Y-85017822D01*
X187769941Y-85017822D01*
X187731443Y-85015126D01*
X187702977Y-85008295D01*
X187695845Y-85004083D01*
X187676348Y-84996813D01*
X187656434Y-85004083D01*
X187623647Y-85013160D01*
X187576022Y-85016813D01*
X187523236Y-85015228D01*
X187474964Y-85008589D01*
X187446782Y-85000072D01*
X187392247Y-84965063D01*
X187358165Y-84916479D01*
X187342843Y-84851882D01*
X187342701Y-84850223D01*
X187344045Y-84821566D01*
X187465644Y-84821566D01*
X187476274Y-84854161D01*
X187493590Y-84872505D01*
X187528348Y-84886379D01*
X187574227Y-84891917D01*
X187621012Y-84889191D01*
X187658486Y-84878274D01*
X187668985Y-84871269D01*
X187687332Y-84838904D01*
X187691980Y-84802111D01*
X187691980Y-84753763D01*
X187622418Y-84753763D01*
X187556333Y-84758850D01*
X187506236Y-84773263D01*
X187475071Y-84795729D01*
X187465644Y-84821566D01*
X187344045Y-84821566D01*
X187346013Y-84779647D01*
X187369290Y-84723845D01*
X187413052Y-84681647D01*
X187419101Y-84677808D01*
X187445093Y-84665309D01*
X187477265Y-84657740D01*
X187522240Y-84654061D01*
X187575669Y-84653216D01*
X187691980Y-84653169D01*
X187691980Y-84604411D01*
X187687047Y-84566581D01*
X187674457Y-84541236D01*
X187672983Y-84539887D01*
X187644966Y-84528800D01*
X187602674Y-84524503D01*
X187555936Y-84526615D01*
X187514582Y-84534756D01*
X187490043Y-84546965D01*
X187476747Y-84556746D01*
X187462706Y-84558613D01*
X187443329Y-84550600D01*
X187414024Y-84530739D01*
X187370197Y-84497063D01*
X187366175Y-84493909D01*
X187368236Y-84482236D01*
X187385432Y-84462822D01*
X187411567Y-84441248D01*
X187440448Y-84423096D01*
X187449522Y-84418809D01*
X187482620Y-84410256D01*
X187531120Y-84404155D01*
X187585305Y-84401708D01*
X187587839Y-84401703D01*
X187665790Y-84406555D01*
G36*
X187141241Y-83469184D02*
G01*
X187167753Y-83482282D01*
X187200447Y-83505106D01*
X187224275Y-83529996D01*
X187240594Y-83561249D01*
X187250760Y-83603166D01*
X187256128Y-83660044D01*
X187258056Y-83736184D01*
X187258169Y-83768917D01*
X187257839Y-83840656D01*
X187256473Y-83891927D01*
X187253500Y-83927404D01*
X187248351Y-83951763D01*
X187240457Y-83969680D01*
X187232243Y-83981902D01*
X187179813Y-84033905D01*
X187118070Y-84065184D01*
X187051464Y-84074592D01*
X186984442Y-84060980D01*
X186963208Y-84051354D01*
X186912376Y-84024859D01*
X186912376Y-84440052D01*
X186949475Y-84420868D01*
X186998357Y-84406025D01*
X187058439Y-84402222D01*
X187118436Y-84409243D01*
X187163744Y-84425013D01*
X187201325Y-84455047D01*
X187233436Y-84498024D01*
X187235850Y-84502436D01*
X187246033Y-84523221D01*
X187253470Y-84544170D01*
X187258589Y-84569548D01*
X187261819Y-84603618D01*
X187263587Y-84650641D01*
X187264323Y-84714882D01*
X187264456Y-84787176D01*
X187264456Y-85017822D01*
X187126139Y-85017822D01*
X187126139Y-84592533D01*
X187087451Y-84559979D01*
X187047262Y-84533940D01*
X187009203Y-84529205D01*
X186970934Y-84541389D01*
X186950538Y-84553320D01*
X186935358Y-84570313D01*
X186924562Y-84595995D01*
X186917317Y-84633991D01*
X186912792Y-84687926D01*
X186910156Y-84761425D01*
X186909228Y-84810347D01*
X186906089Y-85011535D01*
X186840074Y-85015336D01*
X186774060Y-85019136D01*
X186774060Y-83770650D01*
X186912376Y-83770650D01*
X186915903Y-83840254D01*
X186927785Y-83888569D01*
X186949980Y-83918631D01*
X186984441Y-83933471D01*
X187019258Y-83936436D01*
X187058671Y-83933028D01*
X187084829Y-83919617D01*
X187101186Y-83901896D01*
X187114063Y-83882835D01*
X187121728Y-83861601D01*
X187125139Y-83831849D01*
X187125251Y-83787236D01*
X187124103Y-83749880D01*
X187121468Y-83693604D01*
X187117544Y-83656658D01*
X187110937Y-83633223D01*
X187100251Y-83617480D01*
X187090167Y-83608380D01*
X187048030Y-83588537D01*
X186998160Y-83585332D01*
X186969524Y-83592168D01*
X186941172Y-83616464D01*
X186922391Y-83663728D01*
X186913288Y-83733624D01*
X186912376Y-83770650D01*
X186774060Y-83770650D01*
X186774060Y-83458614D01*
X186843218Y-83458614D01*
X186884740Y-83460256D01*
X186906162Y-83466087D01*
X186912374Y-83477461D01*
X186912376Y-83477798D01*
X186915258Y-83488938D01*
X186927970Y-83487673D01*
X186953243Y-83475433D01*
X187012131Y-83456707D01*
X187078385Y-83454739D01*
X187141241Y-83469184D01*
X187141241Y-83469184D01*
G37*
X187141241Y-83469184D02*
X187167753Y-83482282D01*
X187200447Y-83505106D01*
X187224275Y-83529996D01*
X187240594Y-83561249D01*
X187250760Y-83603166D01*
X187256128Y-83660044D01*
X187258056Y-83736184D01*
X187258169Y-83768917D01*
X187257839Y-83840656D01*
X187256473Y-83891927D01*
X187253500Y-83927404D01*
X187248351Y-83951763D01*
X187240457Y-83969680D01*
X187232243Y-83981902D01*
X187179813Y-84033905D01*
X187118070Y-84065184D01*
X187051464Y-84074592D01*
X186984442Y-84060980D01*
X186963208Y-84051354D01*
X186912376Y-84024859D01*
X186912376Y-84440052D01*
X186949475Y-84420868D01*
X186998357Y-84406025D01*
X187058439Y-84402222D01*
X187118436Y-84409243D01*
X187163744Y-84425013D01*
X187201325Y-84455047D01*
X187233436Y-84498024D01*
X187235850Y-84502436D01*
X187246033Y-84523221D01*
X187253470Y-84544170D01*
X187258589Y-84569548D01*
X187261819Y-84603618D01*
X187263587Y-84650641D01*
X187264323Y-84714882D01*
X187264456Y-84787176D01*
X187264456Y-85017822D01*
X187126139Y-85017822D01*
X187126139Y-84592533D01*
X187087451Y-84559979D01*
X187047262Y-84533940D01*
X187009203Y-84529205D01*
X186970934Y-84541389D01*
X186950538Y-84553320D01*
X186935358Y-84570313D01*
X186924562Y-84595995D01*
X186917317Y-84633991D01*
X186912792Y-84687926D01*
X186910156Y-84761425D01*
X186909228Y-84810347D01*
X186906089Y-85011535D01*
X186840074Y-85015336D01*
X186774060Y-85019136D01*
X186774060Y-83770650D01*
X186912376Y-83770650D01*
X186915903Y-83840254D01*
X186927785Y-83888569D01*
X186949980Y-83918631D01*
X186984441Y-83933471D01*
X187019258Y-83936436D01*
X187058671Y-83933028D01*
X187084829Y-83919617D01*
X187101186Y-83901896D01*
X187114063Y-83882835D01*
X187121728Y-83861601D01*
X187125139Y-83831849D01*
X187125251Y-83787236D01*
X187124103Y-83749880D01*
X187121468Y-83693604D01*
X187117544Y-83656658D01*
X187110937Y-83633223D01*
X187100251Y-83617480D01*
X187090167Y-83608380D01*
X187048030Y-83588537D01*
X186998160Y-83585332D01*
X186969524Y-83592168D01*
X186941172Y-83616464D01*
X186922391Y-83663728D01*
X186913288Y-83733624D01*
X186912376Y-83770650D01*
X186774060Y-83770650D01*
X186774060Y-83458614D01*
X186843218Y-83458614D01*
X186884740Y-83460256D01*
X186906162Y-83466087D01*
X186912374Y-83477461D01*
X186912376Y-83477798D01*
X186915258Y-83488938D01*
X186927970Y-83487673D01*
X186953243Y-83475433D01*
X187012131Y-83456707D01*
X187078385Y-83454739D01*
X187141241Y-83469184D01*
D10*
X165830000Y-76600000D02*
X165830000Y-77710000D01*
X165830000Y-77710000D02*
X164500000Y-77710000D01*
X165830000Y-63970000D02*
X150470000Y-63970000D01*
X150470000Y-63970000D02*
X150470000Y-72600000D01*
X165830000Y-72600000D02*
X150470000Y-72600000D01*
X165830000Y-63970000D02*
X165830000Y-72600000D01*
X153070000Y-63970000D02*
X153070000Y-72600000D01*
X155610000Y-63970000D02*
X155610000Y-72600000D01*
X158150000Y-63970000D02*
X158150000Y-72600000D01*
X160690000Y-63970000D02*
X160690000Y-72600000D01*
X163230000Y-63970000D02*
X163230000Y-72600000D01*
X151440000Y-75110000D02*
X151440000Y-75550000D01*
X151440000Y-72600000D02*
X151440000Y-73010000D01*
X152160000Y-75110000D02*
X152160000Y-75550000D01*
X152160000Y-72600000D02*
X152160000Y-73010000D01*
X153980000Y-75110000D02*
X153980000Y-75550000D01*
X153980000Y-72600000D02*
X153980000Y-73010000D01*
X154700000Y-75110000D02*
X154700000Y-75550000D01*
X154700000Y-72600000D02*
X154700000Y-73010000D01*
X156520000Y-75110000D02*
X156520000Y-75550000D01*
X156520000Y-72600000D02*
X156520000Y-73010000D01*
X157240000Y-75110000D02*
X157240000Y-75550000D01*
X157240000Y-72600000D02*
X157240000Y-73010000D01*
X159060000Y-75110000D02*
X159060000Y-75550000D01*
X159060000Y-72600000D02*
X159060000Y-73010000D01*
X159780000Y-75110000D02*
X159780000Y-75550000D01*
X159780000Y-72600000D02*
X159780000Y-73010000D01*
X161600000Y-75110000D02*
X161600000Y-75550000D01*
X161600000Y-72600000D02*
X161600000Y-73010000D01*
X162320000Y-75110000D02*
X162320000Y-75550000D01*
X162320000Y-72600000D02*
X162320000Y-73010000D01*
X164140000Y-75110000D02*
X164140000Y-75490000D01*
X164140000Y-72600000D02*
X164140000Y-73010000D01*
X164860000Y-75110000D02*
X164860000Y-75490000D01*
X164860000Y-72600000D02*
X164860000Y-73010000D01*
X163348100Y-63970000D02*
X163348100Y-72600000D01*
X163466195Y-63970000D02*
X163466195Y-72600000D01*
X163584290Y-63970000D02*
X163584290Y-72600000D01*
X163702385Y-63970000D02*
X163702385Y-72600000D01*
X163820480Y-63970000D02*
X163820480Y-72600000D01*
X163938575Y-63970000D02*
X163938575Y-72600000D01*
X164056670Y-63970000D02*
X164056670Y-72600000D01*
X164174765Y-63970000D02*
X164174765Y-72600000D01*
X164292860Y-63970000D02*
X164292860Y-72600000D01*
X164410955Y-63970000D02*
X164410955Y-72600000D01*
X164529050Y-63970000D02*
X164529050Y-72600000D01*
X164647145Y-63970000D02*
X164647145Y-72600000D01*
X164765240Y-63970000D02*
X164765240Y-72600000D01*
X164883335Y-63970000D02*
X164883335Y-72600000D01*
X165001430Y-63970000D02*
X165001430Y-72600000D01*
X165119525Y-63970000D02*
X165119525Y-72600000D01*
X165237620Y-63970000D02*
X165237620Y-72600000D01*
X165355715Y-63970000D02*
X165355715Y-72600000D01*
X165473810Y-63970000D02*
X165473810Y-72600000D01*
X165591905Y-63970000D02*
X165591905Y-72600000D01*
X165710000Y-63970000D02*
X165710000Y-72600000D01*
X188690000Y-76600000D02*
X188690000Y-77710000D01*
X188690000Y-77710000D02*
X187360000Y-77710000D01*
X188690000Y-63970000D02*
X173330000Y-63970000D01*
X173330000Y-63970000D02*
X173330000Y-72600000D01*
X188690000Y-72600000D02*
X173330000Y-72600000D01*
X188690000Y-63970000D02*
X188690000Y-72600000D01*
X175930000Y-63970000D02*
X175930000Y-72600000D01*
X178470000Y-63970000D02*
X178470000Y-72600000D01*
X181010000Y-63970000D02*
X181010000Y-72600000D01*
X183550000Y-63970000D02*
X183550000Y-72600000D01*
X186090000Y-63970000D02*
X186090000Y-72600000D01*
X174300000Y-75110000D02*
X174300000Y-75550000D01*
X174300000Y-72600000D02*
X174300000Y-73010000D01*
X175020000Y-75110000D02*
X175020000Y-75550000D01*
X175020000Y-72600000D02*
X175020000Y-73010000D01*
X176840000Y-75110000D02*
X176840000Y-75550000D01*
X176840000Y-72600000D02*
X176840000Y-73010000D01*
X177560000Y-75110000D02*
X177560000Y-75550000D01*
X177560000Y-72600000D02*
X177560000Y-73010000D01*
X179380000Y-75110000D02*
X179380000Y-75550000D01*
X179380000Y-72600000D02*
X179380000Y-73010000D01*
X180100000Y-75110000D02*
X180100000Y-75550000D01*
X180100000Y-72600000D02*
X180100000Y-73010000D01*
X181920000Y-75110000D02*
X181920000Y-75550000D01*
X181920000Y-72600000D02*
X181920000Y-73010000D01*
X182640000Y-75110000D02*
X182640000Y-75550000D01*
X182640000Y-72600000D02*
X182640000Y-73010000D01*
X184460000Y-75110000D02*
X184460000Y-75550000D01*
X184460000Y-72600000D02*
X184460000Y-73010000D01*
X185180000Y-75110000D02*
X185180000Y-75550000D01*
X185180000Y-72600000D02*
X185180000Y-73010000D01*
X187000000Y-75110000D02*
X187000000Y-75490000D01*
X187000000Y-72600000D02*
X187000000Y-73010000D01*
X187720000Y-75110000D02*
X187720000Y-75490000D01*
X187720000Y-72600000D02*
X187720000Y-73010000D01*
X186208100Y-63970000D02*
X186208100Y-72600000D01*
X186326195Y-63970000D02*
X186326195Y-72600000D01*
X186444290Y-63970000D02*
X186444290Y-72600000D01*
X186562385Y-63970000D02*
X186562385Y-72600000D01*
X186680480Y-63970000D02*
X186680480Y-72600000D01*
X186798575Y-63970000D02*
X186798575Y-72600000D01*
X186916670Y-63970000D02*
X186916670Y-72600000D01*
X187034765Y-63970000D02*
X187034765Y-72600000D01*
X187152860Y-63970000D02*
X187152860Y-72600000D01*
X187270955Y-63970000D02*
X187270955Y-72600000D01*
X187389050Y-63970000D02*
X187389050Y-72600000D01*
X187507145Y-63970000D02*
X187507145Y-72600000D01*
X187625240Y-63970000D02*
X187625240Y-72600000D01*
X187743335Y-63970000D02*
X187743335Y-72600000D01*
X187861430Y-63970000D02*
X187861430Y-72600000D01*
X187979525Y-63970000D02*
X187979525Y-72600000D01*
X188097620Y-63970000D02*
X188097620Y-72600000D01*
X188215715Y-63970000D02*
X188215715Y-72600000D01*
X188333810Y-63970000D02*
X188333810Y-72600000D01*
X188451905Y-63970000D02*
X188451905Y-72600000D01*
X188570000Y-63970000D02*
X188570000Y-72600000D01*
X137866351Y-113664124D02*
X137530475Y-114000000D01*
X150569525Y-114000000D02*
X150233649Y-113664124D01*
X150233649Y-114335876D02*
X150569525Y-114000000D01*
X144050000Y-120519525D02*
X143714124Y-120183649D01*
X144385876Y-120183649D02*
X144050000Y-120519525D01*
X144050000Y-107480475D02*
X144385876Y-107816351D01*
X143714124Y-107816351D02*
X144050000Y-107480475D01*
X176830000Y-118700000D02*
X176830000Y-121300000D01*
X171270000Y-117220000D02*
X176830000Y-117220000D01*
X171270000Y-118700000D02*
X171270000Y-121300000D01*
X171270000Y-122780000D02*
X176830000Y-122780000D01*
X126140000Y-91910000D02*
X130400000Y-91910000D01*
X130400000Y-91910000D02*
X130400000Y-79590000D01*
X130400000Y-79590000D02*
X126140000Y-79590000D01*
X122040000Y-91910000D02*
X113680000Y-91910000D01*
X113680000Y-91910000D02*
X113680000Y-79590000D01*
X113680000Y-79590000D02*
X122040000Y-79590000D01*
X130620000Y-87000000D02*
X131120000Y-87500000D01*
X131120000Y-87500000D02*
X131120000Y-86500000D01*
X131120000Y-86500000D02*
X130620000Y-87000000D01*
X196290000Y-105162779D02*
X196290000Y-104837221D01*
X197310000Y-105162779D02*
X197310000Y-104837221D01*
X197310000Y-100162779D02*
X197310000Y-99837221D01*
X196290000Y-100162779D02*
X196290000Y-99837221D01*
X181810000Y-99587221D02*
X181810000Y-99912779D01*
X180790000Y-99587221D02*
X180790000Y-99912779D01*
X180790000Y-104337221D02*
X180790000Y-104662779D01*
X181810000Y-104337221D02*
X181810000Y-104662779D01*
X197310000Y-108087221D02*
X197310000Y-108412779D01*
X196290000Y-108087221D02*
X196290000Y-108412779D01*
X197310000Y-96837221D02*
X197310000Y-97162779D01*
X196290000Y-96837221D02*
X196290000Y-97162779D01*
X196290000Y-85912779D02*
X196290000Y-85587221D01*
X197310000Y-85912779D02*
X197310000Y-85587221D01*
X137462779Y-79240000D02*
X137137221Y-79240000D01*
X137462779Y-80260000D02*
X137137221Y-80260000D01*
X132310000Y-95337221D02*
X132310000Y-95662779D01*
X131290000Y-95337221D02*
X131290000Y-95662779D01*
X132310000Y-88837221D02*
X132310000Y-89162779D01*
X131290000Y-88837221D02*
X131290000Y-89162779D01*
X140790000Y-87962779D02*
X140790000Y-87637221D01*
X141810000Y-87962779D02*
X141810000Y-87637221D01*
X141810000Y-94462779D02*
X141810000Y-94137221D01*
X140790000Y-94462779D02*
X140790000Y-94137221D01*
X138145522Y-112175727D02*
X138375727Y-111945522D01*
X137424273Y-111454478D02*
X137654478Y-111224273D01*
X137945522Y-110175727D02*
X138175727Y-109945522D01*
X137224273Y-109454478D02*
X137454478Y-109224273D01*
X137497631Y-118518880D02*
X137267426Y-118288675D01*
X138218880Y-117797631D02*
X137988675Y-117567426D01*
X137168880Y-118847631D02*
X136938675Y-118617426D01*
X136447631Y-119568880D02*
X136217426Y-119338675D01*
X137310000Y-99950279D02*
X137310000Y-99624721D01*
X136290000Y-99950279D02*
X136290000Y-99624721D01*
X157324273Y-92745522D02*
X157554478Y-92975727D01*
X158045522Y-92024273D02*
X158275727Y-92254478D01*
X188810000Y-112450279D02*
X188810000Y-112124721D01*
X187790000Y-112450279D02*
X187790000Y-112124721D01*
X164832574Y-108811325D02*
X164602369Y-108581120D01*
X164111325Y-109532574D02*
X163881120Y-109302369D01*
X176025727Y-97504478D02*
X175795522Y-97274273D01*
X175304478Y-98225727D02*
X175074273Y-97995522D01*
X174025727Y-94495522D02*
X173795522Y-94725727D01*
X173304478Y-93774273D02*
X173074273Y-94004478D01*
X160045522Y-103475727D02*
X160275727Y-103245522D01*
X159324273Y-102754478D02*
X159554478Y-102524273D01*
X158945522Y-102375727D02*
X159175727Y-102145522D01*
X158224273Y-101654478D02*
X158454478Y-101424273D01*
X149554478Y-93725727D02*
X149324273Y-93495522D01*
X150275727Y-93004478D02*
X150045522Y-92774273D01*
X152324273Y-96254478D02*
X152554478Y-96024273D01*
X153045522Y-96975727D02*
X153275727Y-96745522D01*
X158574273Y-90004478D02*
X158804478Y-89774273D01*
X159295522Y-90725727D02*
X159525727Y-90495522D01*
X160545522Y-91975727D02*
X160775727Y-91745522D01*
X159824273Y-91254478D02*
X160054478Y-91024273D01*
X166525727Y-87245522D02*
X166295522Y-87475727D01*
X165804478Y-86524273D02*
X165574273Y-86754478D01*
X171074273Y-102754478D02*
X171304478Y-102524273D01*
X171795522Y-103475727D02*
X172025727Y-103245522D01*
X170545522Y-102225727D02*
X170775727Y-101995522D01*
X169824273Y-101504478D02*
X170054478Y-101274273D01*
X171462779Y-106010000D02*
X171137221Y-106010000D01*
X171462779Y-104990000D02*
X171137221Y-104990000D01*
X173304478Y-100225727D02*
X173074273Y-99995522D01*
X174025727Y-99504478D02*
X173795522Y-99274273D01*
X145785000Y-82490000D02*
X142900000Y-82490000D01*
X145785000Y-84310000D02*
X145785000Y-82490000D01*
X142900000Y-84310000D02*
X145785000Y-84310000D01*
X138890000Y-102077500D02*
X138890000Y-104962500D01*
X140710000Y-102077500D02*
X138890000Y-102077500D01*
X140710000Y-104962500D02*
X140710000Y-102077500D01*
X168915000Y-113910000D02*
X171800000Y-113910000D01*
X168915000Y-112090000D02*
X168915000Y-113910000D01*
X171800000Y-112090000D02*
X168915000Y-112090000D01*
X147710000Y-77037500D02*
X147710000Y-74152500D01*
X147710000Y-74152500D02*
X145890000Y-74152500D01*
X145890000Y-74152500D02*
X145890000Y-77037500D01*
X145710000Y-77037500D02*
X145710000Y-74152500D01*
X145710000Y-74152500D02*
X143890000Y-74152500D01*
X143890000Y-74152500D02*
X143890000Y-77037500D01*
X143710000Y-77037500D02*
X143710000Y-74152500D01*
X143710000Y-74152500D02*
X141890000Y-74152500D01*
X141890000Y-74152500D02*
X141890000Y-77037500D01*
X141710000Y-77037500D02*
X141710000Y-74152500D01*
X141710000Y-74152500D02*
X139890000Y-74152500D01*
X139890000Y-74152500D02*
X139890000Y-77037500D01*
X137890000Y-74152500D02*
X137890000Y-77037500D01*
X139710000Y-74152500D02*
X137890000Y-74152500D01*
X139710000Y-77037500D02*
X139710000Y-74152500D01*
X137710000Y-77037500D02*
X137710000Y-74152500D01*
X137710000Y-74152500D02*
X135890000Y-74152500D01*
X135890000Y-74152500D02*
X135890000Y-77037500D01*
X133890000Y-74152500D02*
X133890000Y-77037500D01*
X135710000Y-74152500D02*
X133890000Y-74152500D01*
X135710000Y-77037500D02*
X135710000Y-74152500D01*
X133710000Y-77037500D02*
X133710000Y-74152500D01*
X133710000Y-74152500D02*
X131890000Y-74152500D01*
X131890000Y-74152500D02*
X131890000Y-77037500D01*
X127996078Y-96710000D02*
X127478922Y-96710000D01*
X127996078Y-95290000D02*
X127478922Y-95290000D01*
X113280000Y-98340000D02*
X125970000Y-98340000D01*
X129470000Y-115090000D02*
X136060000Y-115090000D01*
X136060000Y-98340000D02*
X136060000Y-115090000D01*
X113280000Y-115090000D02*
X125970000Y-115090000D01*
X129470000Y-98340000D02*
X136060000Y-98340000D01*
X113280000Y-115090000D02*
X113280000Y-98340000D01*
D15*
X184570000Y-123219000D02*
X184570000Y-122330000D01*
X185840000Y-123219000D02*
X185840000Y-122330000D01*
X184570000Y-123219000D02*
G75*
G03X185840000Y-123219000I635000J0D01*
G01*
D10*
X138324273Y-117245522D02*
X138554478Y-117475727D01*
X139045522Y-116524273D02*
X139275727Y-116754478D01*
X127224721Y-77040000D02*
X127550279Y-77040000D01*
X127224721Y-78060000D02*
X127550279Y-78060000D01*
X140337221Y-83090000D02*
X140662779Y-83090000D01*
X140337221Y-84110000D02*
X140662779Y-84110000D01*
X143310000Y-89462779D02*
X143310000Y-89137221D01*
X142290000Y-89462779D02*
X142290000Y-89137221D01*
X142290000Y-86462779D02*
X142290000Y-86137221D01*
X143310000Y-86462779D02*
X143310000Y-86137221D01*
X143310000Y-95962779D02*
X143310000Y-95637221D01*
X142290000Y-95962779D02*
X142290000Y-95637221D01*
X142290000Y-92962779D02*
X142290000Y-92637221D01*
X143310000Y-92962779D02*
X143310000Y-92637221D01*
X148940000Y-101912779D02*
X148940000Y-101587221D01*
X149960000Y-101912779D02*
X149960000Y-101587221D01*
X142154478Y-106724273D02*
X141924273Y-106954478D01*
X142875727Y-107445522D02*
X142645522Y-107675727D01*
X156004478Y-115825727D02*
X155774273Y-115595522D01*
X156725727Y-115104478D02*
X156495522Y-114874273D01*
X158204478Y-113525727D02*
X157974273Y-113295522D01*
X158925727Y-112804478D02*
X158695522Y-112574273D01*
X159675727Y-111254478D02*
X159445522Y-111024273D01*
X158954478Y-111975727D02*
X158724273Y-111745522D01*
X155461325Y-112932574D02*
X155231120Y-112702369D01*
X156182574Y-112211325D02*
X155952369Y-111981120D01*
X157145522Y-101175727D02*
X157375727Y-100945522D01*
X156424273Y-100454478D02*
X156654478Y-100224273D01*
X156818880Y-110697631D02*
X156588675Y-110467426D01*
X156097631Y-111418880D02*
X155867426Y-111188675D01*
X156624273Y-109645522D02*
X156854478Y-109875727D01*
X157345522Y-108924273D02*
X157575727Y-109154478D01*
X147445522Y-121124273D02*
X147675727Y-121354478D01*
X146724273Y-121845522D02*
X146954478Y-122075727D01*
X140310000Y-100162779D02*
X140310000Y-99837221D01*
X139290000Y-100162779D02*
X139290000Y-99837221D01*
X139724273Y-109154478D02*
X139954478Y-108924273D01*
X140445522Y-109875727D02*
X140675727Y-109645522D01*
X120962779Y-96490000D02*
X120637221Y-96490000D01*
X120962779Y-97510000D02*
X120637221Y-97510000D01*
X116750279Y-97510000D02*
X116424721Y-97510000D01*
X116750279Y-96490000D02*
X116424721Y-96490000D01*
X123637221Y-118010000D02*
X123962779Y-118010000D01*
X123637221Y-116990000D02*
X123962779Y-116990000D01*
X123637221Y-115490000D02*
X123962779Y-115490000D01*
X123637221Y-116510000D02*
X123962779Y-116510000D01*
X130712779Y-116510000D02*
X130387221Y-116510000D01*
X130712779Y-115490000D02*
X130387221Y-115490000D01*
X161875727Y-93354478D02*
X161645522Y-93124273D01*
X161154478Y-94075727D02*
X160924273Y-93845522D01*
X168445522Y-100224273D02*
X168675727Y-100454478D01*
X167724273Y-100945522D02*
X167954478Y-101175727D01*
X171540000Y-107837221D02*
X171540000Y-108162779D01*
X172560000Y-107837221D02*
X172560000Y-108162779D01*
X160137221Y-115840000D02*
X160462779Y-115840000D01*
X160137221Y-116860000D02*
X160462779Y-116860000D01*
X163962779Y-115840000D02*
X163637221Y-115840000D01*
X163962779Y-116860000D02*
X163637221Y-116860000D01*
X168074721Y-116860000D02*
X168400279Y-116860000D01*
X168074721Y-115840000D02*
X168400279Y-115840000D01*
X167045522Y-106024273D02*
X167275727Y-106254478D01*
X166324273Y-106745522D02*
X166554478Y-106975727D01*
X146290000Y-72375279D02*
X146290000Y-72049721D01*
X147310000Y-72375279D02*
X147310000Y-72049721D01*
X145310000Y-72375279D02*
X145310000Y-72049721D01*
X144290000Y-72375279D02*
X144290000Y-72049721D01*
X142290000Y-72375279D02*
X142290000Y-72049721D01*
X143310000Y-72375279D02*
X143310000Y-72049721D01*
X141310000Y-72375279D02*
X141310000Y-72049721D01*
X140290000Y-72375279D02*
X140290000Y-72049721D01*
X138290000Y-72375279D02*
X138290000Y-72049721D01*
X139310000Y-72375279D02*
X139310000Y-72049721D01*
X137310000Y-72375279D02*
X137310000Y-72049721D01*
X136290000Y-72375279D02*
X136290000Y-72049721D01*
X134290000Y-72375279D02*
X134290000Y-72049721D01*
X135310000Y-72375279D02*
X135310000Y-72049721D01*
X133310000Y-72375279D02*
X133310000Y-72049721D01*
X132290000Y-72375279D02*
X132290000Y-72049721D01*
X160830000Y-118700000D02*
X160830000Y-121300000D01*
X155270000Y-117220000D02*
X160830000Y-117220000D01*
X155270000Y-118700000D02*
X155270000Y-121300000D01*
X155270000Y-122780000D02*
X160830000Y-122780000D01*
X163270000Y-122780000D02*
X168830000Y-122780000D01*
X163270000Y-118700000D02*
X163270000Y-121300000D01*
X163270000Y-117220000D02*
X168830000Y-117220000D01*
X168830000Y-118700000D02*
X168830000Y-121300000D01*
X194350000Y-86100000D02*
X194350000Y-85700000D01*
X183750000Y-86100000D02*
X183750000Y-85700000D01*
X183750000Y-108300000D02*
X183750000Y-107900000D01*
X194350000Y-85700000D02*
X183750000Y-85700000D01*
X194350000Y-108300000D02*
X183750000Y-108300000D01*
X194350000Y-107900000D02*
X194350000Y-108300000D01*
X195550000Y-107900000D02*
X194350000Y-107900000D01*
D11*
X134125000Y-80825000D02*
X134125000Y-81050000D01*
X137475000Y-80825000D02*
X137475000Y-81125000D01*
X137475000Y-84175000D02*
X137475000Y-83875000D01*
X134125000Y-84175000D02*
X134125000Y-83875000D01*
X134125000Y-80825000D02*
X137475000Y-80825000D01*
X134125000Y-84175000D02*
X137475000Y-84175000D01*
X134125000Y-81050000D02*
X132900000Y-81050000D01*
D10*
X182800000Y-117725000D02*
X185525000Y-117725000D01*
X185525000Y-117725000D02*
X185525000Y-117465000D01*
X182800000Y-117725000D02*
X180075000Y-117725000D01*
X180075000Y-117725000D02*
X180075000Y-117465000D01*
X182800000Y-112275000D02*
X185525000Y-112275000D01*
X185525000Y-112275000D02*
X185525000Y-112535000D01*
X182800000Y-112275000D02*
X180075000Y-112275000D01*
X180075000Y-112275000D02*
X180075000Y-112535000D01*
X180075000Y-112535000D02*
X178400000Y-112535000D01*
X146240000Y-99300000D02*
X146240000Y-98700000D01*
X143360000Y-99300000D02*
X146240000Y-99300000D01*
X148500000Y-104700000D02*
X148440000Y-104700000D01*
X148500000Y-99300000D02*
X148500000Y-104700000D01*
X148440000Y-99300000D02*
X148500000Y-99300000D01*
X148440000Y-98700000D02*
X148440000Y-99300000D01*
X146240000Y-104700000D02*
X143360000Y-104700000D01*
X141100000Y-99300000D02*
X141160000Y-99300000D01*
X141100000Y-104700000D02*
X141100000Y-99300000D01*
X141160000Y-104700000D02*
X141100000Y-104700000D01*
X180400000Y-105200000D02*
X180460000Y-105200000D01*
X180460000Y-105200000D02*
X180460000Y-110600000D01*
X180460000Y-110600000D02*
X180400000Y-110600000D01*
X175320000Y-105200000D02*
X178200000Y-105200000D01*
X173120000Y-111200000D02*
X173120000Y-110600000D01*
X173120000Y-110600000D02*
X173060000Y-110600000D01*
X173060000Y-110600000D02*
X173060000Y-105200000D01*
X173060000Y-105200000D02*
X173120000Y-105200000D01*
X178200000Y-110600000D02*
X175320000Y-110600000D01*
X175320000Y-110600000D02*
X175320000Y-111200000D01*
D11*
X134725000Y-85475000D02*
X133325000Y-85475000D01*
X134725000Y-90575000D02*
X138875000Y-90575000D01*
X134725000Y-85425000D02*
X138875000Y-85425000D01*
X134725000Y-90575000D02*
X134725000Y-90430000D01*
X138875000Y-90575000D02*
X138875000Y-90430000D01*
X138875000Y-85425000D02*
X138875000Y-85570000D01*
X134725000Y-85425000D02*
X134725000Y-85475000D01*
X134725000Y-91925000D02*
X134725000Y-91975000D01*
X138875000Y-91925000D02*
X138875000Y-92070000D01*
X138875000Y-97075000D02*
X138875000Y-96930000D01*
X134725000Y-97075000D02*
X134725000Y-96930000D01*
X134725000Y-91925000D02*
X138875000Y-91925000D01*
X134725000Y-97075000D02*
X138875000Y-97075000D01*
X134725000Y-91975000D02*
X133325000Y-91975000D01*
D10*
X135500000Y-116500000D02*
G75*
G03X135500000Y-116500000I-700000J0D01*
G01*
X156804478Y-86475727D02*
X156574273Y-86245522D01*
X157525727Y-85754478D02*
X157295522Y-85524273D01*
X155852369Y-99918880D02*
X156082574Y-99688675D01*
X155131120Y-99197631D02*
X155361325Y-98967426D01*
X175025727Y-95745522D02*
X174795522Y-95975727D01*
X174304478Y-95024273D02*
X174074273Y-95254478D01*
X169275727Y-103254478D02*
X169045522Y-103024273D01*
X168554478Y-103975727D02*
X168324273Y-103745522D01*
D11*
X185319642Y-120882380D02*
X184986309Y-120406190D01*
X184748214Y-120882380D02*
X184748214Y-119882380D01*
X185129166Y-119882380D01*
X185224404Y-119930000D01*
X185272023Y-119977619D01*
X185319642Y-120072857D01*
X185319642Y-120215714D01*
X185272023Y-120310952D01*
X185224404Y-120358571D01*
X185129166Y-120406190D01*
X184748214Y-120406190D01*
X186176785Y-120215714D02*
X186176785Y-120882380D01*
X185938690Y-119834761D02*
X185700595Y-120549047D01*
X186319642Y-120549047D01*
X186652976Y-119977619D02*
X186700595Y-119930000D01*
X186795833Y-119882380D01*
X187033928Y-119882380D01*
X187129166Y-119930000D01*
X187176785Y-119977619D01*
X187224404Y-120072857D01*
X187224404Y-120168095D01*
X187176785Y-120310952D01*
X186605357Y-120882380D01*
X187224404Y-120882380D01*
X169357142Y-87857142D02*
X169309523Y-87904761D01*
X169166666Y-87952380D01*
X169071428Y-87952380D01*
X168928571Y-87904761D01*
X168833333Y-87809523D01*
X168785714Y-87714285D01*
X168738095Y-87523809D01*
X168738095Y-87380952D01*
X168785714Y-87190476D01*
X168833333Y-87095238D01*
X168928571Y-87000000D01*
X169071428Y-86952380D01*
X169166666Y-86952380D01*
X169309523Y-87000000D01*
X169357142Y-87047619D01*
X169690476Y-86952380D02*
X170309523Y-86952380D01*
X169976190Y-87333333D01*
X170119047Y-87333333D01*
X170214285Y-87380952D01*
X170261904Y-87428571D01*
X170309523Y-87523809D01*
X170309523Y-87761904D01*
X170261904Y-87857142D01*
X170214285Y-87904761D01*
X170119047Y-87952380D01*
X169833333Y-87952380D01*
X169738095Y-87904761D01*
X169690476Y-87857142D01*
X170880952Y-87380952D02*
X170785714Y-87333333D01*
X170738095Y-87285714D01*
X170690476Y-87190476D01*
X170690476Y-87142857D01*
X170738095Y-87047619D01*
X170785714Y-87000000D01*
X170880952Y-86952380D01*
X171071428Y-86952380D01*
X171166666Y-87000000D01*
X171214285Y-87047619D01*
X171261904Y-87142857D01*
X171261904Y-87190476D01*
X171214285Y-87285714D01*
X171166666Y-87333333D01*
X171071428Y-87380952D01*
X170880952Y-87380952D01*
X170785714Y-87428571D01*
X170738095Y-87476190D01*
X170690476Y-87571428D01*
X170690476Y-87761904D01*
X170738095Y-87857142D01*
X170785714Y-87904761D01*
X170880952Y-87952380D01*
X171071428Y-87952380D01*
X171166666Y-87904761D01*
X171214285Y-87857142D01*
X171261904Y-87761904D01*
X171261904Y-87571428D01*
X171214285Y-87476190D01*
X171166666Y-87428571D01*
X171071428Y-87380952D01*
X167738095Y-88452380D02*
X167738095Y-89261904D01*
X167785714Y-89357142D01*
X167833333Y-89404761D01*
X167928571Y-89452380D01*
X168119047Y-89452380D01*
X168214285Y-89404761D01*
X168261904Y-89357142D01*
X168309523Y-89261904D01*
X168309523Y-88452380D01*
X168928571Y-88880952D02*
X168833333Y-88833333D01*
X168785714Y-88785714D01*
X168738095Y-88690476D01*
X168738095Y-88642857D01*
X168785714Y-88547619D01*
X168833333Y-88500000D01*
X168928571Y-88452380D01*
X169119047Y-88452380D01*
X169214285Y-88500000D01*
X169261904Y-88547619D01*
X169309523Y-88642857D01*
X169309523Y-88690476D01*
X169261904Y-88785714D01*
X169214285Y-88833333D01*
X169119047Y-88880952D01*
X168928571Y-88880952D01*
X168833333Y-88928571D01*
X168785714Y-88976190D01*
X168738095Y-89071428D01*
X168738095Y-89261904D01*
X168785714Y-89357142D01*
X168833333Y-89404761D01*
X168928571Y-89452380D01*
X169119047Y-89452380D01*
X169214285Y-89404761D01*
X169261904Y-89357142D01*
X169309523Y-89261904D01*
X169309523Y-89071428D01*
X169261904Y-88976190D01*
X169214285Y-88928571D01*
X169119047Y-88880952D01*
X164357142Y-96452380D02*
X164023809Y-95976190D01*
X163785714Y-96452380D02*
X163785714Y-95452380D01*
X164166666Y-95452380D01*
X164261904Y-95500000D01*
X164309523Y-95547619D01*
X164357142Y-95642857D01*
X164357142Y-95785714D01*
X164309523Y-95880952D01*
X164261904Y-95928571D01*
X164166666Y-95976190D01*
X163785714Y-95976190D01*
X165214285Y-95785714D02*
X165214285Y-96452380D01*
X164976190Y-95404761D02*
X164738095Y-96119047D01*
X165357142Y-96119047D01*
X166261904Y-96452380D02*
X165690476Y-96452380D01*
X165976190Y-96452380D02*
X165976190Y-95452380D01*
X165880952Y-95595238D01*
X165785714Y-95690476D01*
X165690476Y-95738095D01*
X170357142Y-96452380D02*
X170023809Y-95976190D01*
X169785714Y-96452380D02*
X169785714Y-95452380D01*
X170166666Y-95452380D01*
X170261904Y-95500000D01*
X170309523Y-95547619D01*
X170357142Y-95642857D01*
X170357142Y-95785714D01*
X170309523Y-95880952D01*
X170261904Y-95928571D01*
X170166666Y-95976190D01*
X169785714Y-95976190D01*
X171214285Y-95785714D02*
X171214285Y-96452380D01*
X170976190Y-95404761D02*
X170738095Y-96119047D01*
X171357142Y-96119047D01*
X171928571Y-95452380D02*
X172023809Y-95452380D01*
X172119047Y-95500000D01*
X172166666Y-95547619D01*
X172214285Y-95642857D01*
X172261904Y-95833333D01*
X172261904Y-96071428D01*
X172214285Y-96261904D01*
X172166666Y-96357142D01*
X172119047Y-96404761D01*
X172023809Y-96452380D01*
X171928571Y-96452380D01*
X171833333Y-96404761D01*
X171785714Y-96357142D01*
X171738095Y-96261904D01*
X171690476Y-96071428D01*
X171690476Y-95833333D01*
X171738095Y-95642857D01*
X171785714Y-95547619D01*
X171833333Y-95500000D01*
X171928571Y-95452380D01*
X136762267Y-106102030D02*
X136863282Y-105529610D01*
X136358206Y-105697969D02*
X137065312Y-104990862D01*
X137334687Y-105260236D01*
X137368358Y-105361251D01*
X137368358Y-105428595D01*
X137334687Y-105529610D01*
X137233671Y-105630625D01*
X137132656Y-105664297D01*
X137065312Y-105664297D01*
X136964297Y-105630625D01*
X136694923Y-105361251D01*
X137570389Y-106102030D02*
X137536717Y-106001015D01*
X137536717Y-105933671D01*
X137570389Y-105832656D01*
X137604061Y-105798984D01*
X137705076Y-105765312D01*
X137772419Y-105765312D01*
X137873435Y-105798984D01*
X138008122Y-105933671D01*
X138041793Y-106034687D01*
X138041793Y-106102030D01*
X138008122Y-106203045D01*
X137974450Y-106236717D01*
X137873435Y-106270389D01*
X137806091Y-106270389D01*
X137705076Y-106236717D01*
X137570389Y-106102030D01*
X137469374Y-106068358D01*
X137402030Y-106068358D01*
X137301015Y-106102030D01*
X137166328Y-106236717D01*
X137132656Y-106337732D01*
X137132656Y-106405076D01*
X137166328Y-106506091D01*
X137301015Y-106640778D01*
X137402030Y-106674450D01*
X137469374Y-106674450D01*
X137570389Y-106640778D01*
X137705076Y-106506091D01*
X137738748Y-106405076D01*
X137738748Y-106337732D01*
X137705076Y-106236717D01*
X149266666Y-76252380D02*
X149266666Y-76966666D01*
X149219047Y-77109523D01*
X149123809Y-77204761D01*
X148980952Y-77252380D01*
X148885714Y-77252380D01*
X150171428Y-76585714D02*
X150171428Y-77252380D01*
X149933333Y-76204761D02*
X149695238Y-76919047D01*
X150314285Y-76919047D01*
X189216666Y-76702380D02*
X189216666Y-77416666D01*
X189169047Y-77559523D01*
X189073809Y-77654761D01*
X188930952Y-77702380D01*
X188835714Y-77702380D01*
X190169047Y-76702380D02*
X189692857Y-76702380D01*
X189645238Y-77178571D01*
X189692857Y-77130952D01*
X189788095Y-77083333D01*
X190026190Y-77083333D01*
X190121428Y-77130952D01*
X190169047Y-77178571D01*
X190216666Y-77273809D01*
X190216666Y-77511904D01*
X190169047Y-77607142D01*
X190121428Y-77654761D01*
X190026190Y-77702380D01*
X189788095Y-77702380D01*
X189692857Y-77654761D01*
X189645238Y-77607142D01*
X143048477Y-120674026D02*
X142476057Y-121246446D01*
X142442385Y-121347461D01*
X142442385Y-121414805D01*
X142476057Y-121515820D01*
X142610744Y-121650507D01*
X142711759Y-121684179D01*
X142779103Y-121684179D01*
X142880118Y-121650507D01*
X143452538Y-121078087D01*
X144125973Y-121751522D02*
X143789255Y-121414805D01*
X143418866Y-121717851D01*
X143486209Y-121717851D01*
X143587225Y-121751522D01*
X143755583Y-121919881D01*
X143789255Y-122020896D01*
X143789255Y-122088240D01*
X143755583Y-122189255D01*
X143587225Y-122357614D01*
X143486209Y-122391286D01*
X143418866Y-122391286D01*
X143317851Y-122357614D01*
X143149492Y-122189255D01*
X143115820Y-122088240D01*
X143115820Y-122020896D01*
X170604761Y-121333333D02*
X170652380Y-121190476D01*
X170652380Y-120952380D01*
X170604761Y-120857142D01*
X170557142Y-120809523D01*
X170461904Y-120761904D01*
X170366666Y-120761904D01*
X170271428Y-120809523D01*
X170223809Y-120857142D01*
X170176190Y-120952380D01*
X170128571Y-121142857D01*
X170080952Y-121238095D01*
X170033333Y-121285714D01*
X169938095Y-121333333D01*
X169842857Y-121333333D01*
X169747619Y-121285714D01*
X169700000Y-121238095D01*
X169652380Y-121142857D01*
X169652380Y-120904761D01*
X169700000Y-120761904D01*
X169652380Y-120428571D02*
X170652380Y-120190476D01*
X169938095Y-120000000D01*
X170652380Y-119809523D01*
X169652380Y-119571428D01*
X169652380Y-119285714D02*
X169652380Y-118666666D01*
X170033333Y-119000000D01*
X170033333Y-118857142D01*
X170080952Y-118761904D01*
X170128571Y-118714285D01*
X170223809Y-118666666D01*
X170461904Y-118666666D01*
X170557142Y-118714285D01*
X170604761Y-118761904D01*
X170652380Y-118857142D01*
X170652380Y-119142857D01*
X170604761Y-119238095D01*
X170557142Y-119285714D01*
X114466666Y-78202380D02*
X114466666Y-78916666D01*
X114419047Y-79059523D01*
X114323809Y-79154761D01*
X114180952Y-79202380D01*
X114085714Y-79202380D01*
X115466666Y-79202380D02*
X114895238Y-79202380D01*
X115180952Y-79202380D02*
X115180952Y-78202380D01*
X115085714Y-78345238D01*
X114990476Y-78440476D01*
X114895238Y-78488095D01*
X198407142Y-105666666D02*
X198454761Y-105714285D01*
X198502380Y-105857142D01*
X198502380Y-105952380D01*
X198454761Y-106095238D01*
X198359523Y-106190476D01*
X198264285Y-106238095D01*
X198073809Y-106285714D01*
X197930952Y-106285714D01*
X197740476Y-106238095D01*
X197645238Y-106190476D01*
X197550000Y-106095238D01*
X197502380Y-105952380D01*
X197502380Y-105857142D01*
X197550000Y-105714285D01*
X197597619Y-105666666D01*
X198502380Y-104714285D02*
X198502380Y-105285714D01*
X198502380Y-105000000D02*
X197502380Y-105000000D01*
X197645238Y-105095238D01*
X197740476Y-105190476D01*
X197788095Y-105285714D01*
X198407142Y-100666666D02*
X198454761Y-100714285D01*
X198502380Y-100857142D01*
X198502380Y-100952380D01*
X198454761Y-101095238D01*
X198359523Y-101190476D01*
X198264285Y-101238095D01*
X198073809Y-101285714D01*
X197930952Y-101285714D01*
X197740476Y-101238095D01*
X197645238Y-101190476D01*
X197550000Y-101095238D01*
X197502380Y-100952380D01*
X197502380Y-100857142D01*
X197550000Y-100714285D01*
X197597619Y-100666666D01*
X197597619Y-100285714D02*
X197550000Y-100238095D01*
X197502380Y-100142857D01*
X197502380Y-99904761D01*
X197550000Y-99809523D01*
X197597619Y-99761904D01*
X197692857Y-99714285D01*
X197788095Y-99714285D01*
X197930952Y-99761904D01*
X198502380Y-100333333D01*
X198502380Y-99714285D01*
X181657142Y-97666666D02*
X181704761Y-97714285D01*
X181752380Y-97857142D01*
X181752380Y-97952380D01*
X181704761Y-98095238D01*
X181609523Y-98190476D01*
X181514285Y-98238095D01*
X181323809Y-98285714D01*
X181180952Y-98285714D01*
X180990476Y-98238095D01*
X180895238Y-98190476D01*
X180800000Y-98095238D01*
X180752380Y-97952380D01*
X180752380Y-97857142D01*
X180800000Y-97714285D01*
X180847619Y-97666666D01*
X180752380Y-97333333D02*
X180752380Y-96714285D01*
X181133333Y-97047619D01*
X181133333Y-96904761D01*
X181180952Y-96809523D01*
X181228571Y-96761904D01*
X181323809Y-96714285D01*
X181561904Y-96714285D01*
X181657142Y-96761904D01*
X181704761Y-96809523D01*
X181752380Y-96904761D01*
X181752380Y-97190476D01*
X181704761Y-97285714D01*
X181657142Y-97333333D01*
X181657142Y-102416666D02*
X181704761Y-102464285D01*
X181752380Y-102607142D01*
X181752380Y-102702380D01*
X181704761Y-102845238D01*
X181609523Y-102940476D01*
X181514285Y-102988095D01*
X181323809Y-103035714D01*
X181180952Y-103035714D01*
X180990476Y-102988095D01*
X180895238Y-102940476D01*
X180800000Y-102845238D01*
X180752380Y-102702380D01*
X180752380Y-102607142D01*
X180800000Y-102464285D01*
X180847619Y-102416666D01*
X181085714Y-101559523D02*
X181752380Y-101559523D01*
X180704761Y-101797619D02*
X181419047Y-102035714D01*
X181419047Y-101416666D01*
X198407142Y-108416666D02*
X198454761Y-108464285D01*
X198502380Y-108607142D01*
X198502380Y-108702380D01*
X198454761Y-108845238D01*
X198359523Y-108940476D01*
X198264285Y-108988095D01*
X198073809Y-109035714D01*
X197930952Y-109035714D01*
X197740476Y-108988095D01*
X197645238Y-108940476D01*
X197550000Y-108845238D01*
X197502380Y-108702380D01*
X197502380Y-108607142D01*
X197550000Y-108464285D01*
X197597619Y-108416666D01*
X197502380Y-107511904D02*
X197502380Y-107988095D01*
X197978571Y-108035714D01*
X197930952Y-107988095D01*
X197883333Y-107892857D01*
X197883333Y-107654761D01*
X197930952Y-107559523D01*
X197978571Y-107511904D01*
X198073809Y-107464285D01*
X198311904Y-107464285D01*
X198407142Y-107511904D01*
X198454761Y-107559523D01*
X198502380Y-107654761D01*
X198502380Y-107892857D01*
X198454761Y-107988095D01*
X198407142Y-108035714D01*
X198407142Y-96666666D02*
X198454761Y-96714285D01*
X198502380Y-96857142D01*
X198502380Y-96952380D01*
X198454761Y-97095238D01*
X198359523Y-97190476D01*
X198264285Y-97238095D01*
X198073809Y-97285714D01*
X197930952Y-97285714D01*
X197740476Y-97238095D01*
X197645238Y-97190476D01*
X197550000Y-97095238D01*
X197502380Y-96952380D01*
X197502380Y-96857142D01*
X197550000Y-96714285D01*
X197597619Y-96666666D01*
X197502380Y-95809523D02*
X197502380Y-96000000D01*
X197550000Y-96095238D01*
X197597619Y-96142857D01*
X197740476Y-96238095D01*
X197930952Y-96285714D01*
X198311904Y-96285714D01*
X198407142Y-96238095D01*
X198454761Y-96190476D01*
X198502380Y-96095238D01*
X198502380Y-95904761D01*
X198454761Y-95809523D01*
X198407142Y-95761904D01*
X198311904Y-95714285D01*
X198073809Y-95714285D01*
X197978571Y-95761904D01*
X197930952Y-95809523D01*
X197883333Y-95904761D01*
X197883333Y-96095238D01*
X197930952Y-96190476D01*
X197978571Y-96238095D01*
X198073809Y-96285714D01*
X198407142Y-85916666D02*
X198454761Y-85964285D01*
X198502380Y-86107142D01*
X198502380Y-86202380D01*
X198454761Y-86345238D01*
X198359523Y-86440476D01*
X198264285Y-86488095D01*
X198073809Y-86535714D01*
X197930952Y-86535714D01*
X197740476Y-86488095D01*
X197645238Y-86440476D01*
X197550000Y-86345238D01*
X197502380Y-86202380D01*
X197502380Y-86107142D01*
X197550000Y-85964285D01*
X197597619Y-85916666D01*
X197502380Y-85583333D02*
X197502380Y-84916666D01*
X198502380Y-85345238D01*
X139433333Y-80157142D02*
X139385714Y-80204761D01*
X139242857Y-80252380D01*
X139147619Y-80252380D01*
X139004761Y-80204761D01*
X138909523Y-80109523D01*
X138861904Y-80014285D01*
X138814285Y-79823809D01*
X138814285Y-79680952D01*
X138861904Y-79490476D01*
X138909523Y-79395238D01*
X139004761Y-79300000D01*
X139147619Y-79252380D01*
X139242857Y-79252380D01*
X139385714Y-79300000D01*
X139433333Y-79347619D01*
X140004761Y-79680952D02*
X139909523Y-79633333D01*
X139861904Y-79585714D01*
X139814285Y-79490476D01*
X139814285Y-79442857D01*
X139861904Y-79347619D01*
X139909523Y-79300000D01*
X140004761Y-79252380D01*
X140195238Y-79252380D01*
X140290476Y-79300000D01*
X140338095Y-79347619D01*
X140385714Y-79442857D01*
X140385714Y-79490476D01*
X140338095Y-79585714D01*
X140290476Y-79633333D01*
X140195238Y-79680952D01*
X140004761Y-79680952D01*
X139909523Y-79728571D01*
X139861904Y-79776190D01*
X139814285Y-79871428D01*
X139814285Y-80061904D01*
X139861904Y-80157142D01*
X139909523Y-80204761D01*
X140004761Y-80252380D01*
X140195238Y-80252380D01*
X140290476Y-80204761D01*
X140338095Y-80157142D01*
X140385714Y-80061904D01*
X140385714Y-79871428D01*
X140338095Y-79776190D01*
X140290476Y-79728571D01*
X140195238Y-79680952D01*
X132157142Y-93366666D02*
X132204761Y-93414285D01*
X132252380Y-93557142D01*
X132252380Y-93652380D01*
X132204761Y-93795238D01*
X132109523Y-93890476D01*
X132014285Y-93938095D01*
X131823809Y-93985714D01*
X131680952Y-93985714D01*
X131490476Y-93938095D01*
X131395238Y-93890476D01*
X131300000Y-93795238D01*
X131252380Y-93652380D01*
X131252380Y-93557142D01*
X131300000Y-93414285D01*
X131347619Y-93366666D01*
X132252380Y-92890476D02*
X132252380Y-92700000D01*
X132204761Y-92604761D01*
X132157142Y-92557142D01*
X132014285Y-92461904D01*
X131823809Y-92414285D01*
X131442857Y-92414285D01*
X131347619Y-92461904D01*
X131300000Y-92509523D01*
X131252380Y-92604761D01*
X131252380Y-92795238D01*
X131300000Y-92890476D01*
X131347619Y-92938095D01*
X131442857Y-92985714D01*
X131680952Y-92985714D01*
X131776190Y-92938095D01*
X131823809Y-92890476D01*
X131871428Y-92795238D01*
X131871428Y-92604761D01*
X131823809Y-92509523D01*
X131776190Y-92461904D01*
X131680952Y-92414285D01*
X132157142Y-86892857D02*
X132204761Y-86940476D01*
X132252380Y-87083333D01*
X132252380Y-87178571D01*
X132204761Y-87321428D01*
X132109523Y-87416666D01*
X132014285Y-87464285D01*
X131823809Y-87511904D01*
X131680952Y-87511904D01*
X131490476Y-87464285D01*
X131395238Y-87416666D01*
X131300000Y-87321428D01*
X131252380Y-87178571D01*
X131252380Y-87083333D01*
X131300000Y-86940476D01*
X131347619Y-86892857D01*
X132252380Y-85940476D02*
X132252380Y-86511904D01*
X132252380Y-86226190D02*
X131252380Y-86226190D01*
X131395238Y-86321428D01*
X131490476Y-86416666D01*
X131538095Y-86511904D01*
X131252380Y-85321428D02*
X131252380Y-85226190D01*
X131300000Y-85130952D01*
X131347619Y-85083333D01*
X131442857Y-85035714D01*
X131633333Y-84988095D01*
X131871428Y-84988095D01*
X132061904Y-85035714D01*
X132157142Y-85083333D01*
X132204761Y-85130952D01*
X132252380Y-85226190D01*
X132252380Y-85321428D01*
X132204761Y-85416666D01*
X132157142Y-85464285D01*
X132061904Y-85511904D01*
X131871428Y-85559523D01*
X131633333Y-85559523D01*
X131442857Y-85511904D01*
X131347619Y-85464285D01*
X131300000Y-85416666D01*
X131252380Y-85321428D01*
X144757142Y-88442857D02*
X144804761Y-88490476D01*
X144852380Y-88633333D01*
X144852380Y-88728571D01*
X144804761Y-88871428D01*
X144709523Y-88966666D01*
X144614285Y-89014285D01*
X144423809Y-89061904D01*
X144280952Y-89061904D01*
X144090476Y-89014285D01*
X143995238Y-88966666D01*
X143900000Y-88871428D01*
X143852380Y-88728571D01*
X143852380Y-88633333D01*
X143900000Y-88490476D01*
X143947619Y-88442857D01*
X144852380Y-87490476D02*
X144852380Y-88061904D01*
X144852380Y-87776190D02*
X143852380Y-87776190D01*
X143995238Y-87871428D01*
X144090476Y-87966666D01*
X144138095Y-88061904D01*
X144852380Y-86538095D02*
X144852380Y-87109523D01*
X144852380Y-86823809D02*
X143852380Y-86823809D01*
X143995238Y-86919047D01*
X144090476Y-87014285D01*
X144138095Y-87109523D01*
X144757142Y-94842857D02*
X144804761Y-94890476D01*
X144852380Y-95033333D01*
X144852380Y-95128571D01*
X144804761Y-95271428D01*
X144709523Y-95366666D01*
X144614285Y-95414285D01*
X144423809Y-95461904D01*
X144280952Y-95461904D01*
X144090476Y-95414285D01*
X143995238Y-95366666D01*
X143900000Y-95271428D01*
X143852380Y-95128571D01*
X143852380Y-95033333D01*
X143900000Y-94890476D01*
X143947619Y-94842857D01*
X144852380Y-93890476D02*
X144852380Y-94461904D01*
X144852380Y-94176190D02*
X143852380Y-94176190D01*
X143995238Y-94271428D01*
X144090476Y-94366666D01*
X144138095Y-94461904D01*
X143947619Y-93509523D02*
X143900000Y-93461904D01*
X143852380Y-93366666D01*
X143852380Y-93128571D01*
X143900000Y-93033333D01*
X143947619Y-92985714D01*
X144042857Y-92938095D01*
X144138095Y-92938095D01*
X144280952Y-92985714D01*
X144852380Y-93557142D01*
X144852380Y-92938095D01*
X136297969Y-116007106D02*
X136297969Y-116074450D01*
X136230625Y-116209137D01*
X136163282Y-116276480D01*
X136028595Y-116343824D01*
X135893908Y-116343824D01*
X135792893Y-116310152D01*
X135624534Y-116209137D01*
X135523519Y-116108122D01*
X135422503Y-115939763D01*
X135388832Y-115838748D01*
X135388832Y-115704061D01*
X135456175Y-115569374D01*
X135523519Y-115502030D01*
X135658206Y-115434687D01*
X135725549Y-115434687D01*
X137038748Y-115401015D02*
X136634687Y-115805076D01*
X136836717Y-115603045D02*
X136129610Y-114895938D01*
X136163282Y-115064297D01*
X136163282Y-115198984D01*
X136129610Y-115300000D01*
X136567343Y-114458206D02*
X137005076Y-114020473D01*
X137038748Y-114525549D01*
X137139763Y-114424534D01*
X137240778Y-114390862D01*
X137308122Y-114390862D01*
X137409137Y-114424534D01*
X137577496Y-114592893D01*
X137611167Y-114693908D01*
X137611167Y-114761251D01*
X137577496Y-114862267D01*
X137375465Y-115064297D01*
X137274450Y-115097969D01*
X137207106Y-115097969D01*
X137097969Y-109307106D02*
X137097969Y-109374450D01*
X137030625Y-109509137D01*
X136963282Y-109576480D01*
X136828595Y-109643824D01*
X136693908Y-109643824D01*
X136592893Y-109610152D01*
X136424534Y-109509137D01*
X136323519Y-109408122D01*
X136222503Y-109239763D01*
X136188832Y-109138748D01*
X136188832Y-109004061D01*
X136256175Y-108869374D01*
X136323519Y-108802030D01*
X136458206Y-108734687D01*
X136525549Y-108734687D01*
X137838748Y-108701015D02*
X137434687Y-109105076D01*
X137636717Y-108903045D02*
X136929610Y-108195938D01*
X136963282Y-108364297D01*
X136963282Y-108498984D01*
X136929610Y-108600000D01*
X137973435Y-107623519D02*
X138444839Y-108094923D01*
X137535702Y-107522503D02*
X137872419Y-108195938D01*
X138310152Y-107758206D01*
X138892893Y-119797969D02*
X138825549Y-119797969D01*
X138690862Y-119730625D01*
X138623519Y-119663282D01*
X138556175Y-119528595D01*
X138556175Y-119393908D01*
X138589847Y-119292893D01*
X138690862Y-119124534D01*
X138791877Y-119023519D01*
X138960236Y-118922503D01*
X139061251Y-118888832D01*
X139195938Y-118888832D01*
X139330625Y-118956175D01*
X139397969Y-119023519D01*
X139465312Y-119158206D01*
X139465312Y-119225549D01*
X139498984Y-120538748D02*
X139094923Y-120134687D01*
X139296954Y-120336717D02*
X140004061Y-119629610D01*
X139835702Y-119663282D01*
X139701015Y-119663282D01*
X139600000Y-119629610D01*
X140845854Y-120471404D02*
X140509137Y-120134687D01*
X140138748Y-120437732D01*
X140206091Y-120437732D01*
X140307106Y-120471404D01*
X140475465Y-120639763D01*
X140509137Y-120740778D01*
X140509137Y-120808122D01*
X140475465Y-120909137D01*
X140307106Y-121077496D01*
X140206091Y-121111167D01*
X140138748Y-121111167D01*
X140037732Y-121077496D01*
X139869374Y-120909137D01*
X139835702Y-120808122D01*
X139835702Y-120740778D01*
X137892893Y-120797969D02*
X137825549Y-120797969D01*
X137690862Y-120730625D01*
X137623519Y-120663282D01*
X137556175Y-120528595D01*
X137556175Y-120393908D01*
X137589847Y-120292893D01*
X137690862Y-120124534D01*
X137791877Y-120023519D01*
X137960236Y-119922503D01*
X138061251Y-119888832D01*
X138195938Y-119888832D01*
X138330625Y-119956175D01*
X138397969Y-120023519D01*
X138465312Y-120158206D01*
X138465312Y-120225549D01*
X138498984Y-121538748D02*
X138094923Y-121134687D01*
X138296954Y-121336717D02*
X139004061Y-120629610D01*
X138835702Y-120663282D01*
X138701015Y-120663282D01*
X138600000Y-120629610D01*
X139812183Y-121437732D02*
X139677496Y-121303045D01*
X139576480Y-121269374D01*
X139509137Y-121269374D01*
X139340778Y-121303045D01*
X139172419Y-121404061D01*
X138903045Y-121673435D01*
X138869374Y-121774450D01*
X138869374Y-121841793D01*
X138903045Y-121942809D01*
X139037732Y-122077496D01*
X139138748Y-122111167D01*
X139206091Y-122111167D01*
X139307106Y-122077496D01*
X139475465Y-121909137D01*
X139509137Y-121808122D01*
X139509137Y-121740778D01*
X139475465Y-121639763D01*
X139340778Y-121505076D01*
X139239763Y-121471404D01*
X139172419Y-121471404D01*
X139071404Y-121505076D01*
X137157142Y-103392857D02*
X137204761Y-103440476D01*
X137252380Y-103583333D01*
X137252380Y-103678571D01*
X137204761Y-103821428D01*
X137109523Y-103916666D01*
X137014285Y-103964285D01*
X136823809Y-104011904D01*
X136680952Y-104011904D01*
X136490476Y-103964285D01*
X136395238Y-103916666D01*
X136300000Y-103821428D01*
X136252380Y-103678571D01*
X136252380Y-103583333D01*
X136300000Y-103440476D01*
X136347619Y-103392857D01*
X137252380Y-102440476D02*
X137252380Y-103011904D01*
X137252380Y-102726190D02*
X136252380Y-102726190D01*
X136395238Y-102821428D01*
X136490476Y-102916666D01*
X136538095Y-103011904D01*
X136252380Y-102107142D02*
X136252380Y-101440476D01*
X137252380Y-101869047D01*
X154842893Y-90047969D02*
X154775549Y-90047969D01*
X154640862Y-89980625D01*
X154573519Y-89913282D01*
X154506175Y-89778595D01*
X154506175Y-89643908D01*
X154539847Y-89542893D01*
X154640862Y-89374534D01*
X154741877Y-89273519D01*
X154910236Y-89172503D01*
X155011251Y-89138832D01*
X155145938Y-89138832D01*
X155280625Y-89206175D01*
X155347969Y-89273519D01*
X155415312Y-89408206D01*
X155415312Y-89475549D01*
X155448984Y-90788748D02*
X155044923Y-90384687D01*
X155246954Y-90586717D02*
X155954061Y-89879610D01*
X155785702Y-89913282D01*
X155651015Y-89913282D01*
X155550000Y-89879610D01*
X156257106Y-90788748D02*
X156223435Y-90687732D01*
X156223435Y-90620389D01*
X156257106Y-90519374D01*
X156290778Y-90485702D01*
X156391793Y-90452030D01*
X156459137Y-90452030D01*
X156560152Y-90485702D01*
X156694839Y-90620389D01*
X156728511Y-90721404D01*
X156728511Y-90788748D01*
X156694839Y-90889763D01*
X156661167Y-90923435D01*
X156560152Y-90957106D01*
X156492809Y-90957106D01*
X156391793Y-90923435D01*
X156257106Y-90788748D01*
X156156091Y-90755076D01*
X156088748Y-90755076D01*
X155987732Y-90788748D01*
X155853045Y-90923435D01*
X155819374Y-91024450D01*
X155819374Y-91091793D01*
X155853045Y-91192809D01*
X155987732Y-91327496D01*
X156088748Y-91361167D01*
X156156091Y-91361167D01*
X156257106Y-91327496D01*
X156391793Y-91192809D01*
X156425465Y-91091793D01*
X156425465Y-91024450D01*
X156391793Y-90923435D01*
X188757142Y-115842857D02*
X188804761Y-115890476D01*
X188852380Y-116033333D01*
X188852380Y-116128571D01*
X188804761Y-116271428D01*
X188709523Y-116366666D01*
X188614285Y-116414285D01*
X188423809Y-116461904D01*
X188280952Y-116461904D01*
X188090476Y-116414285D01*
X187995238Y-116366666D01*
X187900000Y-116271428D01*
X187852380Y-116128571D01*
X187852380Y-116033333D01*
X187900000Y-115890476D01*
X187947619Y-115842857D01*
X188852380Y-114890476D02*
X188852380Y-115461904D01*
X188852380Y-115176190D02*
X187852380Y-115176190D01*
X187995238Y-115271428D01*
X188090476Y-115366666D01*
X188138095Y-115461904D01*
X188852380Y-114414285D02*
X188852380Y-114223809D01*
X188804761Y-114128571D01*
X188757142Y-114080952D01*
X188614285Y-113985714D01*
X188423809Y-113938095D01*
X188042857Y-113938095D01*
X187947619Y-113985714D01*
X187900000Y-114033333D01*
X187852380Y-114128571D01*
X187852380Y-114319047D01*
X187900000Y-114414285D01*
X187947619Y-114461904D01*
X188042857Y-114509523D01*
X188280952Y-114509523D01*
X188376190Y-114461904D01*
X188423809Y-114414285D01*
X188471428Y-114319047D01*
X188471428Y-114128571D01*
X188423809Y-114033333D01*
X188376190Y-113985714D01*
X188280952Y-113938095D01*
X162638577Y-109865979D02*
X162571233Y-109865979D01*
X162436546Y-109798635D01*
X162369203Y-109731292D01*
X162301859Y-109596605D01*
X162301859Y-109461918D01*
X162335531Y-109360903D01*
X162436546Y-109192544D01*
X162537561Y-109091529D01*
X162705920Y-108990513D01*
X162806935Y-108956842D01*
X162941622Y-108956842D01*
X163076309Y-109024185D01*
X163143653Y-109091529D01*
X163210996Y-109226216D01*
X163210996Y-109293559D01*
X163480371Y-109562933D02*
X163547714Y-109562933D01*
X163648729Y-109596605D01*
X163817088Y-109764964D01*
X163850760Y-109865979D01*
X163850760Y-109933322D01*
X163817088Y-110034338D01*
X163749745Y-110101681D01*
X163615058Y-110169025D01*
X162806935Y-110169025D01*
X163244668Y-110606758D01*
X164389508Y-110337384D02*
X164456851Y-110404727D01*
X164490523Y-110505742D01*
X164490523Y-110573086D01*
X164456851Y-110674101D01*
X164355836Y-110842460D01*
X164187477Y-111010819D01*
X164019119Y-111111834D01*
X163918103Y-111145506D01*
X163850760Y-111145506D01*
X163749745Y-111111834D01*
X163682401Y-111044490D01*
X163648729Y-110943475D01*
X163648729Y-110876132D01*
X163682401Y-110775116D01*
X163783416Y-110606758D01*
X163951775Y-110438399D01*
X164120134Y-110337384D01*
X164221149Y-110303712D01*
X164288493Y-110303712D01*
X164389508Y-110337384D01*
X175842893Y-96547969D02*
X175775549Y-96547969D01*
X175640862Y-96480625D01*
X175573519Y-96413282D01*
X175506175Y-96278595D01*
X175506175Y-96143908D01*
X175539847Y-96042893D01*
X175640862Y-95874534D01*
X175741877Y-95773519D01*
X175910236Y-95672503D01*
X176011251Y-95638832D01*
X176145938Y-95638832D01*
X176280625Y-95706175D01*
X176347969Y-95773519D01*
X176415312Y-95908206D01*
X176415312Y-95975549D01*
X176684687Y-96244923D02*
X176752030Y-96244923D01*
X176853045Y-96278595D01*
X177021404Y-96446954D01*
X177055076Y-96547969D01*
X177055076Y-96615312D01*
X177021404Y-96716328D01*
X176954061Y-96783671D01*
X176819374Y-96851015D01*
X176011251Y-96851015D01*
X176448984Y-97288748D01*
X177122419Y-97962183D02*
X176718358Y-97558122D01*
X176920389Y-97760152D02*
X177627496Y-97053045D01*
X177459137Y-97086717D01*
X177324450Y-97086717D01*
X177223435Y-97053045D01*
X176797969Y-93207107D02*
X176797969Y-93274451D01*
X176730625Y-93409138D01*
X176663282Y-93476481D01*
X176528595Y-93543825D01*
X176393908Y-93543825D01*
X176292893Y-93510153D01*
X176124534Y-93409138D01*
X176023519Y-93308123D01*
X175922503Y-93139764D01*
X175888832Y-93038749D01*
X175888832Y-92904062D01*
X175956175Y-92769375D01*
X176023519Y-92702031D01*
X176158206Y-92634688D01*
X176225549Y-92634688D01*
X176494923Y-92365313D02*
X176494923Y-92297970D01*
X176528595Y-92196955D01*
X176696954Y-92028596D01*
X176797969Y-91994924D01*
X176865312Y-91994924D01*
X176966328Y-92028596D01*
X177033671Y-92095939D01*
X177101015Y-92230626D01*
X177101015Y-93038749D01*
X177538748Y-92601016D01*
X177168358Y-91691878D02*
X177168358Y-91624535D01*
X177202030Y-91523520D01*
X177370389Y-91355161D01*
X177471404Y-91321489D01*
X177538748Y-91321489D01*
X177639763Y-91355161D01*
X177707106Y-91422504D01*
X177774450Y-91557191D01*
X177774450Y-92365313D01*
X178212183Y-91927581D01*
X161847969Y-101457106D02*
X161847969Y-101524450D01*
X161780625Y-101659137D01*
X161713282Y-101726480D01*
X161578595Y-101793824D01*
X161443908Y-101793824D01*
X161342893Y-101760152D01*
X161174534Y-101659137D01*
X161073519Y-101558122D01*
X160972503Y-101389763D01*
X160938832Y-101288748D01*
X160938832Y-101154061D01*
X161006175Y-101019374D01*
X161073519Y-100952030D01*
X161208206Y-100884687D01*
X161275549Y-100884687D01*
X161544923Y-100615312D02*
X161544923Y-100547969D01*
X161578595Y-100446954D01*
X161746954Y-100278595D01*
X161847969Y-100244923D01*
X161915312Y-100244923D01*
X162016328Y-100278595D01*
X162083671Y-100345938D01*
X162151015Y-100480625D01*
X162151015Y-101288748D01*
X162588748Y-100851015D01*
X162117343Y-99908206D02*
X162555076Y-99470473D01*
X162588748Y-99975549D01*
X162689763Y-99874534D01*
X162790778Y-99840862D01*
X162858122Y-99840862D01*
X162959137Y-99874534D01*
X163127496Y-100042893D01*
X163161167Y-100143908D01*
X163161167Y-100211251D01*
X163127496Y-100312267D01*
X162925465Y-100514297D01*
X162824450Y-100547969D01*
X162757106Y-100547969D01*
X160847969Y-100207106D02*
X160847969Y-100274450D01*
X160780625Y-100409137D01*
X160713282Y-100476480D01*
X160578595Y-100543824D01*
X160443908Y-100543824D01*
X160342893Y-100510152D01*
X160174534Y-100409137D01*
X160073519Y-100308122D01*
X159972503Y-100139763D01*
X159938832Y-100038748D01*
X159938832Y-99904061D01*
X160006175Y-99769374D01*
X160073519Y-99702030D01*
X160208206Y-99634687D01*
X160275549Y-99634687D01*
X160544923Y-99365312D02*
X160544923Y-99297969D01*
X160578595Y-99196954D01*
X160746954Y-99028595D01*
X160847969Y-98994923D01*
X160915312Y-98994923D01*
X161016328Y-99028595D01*
X161083671Y-99095938D01*
X161151015Y-99230625D01*
X161151015Y-100038748D01*
X161588748Y-99601015D01*
X161723435Y-98523519D02*
X162194839Y-98994923D01*
X161285702Y-98422503D02*
X161622419Y-99095938D01*
X162060152Y-98658206D01*
X150092893Y-92047969D02*
X150025549Y-92047969D01*
X149890862Y-91980625D01*
X149823519Y-91913282D01*
X149756175Y-91778595D01*
X149756175Y-91643908D01*
X149789847Y-91542893D01*
X149890862Y-91374534D01*
X149991877Y-91273519D01*
X150160236Y-91172503D01*
X150261251Y-91138832D01*
X150395938Y-91138832D01*
X150530625Y-91206175D01*
X150597969Y-91273519D01*
X150665312Y-91408206D01*
X150665312Y-91475549D01*
X150934687Y-91744923D02*
X151002030Y-91744923D01*
X151103045Y-91778595D01*
X151271404Y-91946954D01*
X151305076Y-92047969D01*
X151305076Y-92115312D01*
X151271404Y-92216328D01*
X151204061Y-92283671D01*
X151069374Y-92351015D01*
X150261251Y-92351015D01*
X150698984Y-92788748D01*
X152045854Y-92721404D02*
X151709137Y-92384687D01*
X151338748Y-92687732D01*
X151406091Y-92687732D01*
X151507106Y-92721404D01*
X151675465Y-92889763D01*
X151709137Y-92990778D01*
X151709137Y-93058122D01*
X151675465Y-93159137D01*
X151507106Y-93327496D01*
X151406091Y-93361167D01*
X151338748Y-93361167D01*
X151237732Y-93327496D01*
X151069374Y-93159137D01*
X151035702Y-93058122D01*
X151035702Y-92990778D01*
X155097969Y-94707106D02*
X155097969Y-94774450D01*
X155030625Y-94909137D01*
X154963282Y-94976480D01*
X154828595Y-95043824D01*
X154693908Y-95043824D01*
X154592893Y-95010152D01*
X154424534Y-94909137D01*
X154323519Y-94808122D01*
X154222503Y-94639763D01*
X154188832Y-94538748D01*
X154188832Y-94404061D01*
X154256175Y-94269374D01*
X154323519Y-94202030D01*
X154458206Y-94134687D01*
X154525549Y-94134687D01*
X154794923Y-93865312D02*
X154794923Y-93797969D01*
X154828595Y-93696954D01*
X154996954Y-93528595D01*
X155097969Y-93494923D01*
X155165312Y-93494923D01*
X155266328Y-93528595D01*
X155333671Y-93595938D01*
X155401015Y-93730625D01*
X155401015Y-94538748D01*
X155838748Y-94101015D01*
X155737732Y-92787816D02*
X155603045Y-92922503D01*
X155569374Y-93023519D01*
X155569374Y-93090862D01*
X155603045Y-93259221D01*
X155704061Y-93427580D01*
X155973435Y-93696954D01*
X156074450Y-93730625D01*
X156141793Y-93730625D01*
X156242809Y-93696954D01*
X156377496Y-93562267D01*
X156411167Y-93461251D01*
X156411167Y-93393908D01*
X156377496Y-93292893D01*
X156209137Y-93124534D01*
X156108122Y-93090862D01*
X156040778Y-93090862D01*
X155939763Y-93124534D01*
X155805076Y-93259221D01*
X155771404Y-93360236D01*
X155771404Y-93427580D01*
X155805076Y-93528595D01*
X157836806Y-89945943D02*
X157836806Y-90013287D01*
X157769462Y-90147974D01*
X157702119Y-90215317D01*
X157567432Y-90282661D01*
X157432745Y-90282661D01*
X157331730Y-90248989D01*
X157163371Y-90147974D01*
X157062356Y-90046959D01*
X156961340Y-89878600D01*
X156927669Y-89777585D01*
X156927669Y-89642898D01*
X156995012Y-89508211D01*
X157062356Y-89440867D01*
X157197043Y-89373524D01*
X157264386Y-89373524D01*
X157533760Y-89104149D02*
X157533760Y-89036806D01*
X157567432Y-88935791D01*
X157735791Y-88767432D01*
X157836806Y-88733760D01*
X157904149Y-88733760D01*
X158005165Y-88767432D01*
X158072508Y-88834775D01*
X158139852Y-88969462D01*
X158139852Y-89777585D01*
X158577585Y-89339852D01*
X158106180Y-88397043D02*
X158577585Y-87925638D01*
X158981646Y-88935791D01*
X161997969Y-92107106D02*
X161997969Y-92174450D01*
X161930625Y-92309137D01*
X161863282Y-92376480D01*
X161728595Y-92443824D01*
X161593908Y-92443824D01*
X161492893Y-92410152D01*
X161324534Y-92309137D01*
X161223519Y-92208122D01*
X161122503Y-92039763D01*
X161088832Y-91938748D01*
X161088832Y-91804061D01*
X161156175Y-91669374D01*
X161223519Y-91602030D01*
X161358206Y-91534687D01*
X161425549Y-91534687D01*
X161694923Y-91265312D02*
X161694923Y-91197969D01*
X161728595Y-91096954D01*
X161896954Y-90928595D01*
X161997969Y-90894923D01*
X162065312Y-90894923D01*
X162166328Y-90928595D01*
X162233671Y-90995938D01*
X162301015Y-91130625D01*
X162301015Y-91938748D01*
X162738748Y-91501015D01*
X162738748Y-90692893D02*
X162637732Y-90726564D01*
X162570389Y-90726564D01*
X162469374Y-90692893D01*
X162435702Y-90659221D01*
X162402030Y-90558206D01*
X162402030Y-90490862D01*
X162435702Y-90389847D01*
X162570389Y-90255160D01*
X162671404Y-90221488D01*
X162738748Y-90221488D01*
X162839763Y-90255160D01*
X162873435Y-90288832D01*
X162907106Y-90389847D01*
X162907106Y-90457190D01*
X162873435Y-90558206D01*
X162738748Y-90692893D01*
X162705076Y-90793908D01*
X162705076Y-90861251D01*
X162738748Y-90962267D01*
X162873435Y-91096954D01*
X162974450Y-91130625D01*
X163041793Y-91130625D01*
X163142809Y-91096954D01*
X163277496Y-90962267D01*
X163311167Y-90861251D01*
X163311167Y-90793908D01*
X163277496Y-90692893D01*
X163142809Y-90558206D01*
X163041793Y-90524534D01*
X162974450Y-90524534D01*
X162873435Y-90558206D01*
X166859132Y-88718269D02*
X166859132Y-88785613D01*
X166791788Y-88920300D01*
X166724445Y-88987643D01*
X166589758Y-89054987D01*
X166455071Y-89054987D01*
X166354056Y-89021315D01*
X166185697Y-88920300D01*
X166084682Y-88819285D01*
X165983666Y-88650926D01*
X165949995Y-88549911D01*
X165949995Y-88415224D01*
X166017338Y-88280537D01*
X166084682Y-88213193D01*
X166219369Y-88145850D01*
X166286712Y-88145850D01*
X166556086Y-87876475D02*
X166556086Y-87809132D01*
X166589758Y-87708117D01*
X166758117Y-87539758D01*
X166859132Y-87506086D01*
X166926475Y-87506086D01*
X167027491Y-87539758D01*
X167094834Y-87607101D01*
X167162178Y-87741788D01*
X167162178Y-88549911D01*
X167599911Y-88112178D01*
X167936628Y-87775460D02*
X168071315Y-87640773D01*
X168104987Y-87539758D01*
X168104987Y-87472414D01*
X168071315Y-87304056D01*
X167970300Y-87135697D01*
X167700926Y-86866323D01*
X167599911Y-86832651D01*
X167532567Y-86832651D01*
X167431552Y-86866323D01*
X167296865Y-87001010D01*
X167263193Y-87102025D01*
X167263193Y-87169369D01*
X167296865Y-87270384D01*
X167465224Y-87438743D01*
X167566239Y-87472414D01*
X167633582Y-87472414D01*
X167734598Y-87438743D01*
X167869285Y-87304056D01*
X167902956Y-87203040D01*
X167902956Y-87135697D01*
X167869285Y-87034682D01*
X173097968Y-104207106D02*
X173097968Y-104274450D01*
X173030624Y-104409137D01*
X172963281Y-104476480D01*
X172828594Y-104543824D01*
X172693907Y-104543824D01*
X172592892Y-104510152D01*
X172424533Y-104409137D01*
X172323518Y-104308122D01*
X172222502Y-104139763D01*
X172188831Y-104038748D01*
X172188831Y-103904061D01*
X172256174Y-103769374D01*
X172323518Y-103702030D01*
X172458205Y-103634687D01*
X172525548Y-103634687D01*
X172693907Y-103331641D02*
X173131640Y-102893908D01*
X173165311Y-103398984D01*
X173266327Y-103297969D01*
X173367342Y-103264297D01*
X173434686Y-103264297D01*
X173535701Y-103297969D01*
X173704060Y-103466328D01*
X173737731Y-103567343D01*
X173737731Y-103634687D01*
X173704060Y-103735702D01*
X173502029Y-103937732D01*
X173401014Y-103971404D01*
X173333670Y-103971404D01*
X173569373Y-102456175D02*
X173636716Y-102388832D01*
X173737731Y-102355160D01*
X173805075Y-102355160D01*
X173906090Y-102388832D01*
X174074449Y-102489847D01*
X174242808Y-102658206D01*
X174343823Y-102826564D01*
X174377495Y-102927580D01*
X174377495Y-102994923D01*
X174343823Y-103095938D01*
X174276479Y-103163282D01*
X174175464Y-103196954D01*
X174108121Y-103196954D01*
X174007105Y-103163282D01*
X173838747Y-103062267D01*
X173670388Y-102893908D01*
X173569373Y-102725549D01*
X173535701Y-102624534D01*
X173535701Y-102557190D01*
X173569373Y-102456175D01*
X170097969Y-100707106D02*
X170097969Y-100774450D01*
X170030625Y-100909137D01*
X169963282Y-100976480D01*
X169828595Y-101043824D01*
X169693908Y-101043824D01*
X169592893Y-101010152D01*
X169424534Y-100909137D01*
X169323519Y-100808122D01*
X169222503Y-100639763D01*
X169188832Y-100538748D01*
X169188832Y-100404061D01*
X169256175Y-100269374D01*
X169323519Y-100202030D01*
X169458206Y-100134687D01*
X169525549Y-100134687D01*
X169693908Y-99831641D02*
X170131641Y-99393908D01*
X170165312Y-99898984D01*
X170266328Y-99797969D01*
X170367343Y-99764297D01*
X170434687Y-99764297D01*
X170535702Y-99797969D01*
X170704061Y-99966328D01*
X170737732Y-100067343D01*
X170737732Y-100134687D01*
X170704061Y-100235702D01*
X170502030Y-100437732D01*
X170401015Y-100471404D01*
X170333671Y-100471404D01*
X171512183Y-99427580D02*
X171108122Y-99831641D01*
X171310152Y-99629610D02*
X170603045Y-98922503D01*
X170636717Y-99090862D01*
X170636717Y-99225549D01*
X170603045Y-99326564D01*
X168957142Y-107157142D02*
X168909523Y-107204761D01*
X168766666Y-107252380D01*
X168671428Y-107252380D01*
X168528571Y-107204761D01*
X168433333Y-107109523D01*
X168385714Y-107014285D01*
X168338095Y-106823809D01*
X168338095Y-106680952D01*
X168385714Y-106490476D01*
X168433333Y-106395238D01*
X168528571Y-106300000D01*
X168671428Y-106252380D01*
X168766666Y-106252380D01*
X168909523Y-106300000D01*
X168957142Y-106347619D01*
X169290476Y-106252380D02*
X169909523Y-106252380D01*
X169576190Y-106633333D01*
X169719047Y-106633333D01*
X169814285Y-106680952D01*
X169861904Y-106728571D01*
X169909523Y-106823809D01*
X169909523Y-107061904D01*
X169861904Y-107157142D01*
X169814285Y-107204761D01*
X169719047Y-107252380D01*
X169433333Y-107252380D01*
X169338095Y-107204761D01*
X169290476Y-107157142D01*
X170290476Y-106347619D02*
X170338095Y-106300000D01*
X170433333Y-106252380D01*
X170671428Y-106252380D01*
X170766666Y-106300000D01*
X170814285Y-106347619D01*
X170861904Y-106442857D01*
X170861904Y-106538095D01*
X170814285Y-106680952D01*
X170242857Y-107252380D01*
X170861904Y-107252380D01*
X173842893Y-98547969D02*
X173775549Y-98547969D01*
X173640862Y-98480625D01*
X173573519Y-98413282D01*
X173506175Y-98278595D01*
X173506175Y-98143908D01*
X173539847Y-98042893D01*
X173640862Y-97874534D01*
X173741877Y-97773519D01*
X173910236Y-97672503D01*
X174011251Y-97638832D01*
X174145938Y-97638832D01*
X174280625Y-97706175D01*
X174347969Y-97773519D01*
X174415312Y-97908206D01*
X174415312Y-97975549D01*
X174718358Y-98143908D02*
X175156091Y-98581641D01*
X174651015Y-98615312D01*
X174752030Y-98716328D01*
X174785702Y-98817343D01*
X174785702Y-98884687D01*
X174752030Y-98985702D01*
X174583671Y-99154061D01*
X174482656Y-99187732D01*
X174415312Y-99187732D01*
X174314297Y-99154061D01*
X174112267Y-98952030D01*
X174078595Y-98851015D01*
X174078595Y-98783671D01*
X175391793Y-98817343D02*
X175829526Y-99255076D01*
X175324450Y-99288748D01*
X175425465Y-99389763D01*
X175459137Y-99490778D01*
X175459137Y-99558122D01*
X175425465Y-99659137D01*
X175257106Y-99827496D01*
X175156091Y-99861167D01*
X175088748Y-99861167D01*
X174987732Y-99827496D01*
X174785702Y-99625465D01*
X174752030Y-99524450D01*
X174752030Y-99457106D01*
X143161904Y-82252380D02*
X143161904Y-81252380D01*
X143400000Y-81252380D01*
X143542857Y-81300000D01*
X143638095Y-81395238D01*
X143685714Y-81490476D01*
X143733333Y-81680952D01*
X143733333Y-81823809D01*
X143685714Y-82014285D01*
X143638095Y-82109523D01*
X143542857Y-82204761D01*
X143400000Y-82252380D01*
X143161904Y-82252380D01*
X144685714Y-82252380D02*
X144114285Y-82252380D01*
X144400000Y-82252380D02*
X144400000Y-81252380D01*
X144304761Y-81395238D01*
X144209523Y-81490476D01*
X144114285Y-81538095D01*
X138502380Y-103988095D02*
X137502380Y-103988095D01*
X137502380Y-103750000D01*
X137550000Y-103607142D01*
X137645238Y-103511904D01*
X137740476Y-103464285D01*
X137930952Y-103416666D01*
X138073809Y-103416666D01*
X138264285Y-103464285D01*
X138359523Y-103511904D01*
X138454761Y-103607142D01*
X138502380Y-103750000D01*
X138502380Y-103988095D01*
X137597619Y-103035714D02*
X137550000Y-102988095D01*
X137502380Y-102892857D01*
X137502380Y-102654761D01*
X137550000Y-102559523D01*
X137597619Y-102511904D01*
X137692857Y-102464285D01*
X137788095Y-102464285D01*
X137930952Y-102511904D01*
X138502380Y-103083333D01*
X138502380Y-102464285D01*
X170061904Y-115252380D02*
X170061904Y-114252380D01*
X170300000Y-114252380D01*
X170442857Y-114300000D01*
X170538095Y-114395238D01*
X170585714Y-114490476D01*
X170633333Y-114680952D01*
X170633333Y-114823809D01*
X170585714Y-115014285D01*
X170538095Y-115109523D01*
X170442857Y-115204761D01*
X170300000Y-115252380D01*
X170061904Y-115252380D01*
X170966666Y-114252380D02*
X171585714Y-114252380D01*
X171252380Y-114633333D01*
X171395238Y-114633333D01*
X171490476Y-114680952D01*
X171538095Y-114728571D01*
X171585714Y-114823809D01*
X171585714Y-115061904D01*
X171538095Y-115157142D01*
X171490476Y-115204761D01*
X171395238Y-115252380D01*
X171109523Y-115252380D01*
X171014285Y-115204761D01*
X170966666Y-115157142D01*
X123966666Y-95928571D02*
X123633333Y-95928571D01*
X123633333Y-96452380D02*
X123633333Y-95452380D01*
X124109523Y-95452380D01*
X124823809Y-95928571D02*
X124966666Y-95976190D01*
X125014285Y-96023809D01*
X125061904Y-96119047D01*
X125061904Y-96261904D01*
X125014285Y-96357142D01*
X124966666Y-96404761D01*
X124871428Y-96452380D01*
X124490476Y-96452380D01*
X124490476Y-95452380D01*
X124823809Y-95452380D01*
X124919047Y-95500000D01*
X124966666Y-95547619D01*
X125014285Y-95642857D01*
X125014285Y-95738095D01*
X124966666Y-95833333D01*
X124919047Y-95880952D01*
X124823809Y-95928571D01*
X124490476Y-95928571D01*
X126014285Y-96452380D02*
X125442857Y-96452380D01*
X125728571Y-96452380D02*
X125728571Y-95452380D01*
X125633333Y-95595238D01*
X125538095Y-95690476D01*
X125442857Y-95738095D01*
X114466666Y-115452380D02*
X114466666Y-116166666D01*
X114419047Y-116309523D01*
X114323809Y-116404761D01*
X114180952Y-116452380D01*
X114085714Y-116452380D01*
X114895238Y-115547619D02*
X114942857Y-115500000D01*
X115038095Y-115452380D01*
X115276190Y-115452380D01*
X115371428Y-115500000D01*
X115419047Y-115547619D01*
X115466666Y-115642857D01*
X115466666Y-115738095D01*
X115419047Y-115880952D01*
X114847619Y-116452380D01*
X115466666Y-116452380D01*
X182966666Y-119750380D02*
X182966666Y-120464666D01*
X182919047Y-120607523D01*
X182823809Y-120702761D01*
X182680952Y-120750380D01*
X182585714Y-120750380D01*
X183347619Y-119750380D02*
X183966666Y-119750380D01*
X183633333Y-120131333D01*
X183776190Y-120131333D01*
X183871428Y-120178952D01*
X183919047Y-120226571D01*
X183966666Y-120321809D01*
X183966666Y-120559904D01*
X183919047Y-120655142D01*
X183871428Y-120702761D01*
X183776190Y-120750380D01*
X183490476Y-120750380D01*
X183395238Y-120702761D01*
X183347619Y-120655142D01*
X139962267Y-119002030D02*
X139625549Y-118665312D01*
X140332656Y-117958206D01*
X140568358Y-119608122D02*
X140164297Y-119204061D01*
X140366328Y-119406091D02*
X141073435Y-118698984D01*
X140905076Y-118732656D01*
X140770389Y-118732656D01*
X140669374Y-118698984D01*
X127220833Y-76572380D02*
X126887500Y-76096190D01*
X126649404Y-76572380D02*
X126649404Y-75572380D01*
X127030357Y-75572380D01*
X127125595Y-75620000D01*
X127173214Y-75667619D01*
X127220833Y-75762857D01*
X127220833Y-75905714D01*
X127173214Y-76000952D01*
X127125595Y-76048571D01*
X127030357Y-76096190D01*
X126649404Y-76096190D01*
X128173214Y-76572380D02*
X127601785Y-76572380D01*
X127887500Y-76572380D02*
X127887500Y-75572380D01*
X127792261Y-75715238D01*
X127697023Y-75810476D01*
X127601785Y-75858095D01*
X140333333Y-82622380D02*
X140000000Y-82146190D01*
X139761904Y-82622380D02*
X139761904Y-81622380D01*
X140142857Y-81622380D01*
X140238095Y-81670000D01*
X140285714Y-81717619D01*
X140333333Y-81812857D01*
X140333333Y-81955714D01*
X140285714Y-82050952D01*
X140238095Y-82098571D01*
X140142857Y-82146190D01*
X139761904Y-82146190D01*
X140714285Y-81717619D02*
X140761904Y-81670000D01*
X140857142Y-81622380D01*
X141095238Y-81622380D01*
X141190476Y-81670000D01*
X141238095Y-81717619D01*
X141285714Y-81812857D01*
X141285714Y-81908095D01*
X141238095Y-82050952D01*
X140666666Y-82622380D01*
X141285714Y-82622380D01*
X146252380Y-89766666D02*
X145776190Y-90100000D01*
X146252380Y-90338095D02*
X145252380Y-90338095D01*
X145252380Y-89957142D01*
X145300000Y-89861904D01*
X145347619Y-89814285D01*
X145442857Y-89766666D01*
X145585714Y-89766666D01*
X145680952Y-89814285D01*
X145728571Y-89861904D01*
X145776190Y-89957142D01*
X145776190Y-90338095D01*
X145252380Y-89433333D02*
X145252380Y-88814285D01*
X145633333Y-89147619D01*
X145633333Y-89004761D01*
X145680952Y-88909523D01*
X145728571Y-88861904D01*
X145823809Y-88814285D01*
X146061904Y-88814285D01*
X146157142Y-88861904D01*
X146204761Y-88909523D01*
X146252380Y-89004761D01*
X146252380Y-89290476D01*
X146204761Y-89385714D01*
X146157142Y-89433333D01*
X146252380Y-85966666D02*
X145776190Y-86300000D01*
X146252380Y-86538095D02*
X145252380Y-86538095D01*
X145252380Y-86157142D01*
X145300000Y-86061904D01*
X145347619Y-86014285D01*
X145442857Y-85966666D01*
X145585714Y-85966666D01*
X145680952Y-86014285D01*
X145728571Y-86061904D01*
X145776190Y-86157142D01*
X145776190Y-86538095D01*
X145585714Y-85109523D02*
X146252380Y-85109523D01*
X145204761Y-85347619D02*
X145919047Y-85585714D01*
X145919047Y-84966666D01*
X146252380Y-96166666D02*
X145776190Y-96500000D01*
X146252380Y-96738095D02*
X145252380Y-96738095D01*
X145252380Y-96357142D01*
X145300000Y-96261904D01*
X145347619Y-96214285D01*
X145442857Y-96166666D01*
X145585714Y-96166666D01*
X145680952Y-96214285D01*
X145728571Y-96261904D01*
X145776190Y-96357142D01*
X145776190Y-96738095D01*
X145252380Y-95261904D02*
X145252380Y-95738095D01*
X145728571Y-95785714D01*
X145680952Y-95738095D01*
X145633333Y-95642857D01*
X145633333Y-95404761D01*
X145680952Y-95309523D01*
X145728571Y-95261904D01*
X145823809Y-95214285D01*
X146061904Y-95214285D01*
X146157142Y-95261904D01*
X146204761Y-95309523D01*
X146252380Y-95404761D01*
X146252380Y-95642857D01*
X146204761Y-95738095D01*
X146157142Y-95785714D01*
X146252380Y-92366666D02*
X145776190Y-92700000D01*
X146252380Y-92938095D02*
X145252380Y-92938095D01*
X145252380Y-92557142D01*
X145300000Y-92461904D01*
X145347619Y-92414285D01*
X145442857Y-92366666D01*
X145585714Y-92366666D01*
X145680952Y-92414285D01*
X145728571Y-92461904D01*
X145776190Y-92557142D01*
X145776190Y-92938095D01*
X145252380Y-91509523D02*
X145252380Y-91700000D01*
X145300000Y-91795238D01*
X145347619Y-91842857D01*
X145490476Y-91938095D01*
X145680952Y-91985714D01*
X146061904Y-91985714D01*
X146157142Y-91938095D01*
X146204761Y-91890476D01*
X146252380Y-91795238D01*
X146252380Y-91604761D01*
X146204761Y-91509523D01*
X146157142Y-91461904D01*
X146061904Y-91414285D01*
X145823809Y-91414285D01*
X145728571Y-91461904D01*
X145680952Y-91509523D01*
X145633333Y-91604761D01*
X145633333Y-91795238D01*
X145680952Y-91890476D01*
X145728571Y-91938095D01*
X145823809Y-91985714D01*
X150002380Y-99666666D02*
X149526190Y-100000000D01*
X150002380Y-100238095D02*
X149002380Y-100238095D01*
X149002380Y-99857142D01*
X149050000Y-99761904D01*
X149097619Y-99714285D01*
X149192857Y-99666666D01*
X149335714Y-99666666D01*
X149430952Y-99714285D01*
X149478571Y-99761904D01*
X149526190Y-99857142D01*
X149526190Y-100238095D01*
X149002380Y-99333333D02*
X149002380Y-98666666D01*
X150002380Y-99095238D01*
X144402030Y-106237732D02*
X143829610Y-106136717D01*
X143997969Y-106641793D02*
X143290862Y-105934687D01*
X143560236Y-105665312D01*
X143661251Y-105631641D01*
X143728595Y-105631641D01*
X143829610Y-105665312D01*
X143930625Y-105766328D01*
X143964297Y-105867343D01*
X143964297Y-105934687D01*
X143930625Y-106035702D01*
X143661251Y-106305076D01*
X144738748Y-105901015D02*
X144873435Y-105766328D01*
X144907106Y-105665312D01*
X144907106Y-105597969D01*
X144873435Y-105429610D01*
X144772419Y-105261251D01*
X144503045Y-104991877D01*
X144402030Y-104958206D01*
X144334687Y-104958206D01*
X144233671Y-104991877D01*
X144098984Y-105126564D01*
X144065312Y-105227580D01*
X144065312Y-105294923D01*
X144098984Y-105395938D01*
X144267343Y-105564297D01*
X144368358Y-105597969D01*
X144435702Y-105597969D01*
X144536717Y-105564297D01*
X144671404Y-105429610D01*
X144705076Y-105328595D01*
X144705076Y-105261251D01*
X144671404Y-105160236D01*
X151825549Y-110665312D02*
X151926564Y-110092893D01*
X151421488Y-110261251D02*
X152128595Y-109554145D01*
X152397969Y-109823519D01*
X152431641Y-109924534D01*
X152431641Y-109991877D01*
X152397969Y-110092893D01*
X152296954Y-110193908D01*
X152195938Y-110227580D01*
X152128595Y-110227580D01*
X152027580Y-110193908D01*
X151758206Y-109924534D01*
X152498984Y-111338748D02*
X152094923Y-110934687D01*
X152296954Y-111136717D02*
X153004061Y-110429610D01*
X152835702Y-110463282D01*
X152701015Y-110463282D01*
X152600000Y-110429610D01*
X153643824Y-111069374D02*
X153711167Y-111136717D01*
X153744839Y-111237732D01*
X153744839Y-111305076D01*
X153711167Y-111406091D01*
X153610152Y-111574450D01*
X153441793Y-111742809D01*
X153273435Y-111843824D01*
X153172419Y-111877496D01*
X153105076Y-111877496D01*
X153004061Y-111843824D01*
X152936717Y-111776480D01*
X152903045Y-111675465D01*
X152903045Y-111608122D01*
X152936717Y-111507106D01*
X153037732Y-111338748D01*
X153206091Y-111170389D01*
X153374450Y-111069374D01*
X153475465Y-111035702D01*
X153542809Y-111035702D01*
X153643824Y-111069374D01*
X153025549Y-108065313D02*
X153126564Y-107492894D01*
X152621488Y-107661252D02*
X153328595Y-106954146D01*
X153597969Y-107223520D01*
X153631641Y-107324535D01*
X153631641Y-107391878D01*
X153597969Y-107492894D01*
X153496954Y-107593909D01*
X153395938Y-107627581D01*
X153328595Y-107627581D01*
X153227580Y-107593909D01*
X152958206Y-107324535D01*
X153698984Y-108738749D02*
X153294923Y-108334688D01*
X153496954Y-108536718D02*
X154204061Y-107829611D01*
X154035702Y-107863283D01*
X153901015Y-107863283D01*
X153800000Y-107829611D01*
X154372419Y-109412184D02*
X153968358Y-109008123D01*
X154170389Y-109210153D02*
X154877496Y-108503046D01*
X154709137Y-108536718D01*
X154574450Y-108536718D01*
X154473435Y-108503046D01*
X154025549Y-106865312D02*
X154126564Y-106292893D01*
X153621488Y-106461251D02*
X154328595Y-105754145D01*
X154597969Y-106023519D01*
X154631641Y-106124534D01*
X154631641Y-106191877D01*
X154597969Y-106292893D01*
X154496954Y-106393908D01*
X154395938Y-106427580D01*
X154328595Y-106427580D01*
X154227580Y-106393908D01*
X153958206Y-106124534D01*
X154698984Y-107538748D02*
X154294923Y-107134687D01*
X154496954Y-107336717D02*
X155204061Y-106629610D01*
X155035702Y-106663282D01*
X154901015Y-106663282D01*
X154800000Y-106629610D01*
X155608122Y-107168358D02*
X155675465Y-107168358D01*
X155776480Y-107202030D01*
X155944839Y-107370389D01*
X155978511Y-107471404D01*
X155978511Y-107538748D01*
X155944839Y-107639763D01*
X155877496Y-107707106D01*
X155742809Y-107774450D01*
X154934687Y-107774450D01*
X155372419Y-108212183D01*
X150625549Y-107665312D02*
X150726564Y-107092893D01*
X150221488Y-107261251D02*
X150928595Y-106554145D01*
X151197969Y-106823519D01*
X151231641Y-106924534D01*
X151231641Y-106991877D01*
X151197969Y-107092893D01*
X151096954Y-107193908D01*
X150995938Y-107227580D01*
X150928595Y-107227580D01*
X150827580Y-107193908D01*
X150558206Y-106924534D01*
X151298984Y-108338748D02*
X150894923Y-107934687D01*
X151096954Y-108136717D02*
X151804061Y-107429610D01*
X151635702Y-107463282D01*
X151501015Y-107463282D01*
X151400000Y-107429610D01*
X152241793Y-107867343D02*
X152679526Y-108305076D01*
X152174450Y-108338748D01*
X152275465Y-108439763D01*
X152309137Y-108540778D01*
X152309137Y-108608122D01*
X152275465Y-108709137D01*
X152107106Y-108877496D01*
X152006091Y-108911167D01*
X151938748Y-108911167D01*
X151837732Y-108877496D01*
X151635702Y-108675465D01*
X151602030Y-108574450D01*
X151602030Y-108507106D01*
X159165312Y-99024450D02*
X158592893Y-98923435D01*
X158761251Y-99428511D02*
X158054145Y-98721404D01*
X158323519Y-98452030D01*
X158424534Y-98418358D01*
X158491877Y-98418358D01*
X158592893Y-98452030D01*
X158693908Y-98553045D01*
X158727580Y-98654061D01*
X158727580Y-98721404D01*
X158693908Y-98822419D01*
X158424534Y-99091793D01*
X159838748Y-98351015D02*
X159434687Y-98755076D01*
X159636717Y-98553045D02*
X158929610Y-97845938D01*
X158963282Y-98014297D01*
X158963282Y-98148984D01*
X158929610Y-98250000D01*
X159973435Y-97273519D02*
X160444839Y-97744923D01*
X159535702Y-97172503D02*
X159872419Y-97845938D01*
X160310152Y-97408206D01*
X150825549Y-105865312D02*
X150926564Y-105292893D01*
X150421488Y-105461251D02*
X151128595Y-104754145D01*
X151397969Y-105023519D01*
X151431641Y-105124534D01*
X151431641Y-105191877D01*
X151397969Y-105292893D01*
X151296954Y-105393908D01*
X151195938Y-105427580D01*
X151128595Y-105427580D01*
X151027580Y-105393908D01*
X150758206Y-105124534D01*
X151498984Y-106538748D02*
X151094923Y-106134687D01*
X151296954Y-106336717D02*
X152004061Y-105629610D01*
X151835702Y-105663282D01*
X151701015Y-105663282D01*
X151600000Y-105629610D01*
X152845854Y-106471404D02*
X152509137Y-106134687D01*
X152138748Y-106437732D01*
X152206091Y-106437732D01*
X152307106Y-106471404D01*
X152475465Y-106639763D01*
X152509137Y-106740778D01*
X152509137Y-106808122D01*
X152475465Y-106909137D01*
X152307106Y-107077496D01*
X152206091Y-107111167D01*
X152138748Y-107111167D01*
X152037732Y-107077496D01*
X151869374Y-106909137D01*
X151835702Y-106808122D01*
X151835702Y-106740778D01*
X151825549Y-104665312D02*
X151926564Y-104092893D01*
X151421488Y-104261251D02*
X152128595Y-103554145D01*
X152397969Y-103823519D01*
X152431641Y-103924534D01*
X152431641Y-103991877D01*
X152397969Y-104092893D01*
X152296954Y-104193908D01*
X152195938Y-104227580D01*
X152128595Y-104227580D01*
X152027580Y-104193908D01*
X151758206Y-103924534D01*
X152498984Y-105338748D02*
X152094923Y-104934687D01*
X152296954Y-105136717D02*
X153004061Y-104429610D01*
X152835702Y-104463282D01*
X152701015Y-104463282D01*
X152600000Y-104429610D01*
X153812183Y-105237732D02*
X153677496Y-105103045D01*
X153576480Y-105069374D01*
X153509137Y-105069374D01*
X153340778Y-105103045D01*
X153172419Y-105204061D01*
X152903045Y-105473435D01*
X152869374Y-105574450D01*
X152869374Y-105641793D01*
X152903045Y-105742809D01*
X153037732Y-105877496D01*
X153138748Y-105911167D01*
X153206091Y-105911167D01*
X153307106Y-105877496D01*
X153475465Y-105709137D01*
X153509137Y-105608122D01*
X153509137Y-105540778D01*
X153475465Y-105439763D01*
X153340778Y-105305076D01*
X153239763Y-105271404D01*
X153172419Y-105271404D01*
X153071404Y-105305076D01*
X147436712Y-120454149D02*
X147537727Y-119881730D01*
X147032651Y-120050088D02*
X147739758Y-119342982D01*
X148009132Y-119612356D01*
X148042804Y-119713371D01*
X148042804Y-119780714D01*
X148009132Y-119881730D01*
X147908117Y-119982745D01*
X147807101Y-120016417D01*
X147739758Y-120016417D01*
X147638743Y-119982745D01*
X147369369Y-119713371D01*
X148110147Y-121127585D02*
X147706086Y-120723524D01*
X147908117Y-120925554D02*
X148615224Y-120218447D01*
X148446865Y-120252119D01*
X148312178Y-120252119D01*
X148211163Y-120218447D01*
X149052956Y-120656180D02*
X149524361Y-121127585D01*
X148514208Y-121531646D01*
X139002380Y-100642857D02*
X138526190Y-100976190D01*
X139002380Y-101214285D02*
X138002380Y-101214285D01*
X138002380Y-100833333D01*
X138050000Y-100738095D01*
X138097619Y-100690476D01*
X138192857Y-100642857D01*
X138335714Y-100642857D01*
X138430952Y-100690476D01*
X138478571Y-100738095D01*
X138526190Y-100833333D01*
X138526190Y-101214285D01*
X139002380Y-99690476D02*
X139002380Y-100261904D01*
X139002380Y-99976190D02*
X138002380Y-99976190D01*
X138145238Y-100071428D01*
X138240476Y-100166666D01*
X138288095Y-100261904D01*
X138430952Y-99119047D02*
X138383333Y-99214285D01*
X138335714Y-99261904D01*
X138240476Y-99309523D01*
X138192857Y-99309523D01*
X138097619Y-99261904D01*
X138050000Y-99214285D01*
X138002380Y-99119047D01*
X138002380Y-98928571D01*
X138050000Y-98833333D01*
X138097619Y-98785714D01*
X138192857Y-98738095D01*
X138240476Y-98738095D01*
X138335714Y-98785714D01*
X138383333Y-98833333D01*
X138430952Y-98928571D01*
X138430952Y-99119047D01*
X138478571Y-99214285D01*
X138526190Y-99261904D01*
X138621428Y-99309523D01*
X138811904Y-99309523D01*
X138907142Y-99261904D01*
X138954761Y-99214285D01*
X139002380Y-99119047D01*
X139002380Y-98928571D01*
X138954761Y-98833333D01*
X138907142Y-98785714D01*
X138811904Y-98738095D01*
X138621428Y-98738095D01*
X138526190Y-98785714D01*
X138478571Y-98833333D01*
X138430952Y-98928571D01*
X141065312Y-107174450D02*
X140492893Y-107073435D01*
X140661251Y-107578511D02*
X139954145Y-106871404D01*
X140223519Y-106602030D01*
X140324534Y-106568358D01*
X140391877Y-106568358D01*
X140492893Y-106602030D01*
X140593908Y-106703045D01*
X140627580Y-106804061D01*
X140627580Y-106871404D01*
X140593908Y-106972419D01*
X140324534Y-107241793D01*
X141738748Y-106501015D02*
X141334687Y-106905076D01*
X141536717Y-106703045D02*
X140829610Y-105995938D01*
X140863282Y-106164297D01*
X140863282Y-106298984D01*
X140829610Y-106400000D01*
X142075465Y-106164297D02*
X142210152Y-106029610D01*
X142243824Y-105928595D01*
X142243824Y-105861251D01*
X142210152Y-105692893D01*
X142109137Y-105524534D01*
X141839763Y-105255160D01*
X141738748Y-105221488D01*
X141671404Y-105221488D01*
X141570389Y-105255160D01*
X141435702Y-105389847D01*
X141402030Y-105490862D01*
X141402030Y-105558206D01*
X141435702Y-105659221D01*
X141604061Y-105827580D01*
X141705076Y-105861251D01*
X141772419Y-105861251D01*
X141873435Y-105827580D01*
X142008122Y-105692893D01*
X142041793Y-105591877D01*
X142041793Y-105524534D01*
X142008122Y-105423519D01*
X120157142Y-96202380D02*
X119823809Y-95726190D01*
X119585714Y-96202380D02*
X119585714Y-95202380D01*
X119966666Y-95202380D01*
X120061904Y-95250000D01*
X120109523Y-95297619D01*
X120157142Y-95392857D01*
X120157142Y-95535714D01*
X120109523Y-95630952D01*
X120061904Y-95678571D01*
X119966666Y-95726190D01*
X119585714Y-95726190D01*
X120538095Y-95297619D02*
X120585714Y-95250000D01*
X120680952Y-95202380D01*
X120919047Y-95202380D01*
X121014285Y-95250000D01*
X121061904Y-95297619D01*
X121109523Y-95392857D01*
X121109523Y-95488095D01*
X121061904Y-95630952D01*
X120490476Y-96202380D01*
X121109523Y-96202380D01*
X121728571Y-95202380D02*
X121823809Y-95202380D01*
X121919047Y-95250000D01*
X121966666Y-95297619D01*
X122014285Y-95392857D01*
X122061904Y-95583333D01*
X122061904Y-95821428D01*
X122014285Y-96011904D01*
X121966666Y-96107142D01*
X121919047Y-96154761D01*
X121823809Y-96202380D01*
X121728571Y-96202380D01*
X121633333Y-96154761D01*
X121585714Y-96107142D01*
X121538095Y-96011904D01*
X121490476Y-95821428D01*
X121490476Y-95583333D01*
X121538095Y-95392857D01*
X121585714Y-95297619D01*
X121633333Y-95250000D01*
X121728571Y-95202380D01*
X115944642Y-96202380D02*
X115611309Y-95726190D01*
X115373214Y-96202380D02*
X115373214Y-95202380D01*
X115754166Y-95202380D01*
X115849404Y-95250000D01*
X115897023Y-95297619D01*
X115944642Y-95392857D01*
X115944642Y-95535714D01*
X115897023Y-95630952D01*
X115849404Y-95678571D01*
X115754166Y-95726190D01*
X115373214Y-95726190D01*
X116325595Y-95297619D02*
X116373214Y-95250000D01*
X116468452Y-95202380D01*
X116706547Y-95202380D01*
X116801785Y-95250000D01*
X116849404Y-95297619D01*
X116897023Y-95392857D01*
X116897023Y-95488095D01*
X116849404Y-95630952D01*
X116277976Y-96202380D01*
X116897023Y-96202380D01*
X117849404Y-96202380D02*
X117277976Y-96202380D01*
X117563690Y-96202380D02*
X117563690Y-95202380D01*
X117468452Y-95345238D01*
X117373214Y-95440476D01*
X117277976Y-95488095D01*
X123157142Y-120952380D02*
X122823809Y-120476190D01*
X122585714Y-120952380D02*
X122585714Y-119952380D01*
X122966666Y-119952380D01*
X123061904Y-120000000D01*
X123109523Y-120047619D01*
X123157142Y-120142857D01*
X123157142Y-120285714D01*
X123109523Y-120380952D01*
X123061904Y-120428571D01*
X122966666Y-120476190D01*
X122585714Y-120476190D01*
X123538095Y-120047619D02*
X123585714Y-120000000D01*
X123680952Y-119952380D01*
X123919047Y-119952380D01*
X124014285Y-120000000D01*
X124061904Y-120047619D01*
X124109523Y-120142857D01*
X124109523Y-120238095D01*
X124061904Y-120380952D01*
X123490476Y-120952380D01*
X124109523Y-120952380D01*
X124490476Y-120047619D02*
X124538095Y-120000000D01*
X124633333Y-119952380D01*
X124871428Y-119952380D01*
X124966666Y-120000000D01*
X125014285Y-120047619D01*
X125061904Y-120142857D01*
X125061904Y-120238095D01*
X125014285Y-120380952D01*
X124442857Y-120952380D01*
X125061904Y-120952380D01*
X123157142Y-119452380D02*
X122823809Y-118976190D01*
X122585714Y-119452380D02*
X122585714Y-118452380D01*
X122966666Y-118452380D01*
X123061904Y-118500000D01*
X123109523Y-118547619D01*
X123157142Y-118642857D01*
X123157142Y-118785714D01*
X123109523Y-118880952D01*
X123061904Y-118928571D01*
X122966666Y-118976190D01*
X122585714Y-118976190D01*
X123538095Y-118547619D02*
X123585714Y-118500000D01*
X123680952Y-118452380D01*
X123919047Y-118452380D01*
X124014285Y-118500000D01*
X124061904Y-118547619D01*
X124109523Y-118642857D01*
X124109523Y-118738095D01*
X124061904Y-118880952D01*
X123490476Y-119452380D01*
X124109523Y-119452380D01*
X124442857Y-118452380D02*
X125061904Y-118452380D01*
X124728571Y-118833333D01*
X124871428Y-118833333D01*
X124966666Y-118880952D01*
X125014285Y-118928571D01*
X125061904Y-119023809D01*
X125061904Y-119261904D01*
X125014285Y-119357142D01*
X124966666Y-119404761D01*
X124871428Y-119452380D01*
X124585714Y-119452380D01*
X124490476Y-119404761D01*
X124442857Y-119357142D01*
X129907142Y-117882380D02*
X129573809Y-117406190D01*
X129335714Y-117882380D02*
X129335714Y-116882380D01*
X129716666Y-116882380D01*
X129811904Y-116930000D01*
X129859523Y-116977619D01*
X129907142Y-117072857D01*
X129907142Y-117215714D01*
X129859523Y-117310952D01*
X129811904Y-117358571D01*
X129716666Y-117406190D01*
X129335714Y-117406190D01*
X130288095Y-116977619D02*
X130335714Y-116930000D01*
X130430952Y-116882380D01*
X130669047Y-116882380D01*
X130764285Y-116930000D01*
X130811904Y-116977619D01*
X130859523Y-117072857D01*
X130859523Y-117168095D01*
X130811904Y-117310952D01*
X130240476Y-117882380D01*
X130859523Y-117882380D01*
X131716666Y-117215714D02*
X131716666Y-117882380D01*
X131478571Y-116834761D02*
X131240476Y-117549047D01*
X131859523Y-117549047D01*
X159614386Y-94476475D02*
X159715401Y-93904056D01*
X159210325Y-94072414D02*
X159917432Y-93365308D01*
X160186806Y-93634682D01*
X160220478Y-93735697D01*
X160220478Y-93803040D01*
X160186806Y-93904056D01*
X160085791Y-94005071D01*
X159984775Y-94038743D01*
X159917432Y-94038743D01*
X159816417Y-94005071D01*
X159547043Y-93735697D01*
X160523524Y-94106086D02*
X160590867Y-94106086D01*
X160691882Y-94139758D01*
X160860241Y-94308117D01*
X160893913Y-94409132D01*
X160893913Y-94476475D01*
X160860241Y-94577491D01*
X160792898Y-94644834D01*
X160658211Y-94712178D01*
X159850088Y-94712178D01*
X160287821Y-95149911D01*
X161634691Y-95082567D02*
X161297974Y-94745850D01*
X160927585Y-95048895D01*
X160994928Y-95048895D01*
X161095943Y-95082567D01*
X161264302Y-95250926D01*
X161297974Y-95351941D01*
X161297974Y-95419285D01*
X161264302Y-95520300D01*
X161095943Y-95688659D01*
X160994928Y-95722330D01*
X160927585Y-95722330D01*
X160826569Y-95688659D01*
X160658211Y-95520300D01*
X160624539Y-95419285D01*
X160624539Y-95351941D01*
X165025549Y-98115312D02*
X165126564Y-97542893D01*
X164621488Y-97711251D02*
X165328595Y-97004145D01*
X165597969Y-97273519D01*
X165631641Y-97374534D01*
X165631641Y-97441877D01*
X165597969Y-97542893D01*
X165496954Y-97643908D01*
X165395938Y-97677580D01*
X165328595Y-97677580D01*
X165227580Y-97643908D01*
X164958206Y-97374534D01*
X165934687Y-97744923D02*
X166002030Y-97744923D01*
X166103045Y-97778595D01*
X166271404Y-97946954D01*
X166305076Y-98047969D01*
X166305076Y-98115312D01*
X166271404Y-98216328D01*
X166204061Y-98283671D01*
X166069374Y-98351015D01*
X165261251Y-98351015D01*
X165698984Y-98788748D01*
X167012183Y-98687732D02*
X166877496Y-98553045D01*
X166776480Y-98519374D01*
X166709137Y-98519374D01*
X166540778Y-98553045D01*
X166372419Y-98654061D01*
X166103045Y-98923435D01*
X166069374Y-99024450D01*
X166069374Y-99091793D01*
X166103045Y-99192809D01*
X166237732Y-99327496D01*
X166338748Y-99361167D01*
X166406091Y-99361167D01*
X166507106Y-99327496D01*
X166675465Y-99159137D01*
X166709137Y-99058122D01*
X166709137Y-98990778D01*
X166675465Y-98889763D01*
X166540778Y-98755076D01*
X166439763Y-98721404D01*
X166372419Y-98721404D01*
X166271404Y-98755076D01*
X171452380Y-109442857D02*
X170976190Y-109776190D01*
X171452380Y-110014285D02*
X170452380Y-110014285D01*
X170452380Y-109633333D01*
X170500000Y-109538095D01*
X170547619Y-109490476D01*
X170642857Y-109442857D01*
X170785714Y-109442857D01*
X170880952Y-109490476D01*
X170928571Y-109538095D01*
X170976190Y-109633333D01*
X170976190Y-110014285D01*
X170547619Y-109061904D02*
X170500000Y-109014285D01*
X170452380Y-108919047D01*
X170452380Y-108680952D01*
X170500000Y-108585714D01*
X170547619Y-108538095D01*
X170642857Y-108490476D01*
X170738095Y-108490476D01*
X170880952Y-108538095D01*
X171452380Y-109109523D01*
X171452380Y-108490476D01*
X170452380Y-108157142D02*
X170452380Y-107490476D01*
X171452380Y-107919047D01*
X159657142Y-115372380D02*
X159323809Y-114896190D01*
X159085714Y-115372380D02*
X159085714Y-114372380D01*
X159466666Y-114372380D01*
X159561904Y-114420000D01*
X159609523Y-114467619D01*
X159657142Y-114562857D01*
X159657142Y-114705714D01*
X159609523Y-114800952D01*
X159561904Y-114848571D01*
X159466666Y-114896190D01*
X159085714Y-114896190D01*
X160038095Y-114467619D02*
X160085714Y-114420000D01*
X160180952Y-114372380D01*
X160419047Y-114372380D01*
X160514285Y-114420000D01*
X160561904Y-114467619D01*
X160609523Y-114562857D01*
X160609523Y-114658095D01*
X160561904Y-114800952D01*
X159990476Y-115372380D01*
X160609523Y-115372380D01*
X161180952Y-114800952D02*
X161085714Y-114753333D01*
X161038095Y-114705714D01*
X160990476Y-114610476D01*
X160990476Y-114562857D01*
X161038095Y-114467619D01*
X161085714Y-114420000D01*
X161180952Y-114372380D01*
X161371428Y-114372380D01*
X161466666Y-114420000D01*
X161514285Y-114467619D01*
X161561904Y-114562857D01*
X161561904Y-114610476D01*
X161514285Y-114705714D01*
X161466666Y-114753333D01*
X161371428Y-114800952D01*
X161180952Y-114800952D01*
X161085714Y-114848571D01*
X161038095Y-114896190D01*
X160990476Y-114991428D01*
X160990476Y-115181904D01*
X161038095Y-115277142D01*
X161085714Y-115324761D01*
X161180952Y-115372380D01*
X161371428Y-115372380D01*
X161466666Y-115324761D01*
X161514285Y-115277142D01*
X161561904Y-115181904D01*
X161561904Y-114991428D01*
X161514285Y-114896190D01*
X161466666Y-114848571D01*
X161371428Y-114800952D01*
X163157142Y-115452380D02*
X162823809Y-114976190D01*
X162585714Y-115452380D02*
X162585714Y-114452380D01*
X162966666Y-114452380D01*
X163061904Y-114500000D01*
X163109523Y-114547619D01*
X163157142Y-114642857D01*
X163157142Y-114785714D01*
X163109523Y-114880952D01*
X163061904Y-114928571D01*
X162966666Y-114976190D01*
X162585714Y-114976190D01*
X163538095Y-114547619D02*
X163585714Y-114500000D01*
X163680952Y-114452380D01*
X163919047Y-114452380D01*
X164014285Y-114500000D01*
X164061904Y-114547619D01*
X164109523Y-114642857D01*
X164109523Y-114738095D01*
X164061904Y-114880952D01*
X163490476Y-115452380D01*
X164109523Y-115452380D01*
X164585714Y-115452380D02*
X164776190Y-115452380D01*
X164871428Y-115404761D01*
X164919047Y-115357142D01*
X165014285Y-115214285D01*
X165061904Y-115023809D01*
X165061904Y-114642857D01*
X165014285Y-114547619D01*
X164966666Y-114500000D01*
X164871428Y-114452380D01*
X164680952Y-114452380D01*
X164585714Y-114500000D01*
X164538095Y-114547619D01*
X164490476Y-114642857D01*
X164490476Y-114880952D01*
X164538095Y-114976190D01*
X164585714Y-115023809D01*
X164680952Y-115071428D01*
X164871428Y-115071428D01*
X164966666Y-115023809D01*
X165014285Y-114976190D01*
X165061904Y-114880952D01*
X167594642Y-115372380D02*
X167261309Y-114896190D01*
X167023214Y-115372380D02*
X167023214Y-114372380D01*
X167404166Y-114372380D01*
X167499404Y-114420000D01*
X167547023Y-114467619D01*
X167594642Y-114562857D01*
X167594642Y-114705714D01*
X167547023Y-114800952D01*
X167499404Y-114848571D01*
X167404166Y-114896190D01*
X167023214Y-114896190D01*
X167927976Y-114372380D02*
X168547023Y-114372380D01*
X168213690Y-114753333D01*
X168356547Y-114753333D01*
X168451785Y-114800952D01*
X168499404Y-114848571D01*
X168547023Y-114943809D01*
X168547023Y-115181904D01*
X168499404Y-115277142D01*
X168451785Y-115324761D01*
X168356547Y-115372380D01*
X168070833Y-115372380D01*
X167975595Y-115324761D01*
X167927976Y-115277142D01*
X169166071Y-114372380D02*
X169261309Y-114372380D01*
X169356547Y-114420000D01*
X169404166Y-114467619D01*
X169451785Y-114562857D01*
X169499404Y-114753333D01*
X169499404Y-114991428D01*
X169451785Y-115181904D01*
X169404166Y-115277142D01*
X169356547Y-115324761D01*
X169261309Y-115372380D01*
X169166071Y-115372380D01*
X169070833Y-115324761D01*
X169023214Y-115277142D01*
X168975595Y-115181904D01*
X168927976Y-114991428D01*
X168927976Y-114753333D01*
X168975595Y-114562857D01*
X169023214Y-114467619D01*
X169070833Y-114420000D01*
X169166071Y-114372380D01*
X164025549Y-104615313D02*
X164126564Y-104042894D01*
X163621488Y-104211252D02*
X164328595Y-103504146D01*
X164597969Y-103773520D01*
X164631641Y-103874535D01*
X164631641Y-103941878D01*
X164597969Y-104042894D01*
X164496954Y-104143909D01*
X164395938Y-104177581D01*
X164328595Y-104177581D01*
X164227580Y-104143909D01*
X163958206Y-103874535D01*
X164968358Y-104143909D02*
X165406091Y-104581642D01*
X164901015Y-104615313D01*
X165002030Y-104716329D01*
X165035702Y-104817344D01*
X165035702Y-104884688D01*
X165002030Y-104985703D01*
X164833671Y-105154062D01*
X164732656Y-105187733D01*
X164665312Y-105187733D01*
X164564297Y-105154062D01*
X164362267Y-104952031D01*
X164328595Y-104851016D01*
X164328595Y-104783672D01*
X165372419Y-105962184D02*
X164968358Y-105558123D01*
X165170389Y-105760153D02*
X165877496Y-105053046D01*
X165709137Y-105086718D01*
X165574450Y-105086718D01*
X165473435Y-105053046D01*
X154604761Y-121333333D02*
X154652380Y-121190476D01*
X154652380Y-120952380D01*
X154604761Y-120857142D01*
X154557142Y-120809523D01*
X154461904Y-120761904D01*
X154366666Y-120761904D01*
X154271428Y-120809523D01*
X154223809Y-120857142D01*
X154176190Y-120952380D01*
X154128571Y-121142857D01*
X154080952Y-121238095D01*
X154033333Y-121285714D01*
X153938095Y-121333333D01*
X153842857Y-121333333D01*
X153747619Y-121285714D01*
X153700000Y-121238095D01*
X153652380Y-121142857D01*
X153652380Y-120904761D01*
X153700000Y-120761904D01*
X153652380Y-120428571D02*
X154652380Y-120190476D01*
X153938095Y-120000000D01*
X154652380Y-119809523D01*
X153652380Y-119571428D01*
X154652380Y-118666666D02*
X154652380Y-119238095D01*
X154652380Y-118952380D02*
X153652380Y-118952380D01*
X153795238Y-119047619D01*
X153890476Y-119142857D01*
X153938095Y-119238095D01*
X162604761Y-121333333D02*
X162652380Y-121190476D01*
X162652380Y-120952380D01*
X162604761Y-120857142D01*
X162557142Y-120809523D01*
X162461904Y-120761904D01*
X162366666Y-120761904D01*
X162271428Y-120809523D01*
X162223809Y-120857142D01*
X162176190Y-120952380D01*
X162128571Y-121142857D01*
X162080952Y-121238095D01*
X162033333Y-121285714D01*
X161938095Y-121333333D01*
X161842857Y-121333333D01*
X161747619Y-121285714D01*
X161700000Y-121238095D01*
X161652380Y-121142857D01*
X161652380Y-120904761D01*
X161700000Y-120761904D01*
X161652380Y-120428571D02*
X162652380Y-120190476D01*
X161938095Y-120000000D01*
X162652380Y-119809523D01*
X161652380Y-119571428D01*
X161747619Y-119238095D02*
X161700000Y-119190476D01*
X161652380Y-119095238D01*
X161652380Y-118857142D01*
X161700000Y-118761904D01*
X161747619Y-118714285D01*
X161842857Y-118666666D01*
X161938095Y-118666666D01*
X162080952Y-118714285D01*
X162652380Y-119285714D01*
X162652380Y-118666666D01*
X188288095Y-108702380D02*
X188288095Y-109511904D01*
X188335714Y-109607142D01*
X188383333Y-109654761D01*
X188478571Y-109702380D01*
X188669047Y-109702380D01*
X188764285Y-109654761D01*
X188811904Y-109607142D01*
X188859523Y-109511904D01*
X188859523Y-108702380D01*
X189859523Y-109702380D02*
X189288095Y-109702380D01*
X189573809Y-109702380D02*
X189573809Y-108702380D01*
X189478571Y-108845238D01*
X189383333Y-108940476D01*
X189288095Y-108988095D01*
X132838095Y-79452380D02*
X132838095Y-80261904D01*
X132885714Y-80357142D01*
X132933333Y-80404761D01*
X133028571Y-80452380D01*
X133219047Y-80452380D01*
X133314285Y-80404761D01*
X133361904Y-80357142D01*
X133409523Y-80261904D01*
X133409523Y-79452380D01*
X133838095Y-79547619D02*
X133885714Y-79500000D01*
X133980952Y-79452380D01*
X134219047Y-79452380D01*
X134314285Y-79500000D01*
X134361904Y-79547619D01*
X134409523Y-79642857D01*
X134409523Y-79738095D01*
X134361904Y-79880952D01*
X133790476Y-80452380D01*
X134409523Y-80452380D01*
X182038095Y-110892380D02*
X182038095Y-111701904D01*
X182085714Y-111797142D01*
X182133333Y-111844761D01*
X182228571Y-111892380D01*
X182419047Y-111892380D01*
X182514285Y-111844761D01*
X182561904Y-111797142D01*
X182609523Y-111701904D01*
X182609523Y-110892380D01*
X182990476Y-110892380D02*
X183657142Y-110892380D01*
X183228571Y-111892380D01*
X143990476Y-97952380D02*
X144657142Y-98952380D01*
X144657142Y-97952380D02*
X143990476Y-98952380D01*
X145561904Y-98952380D02*
X144990476Y-98952380D01*
X145276190Y-98952380D02*
X145276190Y-97952380D01*
X145180952Y-98095238D01*
X145085714Y-98190476D01*
X144990476Y-98238095D01*
X175990476Y-103952380D02*
X176657142Y-104952380D01*
X176657142Y-103952380D02*
X175990476Y-104952380D01*
X176990476Y-104047619D02*
X177038095Y-104000000D01*
X177133333Y-103952380D01*
X177371428Y-103952380D01*
X177466666Y-104000000D01*
X177514285Y-104047619D01*
X177561904Y-104142857D01*
X177561904Y-104238095D01*
X177514285Y-104380952D01*
X176942857Y-104952380D01*
X177561904Y-104952380D01*
X136038095Y-84252380D02*
X136038095Y-85061904D01*
X136085714Y-85157142D01*
X136133333Y-85204761D01*
X136228571Y-85252380D01*
X136419047Y-85252380D01*
X136514285Y-85204761D01*
X136561904Y-85157142D01*
X136609523Y-85061904D01*
X136609523Y-84252380D01*
X136990476Y-84252380D02*
X137609523Y-84252380D01*
X137276190Y-84633333D01*
X137419047Y-84633333D01*
X137514285Y-84680952D01*
X137561904Y-84728571D01*
X137609523Y-84823809D01*
X137609523Y-85061904D01*
X137561904Y-85157142D01*
X137514285Y-85204761D01*
X137419047Y-85252380D01*
X137133333Y-85252380D01*
X137038095Y-85204761D01*
X136990476Y-85157142D01*
X136038095Y-90852380D02*
X136038095Y-91661904D01*
X136085714Y-91757142D01*
X136133333Y-91804761D01*
X136228571Y-91852380D01*
X136419047Y-91852380D01*
X136514285Y-91804761D01*
X136561904Y-91757142D01*
X136609523Y-91661904D01*
X136609523Y-90852380D01*
X137514285Y-91185714D02*
X137514285Y-91852380D01*
X137276190Y-90804761D02*
X137038095Y-91519047D01*
X137657142Y-91519047D01*
X118038095Y-71452380D02*
X118038095Y-70452380D01*
X118038095Y-70928571D02*
X118609523Y-70928571D01*
X118609523Y-71452380D02*
X118609523Y-70452380D01*
X119609523Y-71452380D02*
X119038095Y-71452380D01*
X119323809Y-71452380D02*
X119323809Y-70452380D01*
X119228571Y-70595238D01*
X119133333Y-70690476D01*
X119038095Y-70738095D01*
X193038095Y-71452380D02*
X193038095Y-70452380D01*
X193038095Y-70928571D02*
X193609523Y-70928571D01*
X193609523Y-71452380D02*
X193609523Y-70452380D01*
X194038095Y-70547619D02*
X194085714Y-70500000D01*
X194180952Y-70452380D01*
X194419047Y-70452380D01*
X194514285Y-70500000D01*
X194561904Y-70547619D01*
X194609523Y-70642857D01*
X194609523Y-70738095D01*
X194561904Y-70880952D01*
X193990476Y-71452380D01*
X194609523Y-71452380D01*
X193038095Y-123452380D02*
X193038095Y-122452380D01*
X193038095Y-122928571D02*
X193609523Y-122928571D01*
X193609523Y-123452380D02*
X193609523Y-122452380D01*
X193990476Y-122452380D02*
X194609523Y-122452380D01*
X194276190Y-122833333D01*
X194419047Y-122833333D01*
X194514285Y-122880952D01*
X194561904Y-122928571D01*
X194609523Y-123023809D01*
X194609523Y-123261904D01*
X194561904Y-123357142D01*
X194514285Y-123404761D01*
X194419047Y-123452380D01*
X194133333Y-123452380D01*
X194038095Y-123404761D01*
X193990476Y-123357142D01*
X118038095Y-123452380D02*
X118038095Y-122452380D01*
X118038095Y-122928571D02*
X118609523Y-122928571D01*
X118609523Y-123452380D02*
X118609523Y-122452380D01*
X119514285Y-122785714D02*
X119514285Y-123452380D01*
X119276190Y-122404761D02*
X119038095Y-123119047D01*
X119657142Y-123119047D01*
X132938095Y-117452380D02*
X133509523Y-117452380D01*
X133223809Y-118452380D02*
X133223809Y-117452380D01*
X133842857Y-118452380D02*
X133842857Y-117452380D01*
X134223809Y-117452380D01*
X134319047Y-117500000D01*
X134366666Y-117547619D01*
X134414285Y-117642857D01*
X134414285Y-117785714D01*
X134366666Y-117880952D01*
X134319047Y-117928571D01*
X134223809Y-117976190D01*
X133842857Y-117976190D01*
X135366666Y-118452380D02*
X134795238Y-118452380D01*
X135080952Y-118452380D02*
X135080952Y-117452380D01*
X134985714Y-117595238D01*
X134890476Y-117690476D01*
X134795238Y-117738095D01*
X155331730Y-86809132D02*
X155264386Y-86809132D01*
X155129699Y-86741788D01*
X155062356Y-86674445D01*
X154995012Y-86539758D01*
X154995012Y-86405071D01*
X155028684Y-86304056D01*
X155129699Y-86135697D01*
X155230714Y-86034682D01*
X155399073Y-85933666D01*
X155500088Y-85899995D01*
X155634775Y-85899995D01*
X155769462Y-85967338D01*
X155836806Y-86034682D01*
X155904149Y-86169369D01*
X155904149Y-86236712D01*
X156207195Y-86405071D02*
X156644928Y-86842804D01*
X156139852Y-86876475D01*
X156240867Y-86977491D01*
X156274539Y-87078506D01*
X156274539Y-87145850D01*
X156240867Y-87246865D01*
X156072508Y-87415224D01*
X155971493Y-87448895D01*
X155904149Y-87448895D01*
X155803134Y-87415224D01*
X155601104Y-87213193D01*
X155567432Y-87112178D01*
X155567432Y-87044834D01*
X157015317Y-87684598D02*
X156543913Y-88156002D01*
X157116333Y-87246865D02*
X156442898Y-87583582D01*
X156880630Y-88021315D01*
X157597969Y-97957106D02*
X157597969Y-98024450D01*
X157530625Y-98159137D01*
X157463282Y-98226480D01*
X157328595Y-98293824D01*
X157193908Y-98293824D01*
X157092893Y-98260152D01*
X156924534Y-98159137D01*
X156823519Y-98058122D01*
X156722503Y-97889763D01*
X156688832Y-97788748D01*
X156688832Y-97654061D01*
X156756175Y-97519374D01*
X156823519Y-97452030D01*
X156958206Y-97384687D01*
X157025549Y-97384687D01*
X157193908Y-97081641D02*
X157631641Y-96643908D01*
X157665312Y-97148984D01*
X157766328Y-97047969D01*
X157867343Y-97014297D01*
X157934687Y-97014297D01*
X158035702Y-97047969D01*
X158204061Y-97216328D01*
X158237732Y-97317343D01*
X158237732Y-97384687D01*
X158204061Y-97485702D01*
X158002030Y-97687732D01*
X157901015Y-97721404D01*
X157833671Y-97721404D01*
X158271404Y-96004145D02*
X157934687Y-96340862D01*
X158237732Y-96711251D01*
X158237732Y-96643908D01*
X158271404Y-96542893D01*
X158439763Y-96374534D01*
X158540778Y-96340862D01*
X158608122Y-96340862D01*
X158709137Y-96374534D01*
X158877496Y-96542893D01*
X158911167Y-96643908D01*
X158911167Y-96711251D01*
X158877496Y-96812267D01*
X158709137Y-96980625D01*
X158608122Y-97014297D01*
X158540778Y-97014297D01*
X177797969Y-94207106D02*
X177797969Y-94274450D01*
X177730625Y-94409137D01*
X177663282Y-94476480D01*
X177528595Y-94543824D01*
X177393908Y-94543824D01*
X177292893Y-94510152D01*
X177124534Y-94409137D01*
X177023519Y-94308122D01*
X176922503Y-94139763D01*
X176888832Y-94038748D01*
X176888832Y-93904061D01*
X176956175Y-93769374D01*
X177023519Y-93702030D01*
X177158206Y-93634687D01*
X177225549Y-93634687D01*
X177393908Y-93331641D02*
X177831641Y-92893908D01*
X177865312Y-93398984D01*
X177966328Y-93297969D01*
X178067343Y-93264297D01*
X178134687Y-93264297D01*
X178235702Y-93297969D01*
X178404061Y-93466328D01*
X178437732Y-93567343D01*
X178437732Y-93634687D01*
X178404061Y-93735702D01*
X178202030Y-93937732D01*
X178101015Y-93971404D01*
X178033671Y-93971404D01*
X178437732Y-92287816D02*
X178303045Y-92422503D01*
X178269374Y-92523519D01*
X178269374Y-92590862D01*
X178303045Y-92759221D01*
X178404061Y-92927580D01*
X178673435Y-93196954D01*
X178774450Y-93230625D01*
X178841793Y-93230625D01*
X178942809Y-93196954D01*
X179077496Y-93062267D01*
X179111167Y-92961251D01*
X179111167Y-92893908D01*
X179077496Y-92792893D01*
X178909137Y-92624534D01*
X178808122Y-92590862D01*
X178740778Y-92590862D01*
X178639763Y-92624534D01*
X178505076Y-92759221D01*
X178471404Y-92860236D01*
X178471404Y-92927580D01*
X178505076Y-93028595D01*
X165842893Y-101297969D02*
X165775549Y-101297969D01*
X165640862Y-101230625D01*
X165573519Y-101163282D01*
X165506175Y-101028595D01*
X165506175Y-100893908D01*
X165539847Y-100792893D01*
X165640862Y-100624534D01*
X165741877Y-100523519D01*
X165910236Y-100422503D01*
X166011251Y-100388832D01*
X166145938Y-100388832D01*
X166280625Y-100456175D01*
X166347969Y-100523519D01*
X166415312Y-100658206D01*
X166415312Y-100725549D01*
X166718358Y-100893908D02*
X167156091Y-101331641D01*
X166651015Y-101365312D01*
X166752030Y-101466328D01*
X166785702Y-101567343D01*
X166785702Y-101634687D01*
X166752030Y-101735702D01*
X166583671Y-101904061D01*
X166482656Y-101937732D01*
X166415312Y-101937732D01*
X166314297Y-101904061D01*
X166112267Y-101702030D01*
X166078595Y-101601015D01*
X166078595Y-101533671D01*
X167391793Y-101567343D02*
X167863198Y-102038748D01*
X166853045Y-102442809D01*
M02*
